<svg id="svg" version="1.1" xmlns="http://www.w3.org/2000/svg" xmlns:xlink="http://www.w3.org/1999/xlink" width="400" height="400" viewBox="0, 0, 400,400"><g id="svgg"><path id="path0" d="M322.600 24.207 C 318.514 25.038,316.063 26.918,313.887 30.890 C 313.251 32.050,312.566 33.171,312.365 33.380 C 311.536 34.242,312.011 35.459,313.500 36.286 C 315.980 37.664,317.921 38.755,319.400 39.600 C 320.170 40.040,321.475 40.785,322.300 41.257 C 332.285 46.958,331.255 46.885,333.741 42.071 C 338.781 32.314,332.472 22.198,322.600 24.207 M105.530 108.204 C 105.388 108.346,103.770 108.626,101.936 108.828 C 97.707 109.291,92.942 110.190,89.400 111.192 C 84.103 112.691,83.671 112.836,79.200 114.619 C 75.048 116.275,69.009 119.310,67.900 120.299 C 67.148 120.970,66.766 311.285,67.516 311.748 C 67.690 311.856,68.455 311.667,69.216 311.328 C 69.977 310.990,71.050 310.532,71.600 310.310 C 72.150 310.088,72.913 309.748,73.295 309.553 C 73.677 309.359,74.264 309.200,74.600 309.200 C 74.936 309.200,75.523 309.029,75.905 308.819 C 77.355 308.023,84.306 306.013,89.600 304.858 C 99.385 302.723,109.682 301.781,119.245 302.147 C 132.472 302.652,141.247 303.811,154.700 306.826 C 155.745 307.060,157.276 307.349,158.103 307.468 C 158.929 307.587,159.705 307.845,159.826 308.042 C 159.948 308.239,160.656 308.400,161.400 308.400 C 162.144 308.400,162.864 308.580,163.000 308.800 C 163.136 309.020,163.678 309.200,164.205 309.200 C 164.731 309.200,165.576 309.361,166.081 309.558 C 166.587 309.755,167.810 310.136,168.800 310.405 C 169.790 310.673,171.050 311.031,171.600 311.200 C 172.150 311.369,173.410 311.729,174.400 311.999 C 175.390 312.270,176.560 312.632,177.000 312.804 C 179.255 313.685,185.439 315.478,185.700 315.327 C 186.055 315.121,186.112 123.557,185.757 122.633 C 185.624 122.285,185.171 122.000,184.752 122.000 C 184.332 122.000,183.677 121.823,183.295 121.607 C 181.048 120.335,160.423 114.224,152.400 112.453 C 147.680 111.412,146.847 111.236,144.700 110.832 C 137.796 109.534,136.682 109.359,131.400 108.736 C 127.558 108.282,105.896 107.837,105.530 108.204 M262.341 123.315 C 262.081 123.802,261.511 124.830,261.073 125.600 C 260.151 127.220,258.154 130.887,257.298 132.534 C 256.827 133.439,256.676 136.106,256.553 145.734 C 256.468 152.370,256.504 157.575,256.633 157.300 C 256.761 157.025,257.019 156.800,257.206 156.800 C 257.392 156.800,260.533 154.865,264.185 152.500 C 267.837 150.135,272.227 147.321,273.939 146.246 C 276.058 144.917,277.228 143.894,277.603 143.046 C 277.906 142.361,279.019 140.300,280.077 138.468 C 283.283 132.915,284.016 133.993,273.000 128.048 C 272.340 127.691,271.710 127.310,271.600 127.200 C 271.490 127.090,270.680 126.623,269.800 126.162 C 267.714 125.069,265.106 123.593,264.600 123.219 C 263.530 122.429,262.796 122.460,262.341 123.315 M131.000 133.548 C 132.540 133.761,135.420 134.142,137.400 134.393 C 141.105 134.864,142.691 135.137,148.200 136.252 C 149.960 136.608,151.850 136.975,152.400 137.068 C 152.950 137.162,154.030 137.398,154.800 137.594 C 155.570 137.789,157.100 138.152,158.200 138.400 C 166.300 140.225,168.581 141.318,171.226 144.648 C 175.212 149.666,172.974 158.747,167.072 161.500 C 166.482 161.775,165.578 162.195,165.063 162.434 C 163.818 163.010,158.853 162.704,155.600 161.850 C 149.327 160.204,147.086 159.690,142.200 158.777 C 126.073 155.764,108.806 155.474,96.400 158.008 C 91.170 159.076,89.888 158.997,86.200 157.380 C 79.618 154.493,78.022 144.355,83.317 139.063 C 85.377 137.004,87.722 135.897,91.400 135.247 C 92.940 134.975,95.010 134.593,96.000 134.398 C 97.720 134.059,103.781 133.343,107.600 133.028 C 110.802 132.763,128.116 133.148,131.000 133.548 M131.336 194.839 C 132.028 195.038,133.347 195.200,134.267 195.200 C 135.187 195.200,136.808 195.369,137.869 195.576 C 138.931 195.782,141.060 196.148,142.600 196.388 C 151.074 197.709,164.654 200.923,167.220 202.216 C 175.502 206.387,175.151 218.570,166.629 222.745 C 163.719 224.171,161.237 224.183,155.600 222.798 C 154.610 222.555,153.080 222.196,152.200 222.000 C 151.320 221.804,149.790 221.453,148.800 221.219 C 131.290 217.092,110.706 216.134,97.800 218.846 C 93.420 219.766,88.704 219.747,86.691 218.801 C 77.910 214.673,78.054 201.072,86.913 197.684 C 88.765 196.976,90.041 196.663,94.600 195.800 C 103.049 194.198,126.926 193.574,131.336 194.839 M133.200 255.937 C 141.826 257.060,151.514 258.872,159.000 260.760 C 159.880 260.982,161.320 261.336,162.200 261.547 C 168.519 263.063,171.680 265.824,173.022 271.000 C 174.222 275.626,171.848 280.815,167.315 283.471 C 164.495 285.124,161.356 285.163,154.800 283.627 C 146.378 281.655,146.488 281.678,140.000 280.458 C 137.651 280.016,133.705 279.418,129.800 278.911 C 128.480 278.740,122.450 278.600,116.400 278.600 C 105.974 278.600,102.248 278.869,96.600 280.029 C 90.567 281.269,86.974 280.658,83.962 277.881 C 77.971 272.356,79.215 262.102,86.253 259.000 C 88.961 257.807,89.367 257.669,91.000 257.394 C 91.880 257.245,93.500 256.960,94.600 256.759 C 95.700 256.559,98.202 256.219,100.159 256.005 C 102.116 255.791,103.822 255.511,103.950 255.383 C 104.315 255.018,129.860 255.502,133.200 255.937 " stroke="none" fill="#fbc304" fill-rule="evenodd"></path><path id="path1" d="M240.600 109.200 C 240.160 109.389,239.223 109.556,238.519 109.572 C 237.814 109.587,236.824 109.760,236.319 109.955 C 235.813 110.150,234.410 110.525,233.200 110.788 C 227.142 112.106,214.967 116.932,210.300 119.867 L 208.800 120.810 208.800 216.432 L 208.800 312.054 209.700 311.802 C 210.583 311.554,211.092 311.364,213.300 310.454 C 215.374 309.599,216.202 309.280,217.600 308.800 C 218.370 308.536,219.360 308.178,219.800 308.005 C 220.240 307.833,221.410 307.470,222.400 307.199 C 223.390 306.929,224.650 306.569,225.200 306.400 C 242.079 301.215,264.928 300.786,288.200 305.217 C 291.882 305.918,296.236 306.863,299.000 307.560 C 303.176 308.613,304.294 308.873,305.504 309.073 C 306.221 309.192,306.906 309.449,307.027 309.644 C 307.148 309.840,307.678 310.000,308.205 310.000 C 308.731 310.000,309.576 310.161,310.081 310.358 C 310.587 310.555,311.810 310.936,312.800 311.205 C 313.790 311.473,315.050 311.830,315.600 311.998 C 316.150 312.166,317.950 312.710,319.600 313.207 C 321.250 313.704,323.602 314.446,324.827 314.855 C 326.051 315.265,327.267 315.600,327.527 315.600 C 327.892 315.600,327.978 293.253,327.901 218.948 L 327.800 122.296 325.800 121.706 C 324.700 121.381,323.440 120.973,323.000 120.798 C 321.027 120.014,317.596 119.155,317.261 119.362 C 316.924 119.570,313.574 125.418,310.714 130.791 C 310.072 131.996,309.405 133.166,309.231 133.391 C 309.057 133.616,308.375 134.790,307.716 136.000 C 307.056 137.210,306.040 139.055,305.458 140.100 C 304.876 141.145,303.924 142.855,303.342 143.900 C 302.760 144.945,301.740 146.790,301.076 148.000 C 293.757 161.330,294.420 160.511,287.408 164.882 C 284.544 166.668,280.632 169.180,278.715 170.465 C 276.799 171.749,275.044 172.800,274.815 172.800 C 274.587 172.800,274.400 172.980,274.400 173.200 C 274.400 173.420,274.229 173.600,274.021 173.600 C 273.812 173.600,271.211 175.175,268.240 177.100 C 246.308 191.312,245.294 191.740,239.738 189.129 C 233.745 186.312,232.889 183.472,233.250 167.600 C 233.387 161.550,233.524 150.570,233.554 143.200 C 233.622 126.868,233.531 127.298,238.797 118.200 C 239.306 117.320,240.100 115.880,240.562 115.000 C 241.023 114.120,241.491 113.310,241.603 113.200 C 241.715 113.090,242.311 112.055,242.928 110.900 L 244.050 108.800 242.725 108.828 C 241.996 108.844,241.040 109.011,240.600 109.200 M294.600 195.133 C 297.340 195.514,300.745 196.065,304.451 196.728 C 316.506 198.882,318.913 213.722,308.038 218.834 C 306.068 219.760,301.681 219.748,297.200 218.803 C 286.757 216.602,269.849 216.782,256.400 219.237 C 250.705 220.276,246.072 221.193,244.300 221.630 C 240.597 222.544,239.310 222.882,238.026 223.280 C 226.035 226.994,216.875 213.846,225.106 204.736 C 227.078 202.553,228.708 201.812,234.671 200.391 C 248.655 197.057,254.083 196.064,262.944 195.221 C 265.113 195.015,266.999 194.734,267.136 194.598 C 267.512 194.221,291.395 194.687,294.600 195.133 M293.800 255.968 C 310.368 258.078,314.973 260.956,314.972 269.200 C 314.971 277.890,308.652 281.988,298.258 280.039 C 283.241 277.224,269.577 277.679,249.800 281.654 C 241.742 283.274,241.128 283.408,236.406 284.587 C 228.980 286.441,222.243 281.218,222.235 273.600 C 222.228 267.563,225.411 263.730,231.800 262.079 C 233.348 261.679,235.173 261.213,238.300 260.419 C 239.125 260.209,240.340 259.930,241.000 259.797 C 241.660 259.665,242.920 259.403,243.800 259.214 C 251.293 257.606,257.414 256.650,264.382 255.998 C 266.902 255.762,269.062 255.472,269.181 255.352 C 269.532 255.002,290.293 255.521,293.800 255.968 " stroke="none" fill="#fafafb" fill-rule="evenodd"></path><path id="path2" d="M299.094 56.700 C 298.387 58.077,296.699 61.097,294.946 64.121 C 294.206 65.398,293.600 66.511,293.600 66.594 C 293.600 66.677,292.250 69.121,290.600 72.026 C 288.950 74.931,287.600 77.364,287.600 77.433 C 287.600 77.501,286.994 78.602,286.254 79.879 C 285.514 81.155,284.409 83.100,283.798 84.200 C 283.188 85.300,282.238 87.010,281.688 88.000 C 278.909 93.003,277.387 95.748,275.297 99.529 C 274.520 100.934,274.054 102.201,274.249 102.380 C 274.587 102.689,276.100 103.552,280.800 106.117 C 282.010 106.777,284.170 107.989,285.600 108.811 C 287.030 109.632,289.564 111.041,291.231 111.941 L 294.263 113.579 295.070 112.089 C 295.514 111.270,296.292 109.880,296.800 109.000 C 297.308 108.120,298.208 106.500,298.801 105.400 C 299.816 103.515,300.514 102.254,303.064 97.700 C 305.192 93.899,309.720 85.746,310.894 83.600 C 311.556 82.390,312.414 80.860,312.799 80.200 C 313.185 79.540,313.948 78.190,314.494 77.200 C 315.040 76.210,315.900 74.680,316.405 73.800 C 316.910 72.920,317.848 71.214,318.488 70.009 C 319.129 68.804,319.820 67.616,320.025 67.370 C 320.483 66.818,319.665 66.043,317.200 64.695 C 311.607 61.636,310.331 60.933,307.600 59.401 C 299.634 54.932,299.950 55.032,299.094 56.700 M240.400 108.800 C 240.070 109.013,239.046 109.191,238.124 109.194 C 237.202 109.197,236.348 109.361,236.226 109.558 C 236.105 109.755,235.329 110.018,234.503 110.142 C 230.993 110.672,229.980 110.908,229.773 111.244 C 229.652 111.440,229.124 111.600,228.600 111.600 C 228.076 111.600,227.536 111.780,227.400 112.000 C 227.079 112.519,227.240 112.507,229.286 111.850 C 230.229 111.547,231.900 111.085,233.000 110.824 C 234.100 110.563,235.630 110.188,236.400 109.991 C 237.778 109.638,238.882 109.443,242.357 108.938 L 244.114 108.683 242.960 110.842 C 242.325 112.029,241.715 113.090,241.603 113.200 C 241.491 113.310,241.023 114.120,240.562 115.000 C 240.100 115.880,239.305 117.320,238.795 118.200 C 236.725 121.766,234.332 126.465,234.500 126.633 C 234.598 126.731,235.372 125.414,236.220 123.706 C 237.067 121.998,237.859 120.510,237.980 120.400 C 238.243 120.161,239.038 118.781,240.170 116.600 C 240.626 115.720,241.090 114.910,241.201 114.800 C 241.311 114.690,241.665 114.060,241.986 113.400 C 242.308 112.740,242.869 111.750,243.233 111.200 C 244.730 108.938,244.632 108.399,242.727 108.406 C 241.777 108.409,240.730 108.587,240.400 108.800 M225.000 112.800 C 224.708 113.273,225.099 113.273,226.200 112.800 C 226.971 112.469,226.969 112.455,226.124 112.428 C 225.642 112.413,225.136 112.580,225.000 112.800 M222.400 113.595 C 222.070 113.786,221.459 114.050,221.043 114.181 C 220.626 114.312,220.378 114.511,220.490 114.623 C 220.603 114.736,221.573 114.472,222.647 114.036 C 223.721 113.600,224.240 113.244,223.800 113.245 C 223.360 113.246,222.730 113.403,222.400 113.595 M217.870 115.479 C 217.248 115.805,216.826 116.159,216.932 116.265 C 217.038 116.371,217.816 116.093,218.662 115.647 C 219.508 115.200,219.930 114.846,219.600 114.860 C 219.270 114.874,218.491 115.152,217.870 115.479 M212.200 118.315 L 208.600 120.200 208.499 216.179 C 208.444 268.968,208.534 312.289,208.699 312.450 C 208.865 312.610,209.707 312.394,210.571 311.970 C 211.436 311.547,212.299 311.200,212.491 311.200 C 212.682 311.200,213.584 310.840,214.494 310.400 C 215.405 309.960,216.466 309.600,216.852 309.600 C 217.237 309.600,217.664 309.420,217.800 309.200 C 217.936 308.980,218.476 308.800,219.000 308.800 C 219.524 308.800,220.064 308.620,220.200 308.400 C 220.336 308.180,220.799 308.000,221.229 308.000 C 221.659 308.000,222.323 307.842,222.705 307.649 C 223.861 307.065,226.204 306.400,227.105 306.400 C 227.571 306.400,228.052 306.239,228.174 306.042 C 228.295 305.845,229.071 305.585,229.897 305.463 C 230.724 305.341,232.390 305.042,233.600 304.800 C 234.810 304.557,236.913 304.230,238.274 304.073 C 239.634 303.915,240.894 303.638,241.074 303.456 C 241.878 302.641,230.666 304.721,225.200 306.400 C 224.650 306.569,223.390 306.929,222.400 307.199 C 221.410 307.470,220.240 307.833,219.800 308.005 C 219.360 308.178,218.370 308.536,217.600 308.800 C 216.830 309.064,215.795 309.443,215.300 309.640 C 214.805 309.838,213.995 310.156,213.500 310.346 C 213.005 310.537,212.150 310.886,211.600 311.121 C 211.050 311.357,210.195 311.663,209.700 311.802 L 208.800 312.054 208.800 216.432 L 208.800 120.810 210.300 119.874 C 211.125 119.359,212.835 118.436,214.100 117.822 C 216.250 116.779,216.817 116.380,216.100 116.415 C 215.935 116.423,214.180 117.278,212.200 118.315 M316.615 119.176 C 315.747 120.580,314.009 124.142,314.131 124.265 C 314.214 124.347,314.855 123.337,315.557 122.021 C 317.245 118.853,317.855 118.753,323.000 120.798 C 323.440 120.973,324.700 121.381,325.800 121.706 L 327.800 122.296 327.901 218.919 C 327.991 305.124,327.936 315.561,327.393 315.730 C 326.966 315.862,326.996 315.899,327.492 315.854 C 328.677 315.745,328.585 121.872,327.400 121.685 C 326.960 121.616,326.240 121.407,325.800 121.222 C 322.103 119.664,317.014 118.530,316.615 119.176 M311.999 127.500 C 311.233 128.985,310.515 130.290,310.403 130.400 C 310.291 130.510,309.795 131.365,309.300 132.300 C 308.805 133.235,307.995 134.765,307.500 135.700 C 307.005 136.635,306.465 137.460,306.300 137.533 C 306.135 137.607,306.000 137.800,306.000 137.963 C 306.000 138.126,304.899 140.226,303.554 142.630 C 302.209 145.033,300.526 148.080,299.814 149.400 C 299.102 150.720,297.996 152.700,297.356 153.800 C 296.715 154.900,295.933 156.340,295.618 157.000 C 295.024 158.241,291.258 162.400,290.727 162.400 C 290.365 162.400,282.400 167.590,282.400 167.826 C 282.400 168.010,285.910 165.890,290.200 163.117 C 294.272 160.484,294.061 160.777,301.076 148.000 C 301.740 146.790,302.785 144.900,303.398 143.800 C 304.010 142.700,304.963 140.990,305.514 140.000 C 306.065 139.010,307.056 137.210,307.716 136.000 C 308.375 134.790,309.057 133.616,309.231 133.391 C 309.405 133.166,310.072 131.985,310.713 130.766 C 311.354 129.547,312.373 127.706,312.977 126.675 C 313.582 125.644,313.922 124.800,313.734 124.800 C 313.546 124.800,312.765 126.015,311.999 127.500 M233.890 128.750 C 233.731 129.493,233.627 132.822,233.660 136.150 L 233.720 142.200 234.061 135.600 C 234.426 128.535,234.375 126.495,233.890 128.750 M31.377 156.367 C 27.880 156.941,24.497 159.940,23.263 163.560 C 22.578 165.570,22.598 348.348,23.284 350.372 C 24.195 353.063,26.280 355.482,28.719 356.680 L 31.000 357.800 100.800 358.000 C 165.169 358.184,170.711 358.252,172.025 358.874 C 174.216 359.910,176.479 362.348,178.290 365.624 C 187.185 381.707,209.270 380.910,217.604 364.205 C 218.459 362.491,221.290 359.753,223.073 358.917 C 224.518 358.238,228.484 358.189,297.200 358.000 L 369.800 357.800 371.737 356.811 C 374.015 355.647,375.788 353.749,376.958 351.220 L 377.800 349.400 377.903 256.919 L 378.007 164.438 377.015 162.271 C 374.584 156.955,372.601 156.223,360.600 156.210 L 351.000 156.200 350.905 245.400 L 350.809 334.600 349.905 336.400 C 346.782 342.613,341.749 344.163,333.506 341.448 C 331.248 340.704,327.510 339.515,325.200 338.807 C 322.890 338.098,320.640 337.380,320.200 337.211 C 319.254 336.849,314.946 335.524,312.400 334.812 C 311.410 334.535,310.240 334.174,309.800 334.010 C 307.808 333.266,306.075 332.800,305.295 332.800 C 304.829 332.800,304.348 332.640,304.227 332.444 C 304.106 332.249,303.421 331.998,302.704 331.886 C 301.987 331.775,299.960 331.301,298.200 330.832 C 296.440 330.363,294.100 329.786,293.000 329.550 C 291.900 329.313,290.280 328.957,289.400 328.759 C 285.549 327.890,278.035 326.594,273.000 325.929 C 267.717 325.230,248.606 325.219,244.000 325.911 C 236.843 326.986,228.217 329.117,224.100 330.826 C 223.605 331.032,222.795 331.356,222.300 331.546 C 220.175 332.365,219.167 332.818,215.000 334.831 C 212.580 336.000,210.150 337.260,209.600 337.632 C 209.050 338.003,207.970 338.663,207.200 339.099 C 206.430 339.534,204.826 340.500,203.636 341.245 C 200.138 343.435,191.746 342.639,185.905 339.566 C 185.523 339.365,184.936 339.200,184.600 339.200 C 184.264 339.200,183.677 339.038,183.295 338.841 C 182.913 338.644,181.250 338.082,179.600 337.593 C 177.950 337.105,176.240 336.567,175.800 336.398 C 175.360 336.229,174.190 335.870,173.200 335.600 C 172.210 335.330,171.040 334.970,170.600 334.800 C 170.160 334.630,168.990 334.272,168.000 334.004 C 167.010 333.736,165.787 333.355,165.281 333.158 C 164.776 332.961,163.931 332.800,163.405 332.800 C 162.878 332.800,162.348 332.640,162.227 332.444 C 162.106 332.249,161.421 332.000,160.704 331.892 C 159.987 331.785,157.690 331.253,155.600 330.711 C 153.510 330.170,150.720 329.497,149.400 329.217 C 148.080 328.937,146.460 328.561,145.800 328.381 C 144.736 328.091,141.903 327.606,131.800 325.981 C 118.511 323.845,94.963 325.850,84.600 330.002 C 84.160 330.178,82.720 330.731,81.400 331.230 C 75.404 333.499,70.283 336.036,63.972 339.864 C 57.474 343.805,52.578 343.643,47.971 339.335 C 44.020 335.639,44.400 345.709,44.400 244.585 L 44.400 156.000 38.700 156.050 C 35.565 156.078,32.270 156.220,31.377 156.367 M233.114 168.900 C 233.051 174.235,233.114 179.230,233.254 180.000 C 233.394 180.770,233.529 176.405,233.554 170.300 C 233.579 164.195,233.516 159.200,233.414 159.200 C 233.311 159.200,233.176 163.565,233.114 168.900 M280.400 168.774 C 278.818 169.929,271.194 174.800,270.969 174.800 C 270.858 174.800,270.380 175.160,269.908 175.600 C 269.436 176.040,268.813 176.400,268.525 176.400 C 268.236 176.400,268.000 176.580,268.000 176.800 C 268.000 177.020,267.764 177.200,267.475 177.200 C 267.187 177.200,266.564 177.560,266.092 178.000 C 265.620 178.440,265.142 178.800,265.029 178.800 C 264.672 178.800,259.200 182.429,259.200 182.665 C 259.200 182.790,259.605 182.627,260.100 182.303 C 260.595 181.978,262.260 180.942,263.800 180.000 C 265.339 179.058,268.167 177.232,270.084 175.943 C 272.001 174.655,273.756 173.600,273.985 173.600 C 274.213 173.600,274.400 173.420,274.400 173.200 C 274.400 172.980,274.588 172.800,274.818 172.800 C 275.198 172.800,280.877 169.166,281.780 168.345 C 282.495 167.695,281.422 168.029,280.400 168.774 M233.612 182.000 C 233.612 182.330,233.787 182.870,234.000 183.200 C 234.345 183.733,234.388 183.733,234.388 183.200 C 234.388 182.870,234.213 182.330,234.000 182.000 C 233.655 181.467,233.612 181.467,233.612 182.000 M254.479 185.388 C 248.126 189.429,242.181 191.111,241.000 189.200 C 240.864 188.980,240.385 188.800,239.935 188.800 C 239.461 188.800,238.107 187.769,236.715 186.346 C 235.394 184.996,234.520 184.277,234.772 184.747 C 237.358 189.579,244.384 191.482,249.687 188.787 C 251.821 187.703,257.599 184.037,258.580 183.145 C 259.510 182.300,258.257 182.985,254.479 185.388 M267.136 194.598 C 266.999 194.734,265.113 195.015,262.944 195.221 C 256.615 195.824,251.892 196.576,243.231 198.359 C 241.208 198.775,240.124 199.200,241.084 199.200 C 241.314 199.200,243.639 198.769,246.251 198.241 C 252.695 196.940,258.906 196.000,266.200 195.220 C 271.322 194.672,287.128 194.673,291.579 195.221 C 308.923 197.357,311.307 198.445,314.324 205.600 C 314.565 206.170,314.757 206.333,314.773 205.979 C 314.926 202.474,309.539 197.670,304.400 196.727 C 301.170 196.134,297.454 195.530,294.600 195.133 C 291.395 194.687,267.512 194.221,267.136 194.598 M237.800 199.600 L 237.000 199.944 237.800 199.944 C 238.240 199.944,238.960 199.789,239.400 199.600 L 240.200 199.256 239.400 199.256 C 238.960 199.256,238.240 199.411,237.800 199.600 M234.400 200.400 L 233.400 200.720 234.400 200.754 C 234.950 200.773,235.670 200.613,236.000 200.400 C 236.764 199.906,235.942 199.906,234.400 200.400 M231.200 201.200 L 230.200 201.520 231.200 201.554 C 231.750 201.573,232.470 201.413,232.800 201.200 C 233.564 200.706,232.742 200.706,231.200 201.200 M228.200 202.263 C 215.394 208.992,224.092 227.595,238.026 223.280 C 239.310 222.882,240.597 222.544,244.300 221.630 C 246.520 221.082,252.476 219.931,260.800 218.441 L 263.000 218.047 260.600 218.252 C 256.196 218.628,246.513 220.520,239.200 222.435 C 236.662 223.099,230.404 223.364,229.870 222.830 C 229.633 222.593,229.141 222.400,228.776 222.400 C 228.411 222.400,227.300 221.685,226.307 220.811 C 220.273 215.499,221.420 206.007,228.500 202.670 C 229.325 202.281,230.000 201.881,230.000 201.781 C 230.000 201.463,229.433 201.615,228.200 202.263 M314.184 211.388 C 312.514 217.691,306.804 220.279,298.345 218.565 C 296.621 218.216,294.983 218.012,294.705 218.112 C 294.427 218.213,295.100 218.422,296.200 218.577 C 297.300 218.732,298.722 219.026,299.360 219.230 C 303.106 220.426,308.118 219.401,311.287 216.789 C 312.817 215.527,315.014 211.605,314.688 210.717 C 314.584 210.432,314.357 210.735,314.184 211.388 M276.517 217.097 C 278.011 217.174,280.351 217.174,281.717 217.096 C 283.082 217.018,281.860 216.955,279.000 216.955 C 276.140 216.956,275.022 217.020,276.517 217.097 M265.000 217.600 L 263.000 217.874 265.200 217.908 C 266.410 217.926,268.210 217.797,269.200 217.620 L 271.000 217.300 269.000 217.313 C 267.900 217.320,266.100 217.449,265.000 217.600 M288.800 217.620 C 289.790 217.797,291.410 217.930,292.400 217.917 L 294.200 217.893 292.200 217.582 C 291.100 217.410,289.480 217.277,288.600 217.285 L 287.000 217.300 288.800 217.620 M269.181 255.352 C 269.062 255.472,266.902 255.762,264.382 255.998 C 254.726 256.901,245.448 258.589,233.700 261.582 C 232.875 261.792,231.660 262.091,231.000 262.247 C 229.270 262.654,225.600 264.740,225.600 265.317 C 225.600 265.495,226.185 265.210,226.900 264.684 C 228.254 263.688,229.435 263.199,232.300 262.446 C 236.760 261.275,239.925 260.493,241.400 260.197 C 242.060 260.065,243.410 259.777,244.400 259.557 C 245.390 259.337,247.145 258.987,248.300 258.779 C 249.455 258.570,251.435 258.212,252.700 257.982 C 266.984 255.386,285.744 255.075,299.200 257.211 C 300.630 257.438,302.520 257.726,303.400 257.853 C 304.280 257.979,305.171 258.244,305.380 258.441 C 305.589 258.638,306.079 258.800,306.469 258.800 C 307.070 258.800,309.521 260.036,311.027 261.099 C 311.809 261.650,313.874 264.982,314.189 266.200 C 314.359 266.860,314.579 267.183,314.676 266.919 C 314.946 266.188,313.470 263.135,312.083 261.555 C 309.626 258.757,305.285 257.430,293.800 255.968 C 290.293 255.521,269.532 255.002,269.181 255.352 M224.537 266.184 C 222.039 268.899,221.368 275.035,223.183 278.566 C 224.153 280.453,227.294 283.620,228.156 283.579 C 228.400 283.567,228.180 283.265,227.666 282.907 C 222.075 279.014,220.812 271.518,224.900 266.490 C 225.451 265.813,225.129 265.541,224.537 266.184 M314.909 269.200 C 314.909 270.190,314.987 270.595,315.082 270.100 C 315.178 269.605,315.178 268.795,315.082 268.300 C 314.987 267.805,314.909 268.210,314.909 269.200 M314.211 272.470 C 312.936 277.003,309.140 279.844,303.600 280.409 L 301.000 280.674 303.285 280.737 C 306.670 280.830,309.467 279.641,311.892 277.076 C 313.682 275.184,315.203 272.270,314.676 271.743 C 314.565 271.631,314.355 271.958,314.211 272.470 M267.456 278.277 C 267.304 278.430,265.699 278.693,263.890 278.863 C 258.639 279.355,255.666 279.801,255.321 280.148 C 255.144 280.326,255.720 280.361,256.600 280.227 C 267.545 278.553,270.995 278.305,281.263 278.456 C 286.687 278.535,290.917 278.468,290.663 278.306 C 290.075 277.933,267.829 277.905,267.456 278.277 M291.633 278.944 C 291.725 279.023,292.970 279.202,294.400 279.340 C 296.149 279.510,296.804 279.465,296.400 279.202 C 295.859 278.851,291.235 278.600,291.633 278.944 M297.233 279.744 C 297.325 279.824,298.210 280.006,299.200 280.150 C 300.458 280.333,300.819 280.291,300.400 280.012 C 299.860 279.653,296.832 279.397,297.233 279.744 M251.200 280.823 C 250.774 281.114,251.180 281.155,252.600 280.965 C 253.700 280.818,254.675 280.631,254.767 280.549 C 255.168 280.190,251.739 280.454,251.200 280.823 M247.400 281.600 L 246.600 281.944 247.400 281.925 C 247.840 281.914,248.740 281.768,249.400 281.600 L 250.600 281.295 249.400 281.275 C 248.740 281.265,247.840 281.411,247.400 281.600 M244.000 282.400 C 243.236 282.894,244.058 282.894,245.600 282.400 L 246.600 282.080 245.600 282.046 C 245.050 282.027,244.330 282.187,244.000 282.400 M240.800 283.200 C 240.005 283.714,241.004 283.714,242.200 283.200 L 243.000 282.856 242.200 282.834 C 241.760 282.822,241.130 282.987,240.800 283.200 M229.000 284.000 C 229.136 284.220,229.642 284.387,230.124 284.372 C 230.969 284.345,230.971 284.331,230.200 284.000 C 229.099 283.527,228.708 283.527,229.000 284.000 M237.400 284.000 L 236.600 284.344 237.400 284.366 C 237.840 284.378,238.470 284.213,238.800 284.000 C 239.595 283.486,238.596 283.486,237.400 284.000 M232.357 284.862 C 233.231 285.114,234.228 285.115,235.157 284.868 C 236.462 284.520,236.331 284.482,233.800 284.477 C 231.324 284.473,231.157 284.517,232.357 284.862 M254.482 302.296 C 255.958 302.373,258.478 302.373,260.082 302.297 C 261.687 302.221,260.480 302.158,257.400 302.158 C 254.320 302.157,253.007 302.219,254.482 302.296 M244.000 302.800 L 241.400 303.062 244.400 303.084 C 246.050 303.096,247.940 302.968,248.600 302.800 C 250.162 302.402,247.946 302.402,244.000 302.800 M266.200 302.783 C 267.383 303.101,274.291 303.340,273.967 303.052 C 273.875 302.971,271.820 302.804,269.400 302.682 C 266.896 302.556,265.517 302.600,266.200 302.783 M274.532 303.465 C 274.678 303.611,276.103 303.876,277.698 304.054 C 279.294 304.232,281.770 304.568,283.200 304.801 C 284.630 305.033,286.520 305.318,287.400 305.434 C 288.280 305.550,289.360 305.804,289.800 305.998 C 290.240 306.192,291.230 306.442,292.000 306.553 C 292.770 306.664,294.300 306.957,295.400 307.204 C 296.500 307.450,298.076 307.749,298.903 307.868 C 299.729 307.987,300.505 308.245,300.626 308.442 C 300.748 308.639,301.229 308.800,301.695 308.800 C 302.162 308.800,303.096 308.968,303.772 309.173 C 304.447 309.378,305.810 309.759,306.800 310.019 C 307.790 310.280,309.050 310.631,309.600 310.800 C 310.150 310.969,311.410 311.329,312.400 311.600 C 313.390 311.871,314.650 312.231,315.200 312.400 C 315.750 312.569,316.920 312.906,317.800 313.150 C 318.680 313.393,320.897 314.062,322.728 314.635 C 324.558 315.209,326.143 315.590,326.250 315.483 C 326.357 315.376,325.400 314.977,324.122 314.596 C 322.845 314.215,320.810 313.589,319.600 313.205 C 318.390 312.821,316.590 312.279,315.600 312.000 C 311.460 310.832,310.958 310.682,310.081 310.349 C 309.576 310.157,308.731 310.000,308.205 310.000 C 307.678 310.000,307.148 309.840,307.027 309.644 C 306.906 309.449,306.221 309.192,305.504 309.073 C 304.787 308.955,303.480 308.673,302.600 308.447 C 291.011 305.473,273.417 302.350,274.532 303.465 " stroke="none" fill="#53abe3" fill-rule="evenodd"></path><path id="path3" d="M317.000 0.800 C 316.864 1.020,316.144 1.200,315.400 1.200 C 314.656 1.200,313.936 1.380,313.800 1.600 C 313.664 1.820,313.113 2.000,312.576 2.000 C 312.039 2.000,311.600 2.180,311.600 2.400 C 311.600 2.620,311.366 2.800,311.080 2.800 C 310.344 2.800,308.407 3.741,308.403 4.100 C 308.401 4.265,308.080 4.400,307.688 4.400 C 307.297 4.400,306.717 4.760,306.400 5.200 C 306.083 5.640,305.543 6.000,305.200 6.000 C 304.857 6.000,304.317 6.360,304.000 6.800 C 303.683 7.240,303.185 7.600,302.894 7.600 C 302.602 7.600,301.952 8.005,301.450 8.500 C 300.947 8.995,300.000 9.850,299.345 10.400 C 298.691 10.950,297.720 12.030,297.188 12.800 C 296.657 13.570,295.902 14.549,295.511 14.975 C 295.120 15.402,294.800 15.987,294.800 16.275 C 294.800 16.564,294.665 16.800,294.499 16.800 C 294.203 16.800,293.110 18.774,291.787 21.700 C 291.414 22.525,290.949 23.200,290.754 23.200 C 290.559 23.200,290.400 23.560,290.400 24.000 C 290.400 24.440,290.254 24.800,290.075 24.800 C 289.896 24.800,289.502 25.430,289.200 26.200 C 288.898 26.970,288.504 27.600,288.325 27.600 C 288.146 27.600,288.000 27.878,288.000 28.217 C 288.000 28.556,287.640 29.220,287.200 29.692 C 286.760 30.164,286.400 30.787,286.400 31.075 C 286.400 31.364,286.220 31.600,286.000 31.600 C 285.780 31.600,285.600 31.960,285.600 32.400 C 285.600 32.840,285.420 33.200,285.200 33.200 C 284.980 33.200,284.800 33.560,284.800 34.000 C 284.800 34.440,284.620 34.800,284.400 34.800 C 284.180 34.800,284.000 35.036,284.000 35.325 C 284.000 35.613,283.640 36.236,283.200 36.708 C 282.760 37.180,282.400 37.844,282.400 38.183 C 282.400 38.522,282.220 38.800,282.000 38.800 C 281.780 38.800,281.600 39.160,281.600 39.600 C 281.600 40.040,281.420 40.400,281.200 40.400 C 280.980 40.400,280.800 40.760,280.800 41.200 C 280.800 41.640,280.620 42.000,280.400 42.000 C 280.180 42.000,280.000 42.270,280.000 42.600 C 280.000 42.930,279.865 43.201,279.700 43.203 C 279.535 43.205,279.202 43.610,278.961 44.103 C 277.882 46.305,275.490 50.635,275.162 50.980 C 274.963 51.189,274.800 51.684,274.800 52.080 C 274.800 52.476,274.620 52.800,274.400 52.800 C 274.180 52.800,274.000 53.160,274.000 53.600 C 274.000 54.040,273.820 54.400,273.600 54.400 C 273.380 54.400,273.200 54.678,273.200 55.017 C 273.200 55.356,272.840 56.020,272.400 56.492 C 271.960 56.964,271.600 57.587,271.600 57.875 C 271.600 58.164,271.454 58.400,271.275 58.400 C 271.096 58.400,270.702 59.030,270.400 59.800 C 270.098 60.570,269.704 61.200,269.525 61.200 C 269.346 61.200,269.200 61.560,269.200 62.000 C 269.200 62.440,269.020 62.800,268.800 62.800 C 268.580 62.800,268.400 63.070,268.400 63.400 C 268.400 63.730,268.220 64.000,268.000 64.000 C 267.780 64.000,267.600 64.270,267.600 64.600 C 267.600 64.930,267.420 65.200,267.200 65.200 C 266.980 65.200,266.800 65.560,266.800 66.000 C 266.800 66.440,266.620 66.800,266.400 66.800 C 266.180 66.800,266.000 67.160,266.000 67.600 C 266.000 68.040,265.820 68.400,265.600 68.400 C 265.380 68.400,265.200 68.678,265.200 69.017 C 265.200 69.356,264.840 70.020,264.400 70.492 C 263.960 70.964,263.600 71.587,263.600 71.875 C 263.600 72.164,263.420 72.400,263.200 72.400 C 262.980 72.400,262.800 72.760,262.800 73.200 C 262.800 73.640,262.620 74.000,262.400 74.000 C 262.180 74.000,262.000 74.360,262.000 74.800 C 262.000 75.240,261.820 75.600,261.600 75.600 C 261.380 75.600,261.200 75.758,261.200 75.952 C 261.200 76.145,260.570 77.349,259.800 78.628 C 259.030 79.907,258.400 81.279,258.400 81.676 C 258.400 82.074,258.241 82.400,258.047 82.400 C 257.852 82.400,257.599 82.760,257.484 83.200 C 257.303 83.891,256.938 84.000,254.814 84.000 C 253.460 84.000,252.447 84.153,252.562 84.339 C 252.678 84.526,250.393 84.716,247.486 84.763 C 244.579 84.810,242.140 85.017,242.067 85.224 C 241.993 85.431,240.688 85.600,239.167 85.600 C 237.589 85.600,236.400 85.772,236.400 86.000 C 236.400 86.220,235.511 86.400,234.424 86.400 C 233.337 86.400,232.336 86.580,232.200 86.800 C 232.064 87.020,231.254 87.200,230.400 87.200 C 229.546 87.200,228.736 87.380,228.600 87.600 C 228.464 87.820,227.733 88.000,226.976 88.000 C 226.219 88.000,225.600 88.180,225.600 88.400 C 225.600 88.620,224.880 88.800,224.000 88.800 C 223.120 88.800,222.400 88.980,222.400 89.200 C 222.400 89.420,221.860 89.600,221.200 89.600 C 220.540 89.600,220.000 89.780,220.000 90.000 C 220.000 90.220,219.460 90.400,218.800 90.400 C 218.140 90.400,217.600 90.580,217.600 90.800 C 217.600 91.020,217.060 91.200,216.400 91.200 C 215.740 91.200,215.200 91.360,215.200 91.555 C 215.200 91.751,214.538 92.035,213.729 92.187 C 212.347 92.446,208.841 93.888,208.400 94.378 C 208.290 94.500,207.870 94.656,207.468 94.725 C 207.065 94.794,206.115 95.199,205.356 95.625 C 204.597 96.051,203.711 96.400,203.388 96.400 C 203.065 96.400,202.797 96.535,202.794 96.700 C 202.790 96.865,201.890 97.440,200.794 97.979 C 199.697 98.517,198.800 99.102,198.800 99.279 C 198.800 99.455,198.440 99.600,198.000 99.600 C 197.560 99.600,197.200 99.780,197.200 100.000 C 197.200 100.220,196.480 100.400,195.600 100.400 C 194.720 100.400,194.000 100.220,194.000 100.000 C 194.000 99.780,193.460 99.600,192.800 99.600 C 192.140 99.600,191.600 99.420,191.600 99.200 C 191.600 98.980,191.161 98.800,190.624 98.800 C 190.087 98.800,189.536 98.620,189.400 98.400 C 189.264 98.180,188.724 98.000,188.200 98.000 C 187.676 98.000,187.136 97.820,187.000 97.600 C 186.864 97.380,186.324 97.200,185.800 97.200 C 185.276 97.200,184.736 97.020,184.600 96.800 C 184.464 96.580,183.924 96.400,183.400 96.400 C 182.876 96.400,182.336 96.220,182.200 96.000 C 182.064 95.780,181.333 95.600,180.576 95.600 C 179.819 95.600,179.200 95.420,179.200 95.200 C 179.200 94.980,178.660 94.800,178.000 94.800 C 177.340 94.800,176.800 94.620,176.800 94.400 C 176.800 94.180,176.271 94.000,175.624 94.000 C 174.977 94.000,174.336 93.820,174.200 93.600 C 174.064 93.380,173.459 93.200,172.856 93.200 C 172.253 93.200,171.589 93.040,171.380 92.844 C 171.012 92.500,167.784 91.769,164.697 91.329 C 163.871 91.212,163.095 90.955,162.974 90.758 C 162.852 90.561,162.144 90.400,161.400 90.400 C 160.656 90.400,159.936 90.220,159.800 90.000 C 159.664 89.780,158.944 89.600,158.200 89.600 C 157.456 89.600,156.736 89.420,156.600 89.200 C 156.464 88.980,155.744 88.800,155.000 88.800 C 154.256 88.800,153.536 88.620,153.400 88.400 C 153.264 88.180,152.353 88.000,151.376 88.000 C 150.399 88.000,149.600 87.820,149.600 87.600 C 149.600 87.380,148.711 87.200,147.624 87.200 C 146.537 87.200,145.536 87.020,145.400 86.800 C 145.264 86.580,144.184 86.400,143.000 86.400 C 141.816 86.400,140.736 86.220,140.600 86.000 C 140.464 85.780,139.204 85.600,137.800 85.600 C 136.396 85.600,135.136 85.420,135.000 85.200 C 134.864 84.980,133.154 84.800,131.200 84.800 C 129.246 84.800,127.536 84.620,127.400 84.400 C 127.063 83.855,104.137 83.855,103.800 84.400 C 103.664 84.620,102.033 84.800,100.176 84.800 C 98.192 84.800,96.800 84.965,96.800 85.200 C 96.800 85.422,95.733 85.600,94.400 85.600 C 93.067 85.600,92.000 85.778,92.000 86.000 C 92.000 86.220,91.201 86.400,90.224 86.400 C 89.247 86.400,88.336 86.580,88.200 86.800 C 88.064 87.020,87.243 87.200,86.376 87.200 C 85.509 87.200,84.800 87.380,84.800 87.600 C 84.800 87.820,84.159 88.000,83.376 88.000 C 82.529 88.000,82.053 88.162,82.200 88.400 C 82.349 88.642,81.804 88.800,80.824 88.800 C 79.931 88.800,79.200 88.980,79.200 89.200 C 79.200 89.420,78.761 89.600,78.224 89.600 C 77.687 89.600,77.136 89.780,77.000 90.000 C 76.864 90.220,76.313 90.400,75.776 90.400 C 75.239 90.400,74.800 90.580,74.800 90.800 C 74.800 91.020,74.361 91.200,73.824 91.200 C 73.287 91.200,72.736 91.380,72.600 91.600 C 72.464 91.820,72.048 92.001,71.676 92.002 C 71.304 92.004,70.484 92.274,69.854 92.602 C 69.224 92.931,68.527 93.200,68.306 93.200 C 67.711 93.200,59.423 97.309,59.267 97.682 C 59.193 97.857,58.871 98.000,58.550 98.000 C 58.229 98.000,57.580 98.360,57.108 98.800 C 56.636 99.240,56.013 99.600,55.725 99.600 C 55.436 99.600,55.200 99.780,55.200 100.000 C 55.200 100.220,54.922 100.400,54.583 100.400 C 54.244 100.400,53.580 100.760,53.108 101.200 C 52.636 101.640,52.013 102.000,51.725 102.000 C 51.436 102.000,51.200 102.180,51.200 102.400 C 51.200 102.620,50.957 102.800,50.659 102.800 C 50.362 102.800,49.554 103.340,48.863 104.000 C 48.172 104.660,47.396 105.200,47.137 105.200 C 46.878 105.200,46.780 105.314,46.919 105.453 C 47.058 105.592,46.638 106.204,45.986 106.813 C 45.334 107.422,44.800 108.209,44.800 108.560 C 44.800 108.912,44.620 109.200,44.400 109.200 C 44.180 109.200,44.000 109.639,44.000 110.176 C 44.000 110.713,43.820 111.264,43.600 111.400 C 43.350 111.555,43.200 115.537,43.200 122.024 L 43.200 132.400 36.424 132.400 C 32.337 132.400,29.549 132.559,29.400 132.800 C 29.264 133.020,28.173 133.200,26.976 133.200 C 25.779 133.200,24.800 133.380,24.800 133.600 C 24.800 133.820,24.260 134.000,23.600 134.000 C 22.940 134.000,22.400 134.180,22.400 134.400 C 22.400 134.620,21.860 134.800,21.200 134.800 C 20.540 134.800,20.000 134.980,20.000 135.200 C 20.000 135.420,19.640 135.600,19.200 135.600 C 18.760 135.600,18.400 135.780,18.400 136.000 C 18.400 136.220,18.040 136.400,17.600 136.400 C 17.160 136.400,16.800 136.580,16.800 136.800 C 16.800 137.020,16.480 137.200,16.088 137.200 C 15.697 137.200,15.117 137.560,14.800 138.000 C 14.483 138.440,14.004 138.800,13.735 138.800 C 13.068 138.800,6.328 145.534,5.628 146.900 C 5.318 147.505,4.915 148.000,4.732 148.000 C 4.550 148.000,4.400 148.360,4.400 148.800 C 4.400 149.240,4.220 149.600,4.000 149.600 C 3.780 149.600,3.600 149.971,3.600 150.424 C 3.600 150.877,3.420 151.136,3.200 151.000 C 2.980 150.864,2.800 151.113,2.800 151.553 C 2.800 151.993,2.620 152.464,2.400 152.600 C 2.180 152.736,2.000 153.197,2.000 153.624 C 2.000 154.051,1.820 154.400,1.600 154.400 C 1.380 154.400,1.200 154.925,1.200 155.567 C 1.200 156.208,0.975 156.808,0.700 156.900 C -0.036 157.145,-0.036 356.855,0.700 357.100 C 0.975 357.192,1.200 357.792,1.200 358.433 C 1.200 359.075,1.380 359.600,1.600 359.600 C 1.820 359.600,2.000 359.960,2.000 360.400 C 2.000 360.840,2.180 361.200,2.400 361.200 C 2.620 361.200,2.800 361.560,2.800 362.000 C 2.800 362.440,2.980 362.800,3.200 362.800 C 3.420 362.800,3.600 363.160,3.600 363.600 C 3.600 364.040,3.780 364.400,4.000 364.400 C 4.220 364.400,4.400 364.720,4.400 365.112 C 4.400 365.503,4.760 366.083,5.200 366.400 C 5.640 366.717,6.000 367.203,6.000 367.480 C 6.000 368.265,11.639 373.981,13.096 374.672 C 13.813 375.013,14.400 375.451,14.400 375.646 C 14.400 375.841,14.678 376.000,15.017 376.000 C 15.356 376.000,16.020 376.360,16.492 376.800 C 16.964 377.240,17.688 377.600,18.099 377.600 C 18.511 377.600,18.736 377.780,18.600 378.000 C 18.456 378.233,18.863 378.400,19.576 378.400 C 20.249 378.400,20.800 378.580,20.800 378.800 C 20.800 379.020,21.149 379.200,21.576 379.200 C 22.003 379.200,22.464 379.380,22.600 379.600 C 22.736 379.820,23.467 380.000,24.224 380.000 C 24.981 380.000,25.600 380.180,25.600 380.400 C 25.600 380.622,26.667 380.800,28.000 380.800 C 29.333 380.800,30.400 380.978,30.400 381.200 C 30.400 381.465,52.273 381.600,95.218 381.600 L 160.036 381.600 160.927 382.500 C 161.417 382.995,162.256 384.030,162.792 384.800 C 163.798 386.247,167.575 390.000,168.024 390.000 C 168.247 390.000,168.907 390.495,170.683 391.993 C 170.949 392.217,171.404 392.400,171.695 392.400 C 171.986 392.400,172.483 392.760,172.800 393.200 C 173.117 393.640,173.614 394.000,173.905 394.000 C 174.196 394.000,174.820 394.360,175.292 394.800 C 175.764 395.240,176.387 395.600,176.675 395.600 C 176.964 395.600,177.200 395.780,177.200 396.000 C 177.200 396.220,177.549 396.400,177.976 396.400 C 178.403 396.400,178.864 396.580,179.000 396.800 C 179.136 397.020,179.597 397.200,180.024 397.200 C 180.451 397.200,180.800 397.380,180.800 397.600 C 180.800 397.820,181.340 398.000,182.000 398.000 C 182.660 398.000,183.200 398.180,183.200 398.400 C 183.200 398.620,183.725 398.800,184.367 398.800 C 185.008 398.800,185.608 399.025,185.700 399.300 C 185.942 400.027,209.258 400.027,209.500 399.300 C 209.592 399.025,210.192 398.800,210.833 398.800 C 211.475 398.800,212.000 398.620,212.000 398.400 C 212.000 398.180,212.540 398.000,213.200 398.000 C 213.860 398.000,214.400 397.820,214.400 397.600 C 214.400 397.380,214.760 397.200,215.200 397.200 C 215.640 397.200,216.000 397.020,216.000 396.800 C 216.000 396.580,216.461 396.400,217.024 396.400 C 217.604 396.400,217.940 396.227,217.800 396.000 C 217.664 395.780,217.923 395.600,218.376 395.600 C 218.829 395.600,219.200 395.420,219.200 395.200 C 219.200 394.980,219.560 394.800,220.000 394.800 C 220.440 394.800,220.800 394.620,220.800 394.400 C 220.800 394.180,221.120 394.000,221.512 394.000 C 221.903 394.000,222.483 393.640,222.800 393.200 C 223.117 392.760,223.524 392.400,223.705 392.400 C 223.886 392.400,224.251 392.217,224.517 391.993 C 226.327 390.466,226.958 390.000,227.214 390.000 C 227.661 390.000,232.400 385.220,232.400 384.770 C 232.400 384.552,233.024 383.749,233.787 382.987 L 235.173 381.600 302.787 381.600 C 347.596 381.600,370.400 381.465,370.400 381.200 C 370.400 380.978,371.467 380.800,372.800 380.800 C 374.133 380.800,375.200 380.622,375.200 380.400 C 375.200 380.180,375.920 380.000,376.800 380.000 C 377.680 380.000,378.400 379.820,378.400 379.600 C 378.400 379.380,378.760 379.200,379.200 379.200 C 379.640 379.200,380.000 379.020,380.000 378.800 C 380.000 378.580,380.551 378.400,381.224 378.400 C 381.937 378.400,382.344 378.233,382.200 378.000 C 382.064 377.780,382.289 377.600,382.701 377.600 C 383.112 377.600,383.836 377.240,384.308 376.800 C 384.780 376.360,385.444 376.000,385.783 376.000 C 386.122 376.000,386.400 375.841,386.400 375.646 C 386.400 375.451,386.985 375.011,387.700 374.670 C 389.142 373.980,394.800 368.241,394.800 367.468 C 394.800 367.198,395.160 366.717,395.600 366.400 C 396.040 366.083,396.400 365.503,396.400 365.112 C 396.400 364.720,396.580 364.400,396.800 364.400 C 397.020 364.400,397.200 364.040,397.200 363.600 C 397.200 363.160,397.380 362.800,397.600 362.800 C 397.820 362.800,398.000 362.440,398.000 362.000 C 398.000 361.560,398.180 361.200,398.400 361.200 C 398.620 361.200,398.800 360.855,398.800 360.433 C 398.800 360.012,399.025 359.592,399.300 359.500 C 400.036 359.255,400.036 154.745,399.300 154.500 C 399.025 154.408,398.800 153.988,398.800 153.567 C 398.800 153.145,398.620 152.800,398.400 152.800 C 398.180 152.800,398.000 152.440,398.000 152.000 C 398.000 151.560,397.820 151.200,397.600 151.200 C 397.380 151.200,397.200 150.840,397.200 150.400 C 397.200 149.960,397.020 149.600,396.800 149.600 C 396.580 149.600,396.400 149.280,396.400 148.888 C 396.400 148.497,396.040 147.917,395.600 147.600 C 395.160 147.283,394.800 146.809,394.800 146.546 C 394.800 145.809,388.552 139.600,387.810 139.600 C 387.449 139.600,387.264 139.420,387.400 139.200 C 387.536 138.980,387.367 138.800,387.024 138.800 C 386.681 138.800,386.400 138.620,386.400 138.400 C 386.400 138.180,386.130 138.000,385.800 138.000 C 385.470 138.000,385.200 137.820,385.200 137.600 C 385.200 137.380,384.930 137.200,384.600 137.200 C 384.270 137.200,384.000 137.020,384.000 136.800 C 384.000 136.580,383.640 136.400,383.200 136.400 C 382.760 136.400,382.400 136.220,382.400 136.000 C 382.400 135.780,382.040 135.600,381.600 135.600 C 381.160 135.600,380.800 135.420,380.800 135.200 C 380.800 134.980,380.260 134.800,379.600 134.800 C 378.940 134.800,378.400 134.620,378.400 134.400 C 378.400 134.180,377.860 134.000,377.200 134.000 C 376.540 134.000,376.000 133.820,376.000 133.600 C 376.000 133.380,375.100 133.200,374.000 133.200 C 372.900 133.200,372.000 133.020,372.000 132.800 C 372.000 132.544,368.400 132.400,362.000 132.400 L 352.000 132.400 352.000 122.824 C 352.000 116.871,351.849 113.154,351.600 113.000 C 351.380 112.864,351.200 112.139,351.200 111.389 C 351.200 109.078,347.128 103.600,345.411 103.600 C 345.075 103.600,344.800 103.420,344.800 103.200 C 344.800 102.980,344.451 102.800,344.024 102.800 C 343.597 102.800,343.136 102.620,343.000 102.400 C 342.864 102.180,342.324 102.000,341.800 102.000 C 341.276 102.000,340.736 101.820,340.600 101.600 C 340.464 101.380,339.823 101.200,339.176 101.200 C 338.529 101.200,338.000 101.020,338.000 100.800 C 338.000 100.580,337.561 100.400,337.024 100.400 C 336.487 100.400,335.936 100.220,335.800 100.000 C 335.664 99.780,335.023 99.600,334.376 99.600 C 333.729 99.600,333.200 99.420,333.200 99.200 C 333.200 98.980,332.737 98.800,332.171 98.800 C 331.005 98.800,329.479 97.574,330.304 97.299 C 330.577 97.208,330.800 96.788,330.800 96.367 C 330.800 95.945,330.980 95.600,331.200 95.600 C 331.420 95.600,331.600 95.240,331.600 94.800 C 331.600 94.360,331.780 94.000,332.000 94.000 C 332.220 94.000,332.400 93.722,332.400 93.383 C 332.400 93.044,332.760 92.380,333.200 91.908 C 333.640 91.436,334.000 90.813,334.000 90.525 C 334.000 90.236,334.146 90.000,334.325 90.000 C 334.504 90.000,334.898 89.370,335.200 88.600 C 335.502 87.830,335.896 87.200,336.075 87.200 C 336.254 87.200,336.400 86.840,336.400 86.400 C 336.400 85.960,336.545 85.600,336.721 85.600 C 336.898 85.600,337.483 84.703,338.021 83.606 C 338.560 82.510,339.135 81.610,339.300 81.606 C 339.465 81.603,339.600 81.240,339.600 80.800 C 339.600 80.360,339.780 80.000,340.000 80.000 C 340.220 80.000,340.400 79.717,340.400 79.371 C 340.400 79.026,340.670 78.473,341.000 78.143 C 341.330 77.813,341.600 77.196,341.600 76.771 C 341.600 76.347,341.780 76.000,342.000 76.000 C 342.220 76.000,342.400 75.640,342.400 75.200 C 342.400 74.760,342.580 74.400,342.800 74.400 C 343.020 74.400,343.200 74.145,343.200 73.833 C 343.200 73.522,343.335 73.207,343.500 73.133 C 343.876 72.966,345.175 70.836,345.471 69.900 C 345.593 69.515,345.852 69.200,346.047 69.200 C 346.241 69.200,346.400 68.840,346.400 68.400 C 346.400 67.960,346.580 67.600,346.800 67.600 C 347.020 67.600,347.200 67.240,347.200 66.800 C 347.200 66.360,347.380 66.000,347.600 66.000 C 347.820 66.000,348.000 65.764,348.000 65.475 C 348.000 65.187,348.360 64.564,348.800 64.092 C 349.240 63.620,349.600 62.956,349.600 62.617 C 349.600 62.278,349.780 62.000,350.000 62.000 C 350.220 62.000,350.400 61.640,350.400 61.200 C 350.400 60.760,350.580 60.400,350.800 60.400 C 351.020 60.400,351.200 60.122,351.200 59.783 C 351.200 59.444,351.560 58.780,352.000 58.308 C 352.440 57.836,352.800 57.213,352.800 56.925 C 352.800 56.636,352.946 56.400,353.125 56.400 C 353.304 56.400,353.698 55.770,354.000 55.000 C 354.302 54.230,354.696 53.600,354.875 53.600 C 355.054 53.600,355.200 53.240,355.200 52.800 C 355.200 52.360,355.380 52.000,355.600 52.000 C 355.820 52.000,356.000 51.640,356.000 51.200 C 356.000 50.760,356.180 50.400,356.400 50.400 C 356.620 50.400,356.800 50.070,356.800 49.667 C 356.800 49.263,356.935 48.798,357.100 48.634 C 357.560 48.173,358.461 44.445,358.679 42.100 C 358.786 40.945,359.037 40.000,359.237 40.000 C 359.738 40.000,359.702 30.910,359.200 30.600 C 358.980 30.464,358.800 29.474,358.800 28.400 C 358.800 27.326,358.644 26.351,358.453 26.232 C 358.261 26.114,357.986 25.274,357.841 24.365 C 357.696 23.457,357.222 21.979,356.788 21.081 C 356.355 20.184,356.000 19.214,356.000 18.925 C 356.000 18.636,355.820 18.400,355.600 18.400 C 355.380 18.400,355.200 18.164,355.200 17.875 C 355.200 17.587,354.840 16.964,354.400 16.492 C 353.960 16.020,353.600 15.481,353.600 15.295 C 353.600 15.109,353.015 14.312,352.300 13.524 C 351.585 12.737,350.640 11.652,350.200 11.114 C 349.760 10.576,348.773 9.700,348.007 9.168 C 347.240 8.635,346.133 7.705,345.546 7.100 C 344.959 6.495,344.191 6.000,343.840 6.000 C 343.488 6.000,343.200 5.820,343.200 5.600 C 343.200 5.380,342.840 5.200,342.400 5.200 C 341.960 5.200,341.600 5.020,341.600 4.800 C 341.600 4.580,341.330 4.400,341.000 4.400 C 340.670 4.400,340.400 4.220,340.400 4.000 C 340.400 3.780,340.040 3.600,339.600 3.600 C 339.160 3.600,338.800 3.420,338.800 3.200 C 338.800 2.980,338.440 2.800,338.000 2.800 C 337.560 2.800,337.200 2.620,337.200 2.400 C 337.200 2.180,336.660 2.000,336.000 2.000 C 335.340 2.000,334.800 1.820,334.800 1.600 C 334.800 1.380,334.080 1.200,333.200 1.200 C 332.320 1.200,331.600 1.020,331.600 0.800 C 331.600 0.548,328.941 0.400,324.424 0.400 C 320.071 0.400,317.150 0.557,317.000 0.800 M327.172 23.661 C 336.631 26.718,339.073 35.986,332.756 44.862 C 332.340 45.446,332.000 46.121,332.000 46.362 C 332.000 47.135,327.612 45.281,325.391 43.568 C 325.166 43.395,323.996 42.729,322.791 42.088 C 321.586 41.448,319.880 40.508,319.000 40.000 C 318.120 39.492,316.680 38.700,315.800 38.238 C 314.920 37.777,314.110 37.296,314.000 37.168 C 313.890 37.040,313.215 36.681,312.500 36.370 C 310.994 35.715,310.899 35.120,311.989 33.194 C 312.423 32.427,313.095 31.170,313.481 30.400 C 315.972 25.439,322.591 22.181,327.172 23.661 M302.686 56.659 C 303.739 57.241,305.950 58.475,307.600 59.401 C 310.331 60.933,311.607 61.636,317.200 64.695 C 319.665 66.043,320.483 66.818,320.025 67.370 C 319.820 67.616,319.129 68.804,318.488 70.009 C 317.848 71.214,316.910 72.920,316.405 73.800 C 315.900 74.680,315.040 76.210,314.494 77.200 C 313.948 78.190,313.185 79.540,312.799 80.200 C 312.414 80.860,311.556 82.390,310.894 83.600 C 309.720 85.746,305.192 93.899,303.064 97.700 C 300.514 102.254,299.816 103.515,298.801 105.400 C 298.208 106.500,297.308 108.120,296.800 109.000 C 296.292 109.880,295.514 111.270,295.070 112.089 L 294.263 113.579 291.231 111.941 C 289.564 111.041,287.030 109.632,285.600 108.811 C 284.170 107.989,282.010 106.777,280.800 106.117 C 276.100 103.552,274.587 102.689,274.249 102.380 C 274.054 102.201,274.520 100.934,275.297 99.529 C 277.387 95.748,278.909 93.003,281.688 88.000 C 282.238 87.010,283.188 85.300,283.798 84.200 C 284.409 83.100,285.514 81.155,286.254 79.879 C 286.994 78.602,287.600 77.501,287.600 77.433 C 287.600 77.364,288.950 74.931,290.600 72.026 C 292.250 69.121,293.600 66.677,293.600 66.594 C 293.600 66.511,294.206 65.398,294.946 64.121 C 296.699 61.097,298.387 58.077,299.094 56.700 C 299.795 55.334,300.280 55.328,302.686 56.659 M132.600 108.357 C 134.360 108.585,136.970 108.954,138.400 109.176 C 139.830 109.398,141.810 109.685,142.800 109.813 C 143.790 109.941,144.960 110.204,145.400 110.398 C 145.840 110.592,146.830 110.842,147.600 110.953 C 148.370 111.064,149.900 111.357,151.000 111.604 C 152.100 111.850,153.676 112.149,154.503 112.268 C 155.329 112.387,156.105 112.645,156.226 112.842 C 156.348 113.039,156.829 113.200,157.295 113.200 C 157.762 113.200,158.696 113.368,159.372 113.573 C 160.047 113.778,161.410 114.156,162.400 114.412 C 163.390 114.668,164.513 115.040,164.895 115.239 C 165.277 115.438,165.862 115.600,166.196 115.600 C 166.860 115.600,171.442 117.023,180.400 120.010 L 186.200 121.945 186.301 219.145 L 186.402 316.346 183.501 315.409 C 179.377 314.077,172.880 312.075,171.000 311.557 C 170.120 311.315,168.987 310.955,168.481 310.758 C 167.976 310.561,167.131 310.400,166.605 310.400 C 166.078 310.400,165.548 310.240,165.427 310.044 C 165.306 309.849,164.621 309.592,163.904 309.473 C 163.187 309.355,161.790 309.050,160.800 308.796 C 159.810 308.543,158.324 308.240,157.497 308.125 C 156.671 308.010,155.895 307.755,155.774 307.558 C 155.652 307.361,154.879 307.200,154.056 307.200 C 153.233 307.200,152.389 307.038,152.180 306.841 C 151.971 306.644,151.080 306.381,150.200 306.257 C 149.320 306.133,147.520 305.838,146.200 305.602 C 124.154 301.659,106.504 301.660,88.600 305.604 C 87.500 305.846,86.013 306.144,85.296 306.266 C 84.579 306.388,83.894 306.649,83.773 306.844 C 83.652 307.040,83.111 307.200,82.571 307.200 C 82.031 307.200,81.277 307.362,80.895 307.561 C 80.513 307.760,79.390 308.151,78.400 308.431 C 77.410 308.710,76.429 309.088,76.220 309.270 C 76.011 309.451,75.514 309.600,75.115 309.600 C 74.716 309.600,74.077 309.765,73.695 309.967 C 71.706 311.019,68.944 312.076,68.032 312.134 L 67.000 312.200 66.899 216.363 C 66.804 125.475,66.835 120.494,67.499 119.910 C 68.944 118.641,78.883 113.925,82.600 112.745 C 83.480 112.465,84.371 112.093,84.580 111.918 C 84.789 111.743,85.453 111.600,86.056 111.600 C 86.659 111.600,87.264 111.420,87.400 111.200 C 87.536 110.980,88.166 110.800,88.800 110.800 C 89.434 110.800,90.052 110.639,90.174 110.442 C 90.295 110.245,91.071 109.985,91.897 109.863 C 92.724 109.741,94.390 109.443,95.600 109.201 C 96.810 108.959,99.106 108.619,100.702 108.445 C 102.297 108.272,103.731 108.002,103.889 107.845 C 104.303 107.430,128.823 107.867,132.600 108.357 M244.174 109.300 C 244.021 109.795,243.597 110.650,243.233 111.200 C 242.869 111.750,242.308 112.740,241.986 113.400 C 241.665 114.060,241.311 114.690,241.201 114.800 C 241.090 114.910,240.626 115.720,240.170 116.600 C 239.051 118.756,238.245 120.158,237.985 120.400 C 237.867 120.510,237.017 122.130,236.097 124.000 L 234.424 127.400 234.012 136.505 C 233.409 149.826,233.468 180.370,234.100 182.485 C 234.697 184.481,238.687 188.800,239.935 188.800 C 240.385 188.800,240.864 188.980,241.000 189.200 C 241.136 189.420,242.553 189.600,244.148 189.600 C 247.970 189.600,248.570 189.300,261.496 180.934 C 263.309 179.760,264.892 178.800,265.013 178.800 C 265.134 178.800,265.620 178.440,266.092 178.000 C 266.564 177.560,267.187 177.200,267.475 177.200 C 267.764 177.200,268.000 177.020,268.000 176.800 C 268.000 176.580,268.236 176.400,268.525 176.400 C 268.813 176.400,269.436 176.040,269.908 175.600 C 270.380 175.160,270.858 174.800,270.969 174.800 C 271.166 174.800,278.296 170.267,280.484 168.751 C 281.080 168.338,281.653 168.000,281.757 168.000 C 281.861 168.000,283.848 166.740,286.172 165.200 C 288.496 163.660,290.539 162.400,290.713 162.400 C 291.254 162.400,295.015 158.260,295.618 157.000 C 295.933 156.340,296.715 154.900,297.356 153.800 C 297.996 152.700,299.102 150.720,299.814 149.400 C 300.526 148.080,302.209 145.033,303.554 142.630 C 304.899 140.226,306.000 138.126,306.000 137.963 C 306.000 137.800,306.135 137.607,306.300 137.533 C 306.465 137.460,306.981 136.680,307.447 135.800 C 307.912 134.920,308.722 133.390,309.247 132.400 C 309.771 131.410,310.290 130.510,310.400 130.400 C 310.510 130.290,311.211 129.030,311.958 127.600 C 312.705 126.170,313.425 124.910,313.558 124.800 C 313.691 124.690,314.446 123.340,315.235 121.800 C 316.025 120.260,316.965 118.943,317.325 118.873 C 317.920 118.757,323.855 120.402,325.800 121.222 C 326.240 121.407,326.960 121.616,327.400 121.685 C 328.407 121.844,328.900 315.433,327.894 315.819 C 327.615 315.926,325.860 315.544,323.994 314.970 C 322.127 314.395,320.015 313.762,319.300 313.563 C 318.585 313.363,317.370 313.020,316.600 312.800 C 315.830 312.580,314.570 312.220,313.800 312.000 C 313.030 311.780,311.770 311.420,311.000 311.200 C 307.346 310.156,306.503 309.922,305.200 309.591 C 304.430 309.396,303.260 309.124,302.600 308.988 C 301.940 308.851,301.040 308.586,300.600 308.397 C 300.160 308.209,299.260 307.960,298.600 307.845 C 297.940 307.730,296.500 307.438,295.400 307.196 C 294.300 306.954,292.770 306.664,292.000 306.553 C 291.230 306.442,290.240 306.192,289.800 305.998 C 289.360 305.804,288.280 305.550,287.400 305.434 C 286.520 305.318,284.630 305.032,283.200 304.798 C 265.473 301.896,248.087 301.896,233.600 304.800 C 232.390 305.042,230.724 305.341,229.897 305.463 C 229.071 305.585,228.295 305.845,228.174 306.042 C 228.052 306.239,227.571 306.400,227.105 306.400 C 226.204 306.400,223.861 307.065,222.705 307.649 C 222.323 307.842,221.659 308.000,221.229 308.000 C 220.799 308.000,220.336 308.180,220.200 308.400 C 220.064 308.620,219.524 308.800,219.000 308.800 C 218.476 308.800,217.936 308.980,217.800 309.200 C 217.664 309.420,217.237 309.600,216.852 309.600 C 216.466 309.600,215.405 309.960,214.494 310.400 C 213.584 310.840,212.682 311.200,212.491 311.200 C 212.299 311.200,211.436 311.547,210.571 311.970 C 209.707 312.394,208.865 312.610,208.699 312.450 C 208.534 312.289,208.444 268.968,208.499 216.179 L 208.600 120.200 214.200 117.450 C 217.280 115.938,220.250 114.522,220.800 114.304 C 221.350 114.085,222.113 113.748,222.495 113.553 C 222.877 113.359,223.541 113.200,223.971 113.200 C 224.401 113.200,224.864 113.020,225.000 112.800 C 225.136 112.580,225.676 112.400,226.200 112.400 C 226.724 112.400,227.264 112.220,227.400 112.000 C 227.536 111.780,228.076 111.600,228.600 111.600 C 229.124 111.600,229.652 111.440,229.773 111.244 C 229.980 110.908,230.993 110.672,234.503 110.142 C 235.329 110.018,236.105 109.755,236.226 109.558 C 236.348 109.361,237.202 109.197,238.124 109.194 C 239.046 109.191,240.070 109.013,240.400 108.800 C 241.726 107.943,244.482 108.309,244.174 109.300 M264.800 122.800 C 264.910 122.910,265.720 123.377,266.600 123.838 C 267.480 124.300,268.920 125.092,269.800 125.600 C 270.680 126.108,272.300 127.008,273.400 127.600 C 274.500 128.191,276.210 129.150,277.200 129.729 C 278.190 130.308,279.954 131.279,281.120 131.885 C 283.678 133.215,283.681 133.178,280.601 138.615 C 279.391 140.753,278.400 142.587,278.400 142.690 C 278.400 143.797,276.104 145.599,269.434 149.726 C 269.013 149.987,266.809 151.415,264.535 152.900 C 262.262 154.385,260.222 155.600,260.001 155.600 C 259.781 155.600,259.600 155.747,259.600 155.926 C 259.600 156.367,256.520 157.986,256.230 157.697 C 256.104 157.570,256.000 152.108,256.000 145.558 L 256.000 133.649 257.261 131.325 C 257.955 130.046,258.816 128.550,259.175 128.000 C 259.535 127.450,260.088 126.460,260.405 125.800 C 262.355 121.743,263.180 121.180,264.800 122.800 M103.094 133.839 C 102.941 133.992,101.327 134.283,99.508 134.486 C 93.117 135.198,92.597 135.281,92.220 135.639 C 92.011 135.837,91.244 136.000,90.515 136.000 C 89.786 136.000,88.877 136.159,88.495 136.353 C 88.113 136.548,87.260 136.953,86.600 137.253 C 80.369 140.092,78.657 149.122,83.306 154.621 C 85.086 156.727,90.098 158.706,92.461 158.236 C 93.197 158.090,94.700 157.788,95.800 157.567 C 108.029 155.102,124.215 155.114,138.500 157.600 C 143.006 158.384,145.027 158.763,147.000 159.197 C 148.100 159.438,149.540 159.730,150.200 159.845 C 150.860 159.960,151.760 160.210,152.200 160.400 C 152.640 160.590,153.630 160.856,154.400 160.992 C 155.170 161.127,156.387 161.339,157.104 161.463 C 157.821 161.587,158.506 161.849,158.627 162.044 C 158.942 162.553,163.353 162.484,164.681 161.950 C 167.376 160.867,167.892 160.539,169.506 158.891 C 175.142 153.131,171.942 140.800,164.811 140.800 C 164.391 140.800,163.948 140.640,163.827 140.444 C 163.706 140.249,163.021 139.992,162.304 139.873 C 161.587 139.755,160.190 139.454,159.200 139.204 C 158.210 138.955,156.860 138.660,156.200 138.548 C 155.540 138.437,154.640 138.189,154.200 137.998 C 153.760 137.806,152.770 137.556,152.000 137.441 C 151.230 137.327,149.610 137.039,148.400 136.801 C 142.921 135.724,138.952 135.077,133.400 134.356 C 129.683 133.873,103.507 133.427,103.094 133.839 M44.400 244.585 C 44.400 345.709,44.020 335.639,47.971 339.335 C 52.578 343.643,57.474 343.805,63.972 339.864 C 70.283 336.036,75.404 333.499,81.400 331.230 C 82.720 330.731,84.160 330.178,84.600 330.002 C 94.963 325.850,118.511 323.845,131.800 325.981 C 141.903 327.606,144.736 328.091,145.800 328.381 C 146.460 328.561,148.080 328.937,149.400 329.217 C 150.720 329.497,153.510 330.170,155.600 330.711 C 157.690 331.253,159.987 331.785,160.704 331.892 C 161.421 332.000,162.106 332.249,162.227 332.444 C 162.348 332.640,162.878 332.800,163.405 332.800 C 163.931 332.800,164.776 332.961,165.281 333.158 C 165.787 333.355,167.010 333.736,168.000 334.004 C 168.990 334.272,170.160 334.630,170.600 334.800 C 171.040 334.970,172.210 335.330,173.200 335.600 C 174.190 335.870,175.360 336.229,175.800 336.398 C 176.240 336.567,177.950 337.105,179.600 337.593 C 181.250 338.082,182.913 338.644,183.295 338.841 C 183.677 339.038,184.264 339.200,184.600 339.200 C 184.936 339.200,185.523 339.365,185.905 339.566 C 191.746 342.639,200.138 343.435,203.636 341.245 C 204.826 340.500,206.430 339.534,207.200 339.099 C 207.970 338.663,209.050 338.003,209.600 337.632 C 210.150 337.260,212.580 336.000,215.000 334.831 C 219.167 332.818,220.175 332.365,222.300 331.546 C 222.795 331.356,223.605 331.032,224.100 330.826 C 228.217 329.117,236.843 326.986,244.000 325.911 C 248.606 325.219,267.717 325.230,273.000 325.929 C 278.035 326.594,285.549 327.890,289.400 328.759 C 290.280 328.957,291.900 329.313,293.000 329.550 C 294.100 329.786,296.440 330.363,298.200 330.832 C 299.960 331.301,301.987 331.775,302.704 331.886 C 303.421 331.998,304.106 332.249,304.227 332.444 C 304.348 332.640,304.829 332.800,305.295 332.800 C 306.075 332.800,307.808 333.266,309.800 334.010 C 310.240 334.174,311.410 334.535,312.400 334.812 C 314.946 335.524,319.254 336.849,320.200 337.211 C 320.640 337.380,322.890 338.098,325.200 338.807 C 327.510 339.515,331.248 340.704,333.506 341.448 C 341.749 344.163,346.782 342.613,349.905 336.400 L 350.809 334.600 350.905 245.400 L 351.000 156.200 360.600 156.210 C 372.601 156.223,374.584 156.955,377.015 162.271 L 378.007 164.438 377.903 256.919 L 377.800 349.400 376.958 351.220 C 375.788 353.749,374.015 355.647,371.737 356.811 L 369.800 357.800 297.200 358.000 C 228.484 358.189,224.518 358.238,223.073 358.917 C 221.290 359.753,218.459 362.491,217.604 364.205 C 209.270 380.910,187.185 381.707,178.290 365.624 C 176.479 362.348,174.216 359.910,172.025 358.874 C 170.711 358.252,165.169 358.184,100.800 358.000 L 31.000 357.800 28.719 356.680 C 26.280 355.482,24.195 353.063,23.284 350.372 C 22.598 348.348,22.578 165.570,23.263 163.560 C 25.236 157.773,28.595 156.139,38.700 156.050 L 44.400 156.000 44.400 244.585 M101.800 195.272 C 88.821 197.195,86.640 197.793,84.109 200.127 C 78.155 205.615,80.122 215.794,87.679 218.596 C 89.932 219.431,92.640 219.298,100.000 217.990 C 114.069 215.491,136.657 217.287,156.100 222.452 C 157.035 222.700,159.260 222.982,161.045 223.079 C 174.633 223.817,177.217 204.952,164.000 201.511 C 162.677 201.167,161.619 200.901,158.100 200.028 C 153.416 198.866,141.562 196.664,136.600 196.035 C 134.840 195.812,131.960 195.441,130.200 195.212 C 126.405 194.717,105.241 194.762,101.800 195.272 M265.400 195.276 C 258.732 196.011,252.489 196.997,245.000 198.498 C 238.827 199.735,236.823 200.171,234.400 200.800 C 233.630 201.000,232.460 201.276,231.800 201.413 C 222.333 203.376,219.174 214.532,226.307 220.811 C 227.300 221.685,228.411 222.400,228.776 222.400 C 229.141 222.400,229.633 222.593,229.870 222.830 C 230.397 223.357,236.665 223.102,239.100 222.453 C 259.194 217.100,281.860 215.436,296.400 218.245 C 304.268 219.765,307.973 219.290,311.241 216.339 C 313.975 213.871,315.515 208.612,314.349 205.719 C 311.443 198.501,308.974 197.363,291.579 195.221 C 287.576 194.728,270.039 194.765,265.400 195.276 M104.678 255.856 C 104.513 256.020,102.899 256.293,101.090 256.463 C 97.460 256.803,94.053 257.320,91.000 257.994 C 89.900 258.237,88.531 258.534,87.958 258.655 C 82.485 259.805,78.993 268.007,81.533 273.744 C 82.418 275.741,85.270 278.800,86.249 278.800 C 86.552 278.800,86.800 278.980,86.800 279.200 C 86.800 279.420,87.214 279.600,87.720 279.600 C 88.226 279.600,88.838 279.798,89.079 280.039 C 89.561 280.521,92.399 280.344,96.000 279.608 C 109.814 276.787,129.443 277.397,146.500 281.179 C 151.120 282.203,151.900 282.381,153.600 282.796 C 154.590 283.039,156.120 283.422,157.000 283.648 C 165.858 285.925,172.630 281.355,172.566 273.144 C 172.514 266.452,168.863 263.324,158.600 261.178 C 157.720 260.994,156.190 260.643,155.200 260.397 C 153.420 259.955,151.884 259.632,147.600 258.797 C 141.656 257.639,138.616 257.165,132.000 256.362 C 127.864 255.860,105.095 255.438,104.678 255.856 M269.522 255.811 C 269.379 255.954,267.313 256.238,264.931 256.441 C 260.147 256.849,256.197 257.346,252.700 257.982 C 251.435 258.212,249.455 258.570,248.300 258.779 C 247.145 258.987,245.345 259.347,244.300 259.579 C 238.747 260.810,239.223 260.698,234.100 261.973 C 230.446 262.883,229.705 263.113,228.351 263.755 C 220.446 267.506,220.693 279.466,228.759 283.482 C 230.502 284.350,235.939 284.450,239.000 283.670 C 240.100 283.390,241.630 282.998,242.400 282.799 C 248.609 281.192,256.468 279.711,264.000 278.727 C 268.320 278.162,289.695 278.163,293.400 278.728 C 294.940 278.962,297.190 279.359,298.400 279.608 C 304.982 280.965,308.067 280.349,311.408 277.008 C 312.935 275.481,313.299 274.895,314.350 272.281 C 315.554 269.288,313.675 262.966,311.027 261.099 C 309.521 260.036,307.070 258.800,306.469 258.800 C 306.079 258.800,305.589 258.638,305.380 258.441 C 305.171 258.244,304.280 257.979,303.400 257.853 C 302.520 257.726,300.630 257.435,299.200 257.206 C 297.770 256.976,294.980 256.599,293.000 256.368 C 288.790 255.878,269.904 255.430,269.522 255.811 " stroke="none" fill="#144c84" fill-rule="evenodd"></path><path id="path4" d="M321.800 23.702 C 317.961 25.036,314.962 27.450,313.481 30.400 C 313.095 31.170,312.423 32.427,311.989 33.194 C 310.899 35.120,310.994 35.715,312.500 36.370 C 313.215 36.681,313.890 37.040,314.000 37.168 C 314.110 37.296,314.920 37.777,315.800 38.238 C 316.680 38.700,318.120 39.492,319.000 40.000 C 319.880 40.508,321.586 41.448,322.791 42.088 C 323.996 42.729,325.166 43.395,325.391 43.568 C 327.612 45.281,332.000 47.135,332.000 46.362 C 332.000 46.121,332.340 45.446,332.756 44.862 C 337.386 38.356,337.385 31.572,332.754 26.800 C 329.932 23.892,325.147 22.539,321.800 23.702 M330.114 25.363 C 335.644 28.070,337.221 35.335,333.741 42.071 C 331.572 46.272,331.458 46.347,329.154 45.078 C 326.024 43.354,323.831 42.131,322.300 41.257 C 321.475 40.785,320.170 40.040,319.400 39.600 C 317.921 38.755,315.980 37.664,313.500 36.286 C 312.011 35.459,311.536 34.242,312.365 33.380 C 312.566 33.171,313.251 32.050,313.887 30.890 C 317.400 24.478,323.831 22.287,330.114 25.363 M103.889 107.845 C 103.731 108.002,102.297 108.272,100.702 108.445 C 99.106 108.619,96.810 108.959,95.600 109.201 C 94.390 109.443,92.724 109.741,91.897 109.863 C 91.071 109.985,90.295 110.245,90.174 110.442 C 90.052 110.639,89.434 110.800,88.800 110.800 C 88.166 110.800,87.536 110.980,87.400 111.200 C 87.264 111.420,86.659 111.600,86.056 111.600 C 85.453 111.600,84.789 111.743,84.580 111.918 C 84.371 112.093,83.480 112.465,82.600 112.745 C 78.883 113.925,68.944 118.641,67.499 119.910 C 66.835 120.494,66.804 125.475,66.899 216.363 L 67.000 312.200 68.032 312.134 C 68.944 312.076,71.706 311.019,73.695 309.967 C 74.077 309.765,74.716 309.600,75.115 309.600 C 75.514 309.600,76.011 309.451,76.220 309.270 C 76.429 309.088,77.410 308.710,78.400 308.431 C 79.390 308.151,80.513 307.760,80.895 307.561 C 81.277 307.362,82.031 307.200,82.571 307.200 C 83.111 307.200,83.652 307.040,83.773 306.844 C 83.894 306.649,84.579 306.388,85.296 306.266 C 86.013 306.144,87.500 305.846,88.600 305.604 C 106.504 301.660,124.154 301.659,146.200 305.602 C 147.520 305.838,149.320 306.133,150.200 306.257 C 151.080 306.381,151.971 306.644,152.180 306.841 C 152.389 307.038,153.233 307.200,154.056 307.200 C 154.879 307.200,155.652 307.361,155.774 307.558 C 155.895 307.755,156.671 308.010,157.497 308.125 C 158.324 308.240,159.810 308.543,160.800 308.796 C 161.790 309.050,163.187 309.355,163.904 309.473 C 164.621 309.592,165.306 309.849,165.427 310.044 C 165.548 310.240,166.078 310.400,166.605 310.400 C 167.131 310.400,167.976 310.561,168.481 310.758 C 168.987 310.955,170.120 311.315,171.000 311.557 C 172.880 312.075,179.377 314.077,183.501 315.409 L 186.402 316.346 186.301 219.145 L 186.200 121.945 180.400 120.010 C 171.442 117.023,166.860 115.600,166.196 115.600 C 165.862 115.600,165.277 115.438,164.895 115.239 C 164.513 115.040,163.390 114.668,162.400 114.412 C 161.410 114.156,160.047 113.778,159.372 113.573 C 158.696 113.368,157.762 113.200,157.295 113.200 C 156.829 113.200,156.348 113.039,156.226 112.842 C 156.105 112.645,155.329 112.387,154.503 112.268 C 153.676 112.149,152.100 111.850,151.000 111.604 C 149.900 111.357,148.370 111.064,147.600 110.953 C 146.830 110.842,145.840 110.592,145.400 110.398 C 144.960 110.204,143.790 109.941,142.800 109.813 C 141.810 109.685,139.830 109.398,138.400 109.176 C 136.970 108.954,134.360 108.585,132.600 108.357 C 128.823 107.867,104.303 107.430,103.889 107.845 M131.400 108.736 C 136.682 109.359,137.796 109.534,144.700 110.832 C 146.847 111.236,147.680 111.412,152.400 112.453 C 160.423 114.224,181.048 120.335,183.295 121.607 C 183.677 121.823,184.332 122.000,184.752 122.000 C 185.171 122.000,185.624 122.285,185.757 122.633 C 186.112 123.557,186.055 315.121,185.700 315.327 C 185.439 315.478,179.255 313.685,177.000 312.804 C 176.560 312.632,175.390 312.270,174.400 311.999 C 173.410 311.729,172.150 311.369,171.600 311.200 C 171.050 311.031,169.790 310.673,168.800 310.405 C 167.810 310.136,166.587 309.755,166.081 309.558 C 165.576 309.361,164.731 309.200,164.205 309.200 C 163.678 309.200,163.136 309.020,163.000 308.800 C 162.864 308.580,162.144 308.400,161.400 308.400 C 160.656 308.400,159.948 308.239,159.826 308.042 C 159.705 307.845,158.929 307.587,158.103 307.468 C 157.276 307.349,155.745 307.060,154.700 306.826 C 129.638 301.208,109.161 300.589,89.600 304.858 C 87.828 305.244,86.154 305.658,83.000 306.487 C 80.466 307.153,76.664 308.402,75.905 308.819 C 75.523 309.029,74.936 309.200,74.600 309.200 C 74.264 309.200,73.677 309.359,73.295 309.553 C 72.913 309.748,72.150 310.088,71.600 310.310 C 71.050 310.532,69.977 310.990,69.216 311.328 C 68.455 311.667,67.690 311.856,67.516 311.748 C 66.766 311.285,67.148 120.970,67.900 120.299 C 69.009 119.310,75.048 116.275,79.200 114.619 C 83.671 112.836,84.103 112.691,89.400 111.192 C 92.942 110.190,97.707 109.291,101.936 108.828 C 103.770 108.626,105.388 108.346,105.530 108.204 C 105.896 107.837,127.558 108.282,131.400 108.736 M261.896 123.100 C 261.393 123.925,260.722 125.140,260.405 125.800 C 260.088 126.460,259.535 127.450,259.175 128.000 C 258.816 128.550,257.955 130.046,257.261 131.325 L 256.000 133.649 256.000 145.558 C 256.000 152.108,256.104 157.570,256.230 157.697 C 256.520 157.986,259.600 156.367,259.600 155.926 C 259.600 155.747,259.781 155.600,260.001 155.600 C 260.222 155.600,262.262 154.385,264.535 152.900 C 266.809 151.415,269.013 149.987,269.434 149.726 C 276.104 145.599,278.400 143.797,278.400 142.690 C 278.400 142.587,279.391 140.753,280.601 138.615 C 283.681 133.178,283.678 133.215,281.120 131.885 C 279.954 131.279,278.190 130.308,277.200 129.729 C 276.210 129.150,274.500 128.191,273.400 127.600 C 272.300 127.008,270.680 126.108,269.800 125.600 C 268.920 125.092,267.480 124.300,266.600 123.838 C 265.720 123.377,264.910 122.910,264.800 122.800 C 263.544 121.544,262.797 121.621,261.896 123.100 M264.600 123.219 C 265.106 123.593,267.714 125.069,269.800 126.162 C 270.680 126.623,271.490 127.090,271.600 127.200 C 271.710 127.310,272.340 127.691,273.000 128.048 C 284.016 133.993,283.283 132.915,280.077 138.468 C 279.019 140.300,277.906 142.361,277.603 143.046 C 277.228 143.894,276.058 144.917,273.939 146.246 C 272.227 147.321,267.837 150.135,264.185 152.500 C 260.533 154.865,257.392 156.800,257.206 156.800 C 257.019 156.800,256.761 157.025,256.633 157.300 C 256.504 157.575,256.468 152.370,256.553 145.734 C 256.676 136.106,256.827 133.439,257.298 132.534 C 258.154 130.887,260.151 127.220,261.073 125.600 C 261.511 124.830,262.081 123.802,262.341 123.315 C 262.796 122.460,263.530 122.429,264.600 123.219 M107.600 133.028 C 103.781 133.343,97.720 134.059,96.000 134.398 C 95.010 134.593,92.940 134.975,91.400 135.247 C 79.168 137.410,75.572 152.717,86.200 157.380 C 89.888 158.997,91.170 159.076,96.400 158.008 C 108.806 155.474,126.073 155.764,142.200 158.777 C 147.086 159.690,149.327 160.204,155.600 161.850 C 158.853 162.704,163.818 163.010,165.063 162.434 C 165.578 162.195,166.482 161.775,167.072 161.500 C 171.334 159.512,174.211 153.541,173.038 149.121 C 171.313 142.626,168.755 140.778,158.200 138.400 C 157.100 138.152,155.570 137.789,154.800 137.594 C 154.030 137.398,152.950 137.162,152.400 137.068 C 151.850 136.975,149.960 136.608,148.200 136.252 C 142.691 135.137,141.105 134.864,137.400 134.393 C 135.420 134.142,132.540 133.761,131.000 133.548 C 128.116 133.148,110.802 132.763,107.600 133.028 M133.400 134.356 C 138.952 135.077,142.921 135.724,148.400 136.801 C 149.610 137.039,151.230 137.327,152.000 137.441 C 152.770 137.556,153.760 137.806,154.200 137.998 C 154.640 138.189,155.540 138.437,156.200 138.548 C 156.860 138.660,158.210 138.955,159.200 139.204 C 160.190 139.454,161.587 139.755,162.304 139.873 C 163.021 139.992,163.706 140.249,163.827 140.444 C 163.948 140.640,164.391 140.800,164.811 140.800 C 171.942 140.800,175.142 153.131,169.506 158.891 C 167.892 160.539,167.376 160.867,164.681 161.950 C 163.353 162.484,158.942 162.553,158.627 162.044 C 158.506 161.849,157.821 161.587,157.104 161.463 C 156.387 161.339,155.170 161.127,154.400 160.992 C 153.630 160.856,152.640 160.590,152.200 160.400 C 151.760 160.210,150.860 159.960,150.200 159.845 C 149.540 159.730,148.100 159.438,147.000 159.197 C 145.027 158.763,143.006 158.384,138.500 157.600 C 124.215 155.114,108.029 155.102,95.800 157.567 C 94.700 157.788,93.197 158.090,92.461 158.236 C 90.098 158.706,85.086 156.727,83.306 154.621 C 78.657 149.122,80.369 140.092,86.600 137.253 C 87.260 136.953,88.113 136.548,88.495 136.353 C 88.877 136.159,89.786 136.000,90.515 136.000 C 91.244 136.000,92.011 135.837,92.220 135.639 C 92.597 135.281,93.117 135.198,99.508 134.486 C 101.327 134.283,102.941 133.992,103.094 133.839 C 103.507 133.427,129.683 133.873,133.400 134.356 M106.400 194.408 C 102.137 194.704,97.485 195.253,94.600 195.800 C 90.041 196.663,88.765 196.976,86.913 197.684 C 78.054 201.072,77.910 214.673,86.691 218.801 C 88.734 219.761,93.420 219.766,98.000 218.812 C 99.210 218.561,102.360 218.116,105.000 217.826 C 109.145 217.369,109.445 217.291,107.200 217.256 C 105.770 217.233,102.440 217.589,99.800 218.047 C 92.572 219.300,89.904 219.421,87.679 218.596 C 80.122 215.794,78.155 205.615,84.109 200.127 C 86.681 197.755,88.775 197.191,102.307 195.223 C 106.060 194.677,126.037 194.669,130.200 195.212 C 131.960 195.441,134.840 195.812,136.600 196.035 C 141.562 196.664,153.416 198.866,158.100 200.028 C 161.619 200.901,162.677 201.167,164.000 201.511 C 177.217 204.952,174.633 223.817,161.045 223.079 C 159.260 222.982,157.080 222.708,156.200 222.470 C 145.927 219.688,130.800 217.158,125.000 217.252 C 122.635 217.290,123.038 217.380,127.600 217.829 C 135.232 218.581,142.620 219.763,148.800 221.219 C 149.790 221.453,151.320 221.804,152.200 222.000 C 153.080 222.196,154.610 222.555,155.600 222.798 C 161.237 224.183,163.719 224.171,166.629 222.745 C 175.151 218.570,175.502 206.387,167.220 202.216 C 164.654 200.923,151.074 197.709,142.600 196.388 C 141.060 196.148,138.931 195.782,137.869 195.576 C 136.808 195.369,135.187 195.200,134.267 195.200 C 133.347 195.200,132.028 195.038,131.336 194.839 C 129.561 194.330,111.918 194.025,106.400 194.408 M113.916 217.097 C 115.299 217.175,117.459 217.174,118.716 217.095 C 119.972 217.016,118.840 216.952,116.200 216.953 C 113.560 216.953,112.532 217.018,113.916 217.097 M103.950 255.383 C 103.822 255.511,102.116 255.791,100.159 256.005 C 98.202 256.219,95.700 256.559,94.600 256.759 C 93.500 256.960,91.880 257.245,91.000 257.394 C 89.367 257.669,88.961 257.807,86.253 259.000 C 79.215 262.102,77.971 272.356,83.962 277.881 C 86.974 280.658,90.567 281.269,96.600 280.029 C 102.248 278.869,105.974 278.600,116.400 278.600 C 122.450 278.600,128.480 278.740,129.800 278.911 C 133.705 279.418,137.651 280.016,140.000 280.458 C 146.488 281.678,146.378 281.655,154.800 283.627 C 161.356 285.163,164.495 285.124,167.315 283.471 C 171.848 280.815,174.222 275.626,173.022 271.000 C 171.680 265.824,168.519 263.063,162.200 261.547 C 161.320 261.336,159.880 260.982,159.000 260.760 C 156.664 260.171,151.307 258.983,148.200 258.366 C 144.146 257.561,137.899 256.549,133.200 255.937 C 129.860 255.502,104.315 255.018,103.950 255.383 M132.000 256.362 C 138.616 257.165,141.656 257.639,147.600 258.797 C 151.884 259.632,153.420 259.955,155.200 260.397 C 156.190 260.643,157.720 260.994,158.600 261.178 C 168.863 263.324,172.514 266.452,172.566 273.144 C 172.630 281.355,165.858 285.925,157.000 283.648 C 156.120 283.422,154.590 283.039,153.600 282.796 C 151.900 282.381,151.120 282.203,146.500 281.179 C 144.544 280.745,141.986 280.272,137.800 279.570 C 124.057 277.266,107.392 277.281,96.000 279.608 C 92.399 280.344,89.561 280.521,89.079 280.039 C 88.838 279.798,88.226 279.600,87.720 279.600 C 87.214 279.600,86.800 279.420,86.800 279.200 C 86.800 278.980,86.552 278.800,86.249 278.800 C 85.270 278.800,82.418 275.741,81.533 273.744 C 78.993 268.007,82.485 259.805,87.958 258.655 C 88.531 258.534,89.900 258.237,91.000 257.994 C 94.053 257.320,97.460 256.803,101.090 256.463 C 102.899 256.293,104.513 256.020,104.678 255.856 C 105.095 255.438,127.864 255.860,132.000 256.362 " stroke="none" fill="#938c44" fill-rule="evenodd"></path></g></svg>