<svg id="svg" version="1.1" xmlns="http://www.w3.org/2000/svg" xmlns:xlink="http://www.w3.org/1999/xlink" width="400" height="400" viewBox="0, 0, 400,400"><g id="svgg"><path id="path0" d="M279.562 22.971 C 279.468 23.066,277.233 23.339,274.595 23.580 C 267.554 24.222,261.859 25.210,256.400 26.739 C 255.630 26.954,253.993 27.407,252.762 27.744 C 246.991 29.326,237.094 33.607,231.659 36.873 C 230.262 37.713,229.055 38.400,228.977 38.400 C 228.899 38.400,228.243 38.805,227.518 39.300 C 209.505 51.602,197.633 67.806,194.471 84.400 C 194.241 85.610,193.860 87.559,193.626 88.731 C 193.067 91.525,193.079 102.688,193.643 105.776 C 196.939 123.795,204.485 136.258,220.200 149.638 C 224.779 153.536,225.275 156.184,223.602 167.800 C 221.114 185.070,219.995 193.698,220.210 193.932 C 220.427 194.169,230.135 188.317,239.094 182.548 C 240.245 181.807,241.370 181.200,241.594 181.200 C 241.817 181.200,242.000 181.020,242.000 180.800 C 242.000 180.580,242.174 180.400,242.387 180.400 C 242.762 180.400,247.312 177.628,248.283 176.808 C 248.549 176.584,248.845 176.400,248.941 176.400 C 249.038 176.400,250.856 175.307,252.982 173.971 C 260.485 169.255,261.858 168.957,270.030 170.270 C 276.062 171.240,294.403 171.246,300.800 170.281 C 314.216 168.256,322.859 165.558,334.655 159.713 C 352.395 150.924,366.208 136.898,372.784 121.000 C 374.704 116.356,374.687 116.408,376.030 111.400 C 377.526 105.821,378.207 98.007,377.642 92.900 C 376.940 86.559,375.776 81.024,374.381 77.400 C 374.212 76.960,373.594 75.340,373.008 73.800 C 371.467 69.752,365.941 60.088,364.430 58.800 C 364.301 58.690,363.668 57.880,363.024 57.000 C 361.200 54.507,352.487 45.981,349.600 43.863 C 348.170 42.814,346.671 41.685,346.269 41.355 C 345.867 41.025,345.102 40.556,344.569 40.313 C 344.036 40.070,343.600 39.720,343.600 39.536 C 343.600 39.351,343.403 39.200,343.162 39.200 C 342.921 39.200,342.246 38.861,341.662 38.447 C 339.351 36.809,334.024 34.016,328.400 31.493 C 326.171 30.493,319.296 28.116,316.000 27.205 C 315.010 26.931,313.750 26.570,313.200 26.403 C 309.640 25.321,301.142 23.930,293.782 23.224 C 289.430 22.806,279.896 22.637,279.562 22.971 M293.531 37.173 C 320.474 44.957,326.159 81.008,302.922 96.724 C 301.559 97.646,300.327 98.400,300.184 98.400 C 298.131 98.400,296.411 101.642,295.968 106.347 C 295.334 113.094,292.651 116.957,287.691 118.266 C 282.618 119.604,278.425 118.142,275.257 113.931 C 273.422 111.492,272.423 102.415,273.573 98.628 C 273.778 97.953,274.179 96.590,274.463 95.600 C 276.015 90.201,279.433 85.218,284.201 81.400 C 286.114 79.869,287.023 79.275,289.172 78.149 C 294.783 75.211,296.105 68.183,292.101 62.578 C 288.054 56.911,279.736 58.261,275.073 65.341 C 266.231 78.767,247.784 69.123,254.873 54.780 C 261.977 40.406,278.567 32.850,293.531 37.173 M289.399 128.842 C 291.613 129.882,293.743 132.030,294.912 134.400 C 296.291 137.196,296.254 148.934,294.857 151.600 C 290.229 160.432,277.881 160.116,274.024 151.067 C 272.761 148.103,272.799 137.244,274.083 134.513 C 276.729 128.884,283.867 126.241,289.399 128.842 " stroke="none" fill="#fbc304" fill-rule="evenodd"></path><path id="path1" d="M90.000 158.473 C 81.087 160.340,75.516 163.289,69.373 169.392 C 64.055 174.675,61.874 178.636,59.128 188.000 C 58.413 190.439,58.412 201.958,59.127 204.400 C 59.417 205.390,59.837 206.830,60.060 207.600 C 60.862 210.365,63.001 214.770,65.014 217.800 C 66.939 220.699,73.384 227.200,74.334 227.200 C 74.536 227.200,74.923 227.466,75.193 227.792 C 75.463 228.117,76.160 228.631,76.742 228.934 C 79.590 230.418,81.483 231.345,82.300 231.657 C 82.795 231.846,83.605 232.166,84.100 232.370 C 84.595 232.573,85.540 232.852,86.200 232.990 C 86.860 233.127,88.300 233.448,89.400 233.703 C 91.971 234.299,100.750 234.290,103.600 233.690 C 104.810 233.435,106.387 233.109,107.105 232.967 C 107.823 232.824,108.508 232.549,108.629 232.354 C 108.749 232.159,109.172 232.000,109.568 232.000 C 110.448 232.000,115.575 229.397,118.247 227.593 C 120.500 226.073,125.821 220.855,127.213 218.800 C 127.735 218.030,128.260 217.310,128.381 217.200 C 129.377 216.292,132.387 209.761,133.175 206.800 C 133.439 205.810,133.848 204.374,134.086 203.609 C 134.758 201.442,134.601 190.624,133.859 188.000 C 133.517 186.790,133.123 185.350,132.985 184.800 C 132.626 183.374,132.275 182.537,130.801 179.600 C 128.677 175.367,128.412 174.908,127.792 174.393 C 127.466 174.123,127.200 173.720,127.200 173.498 C 127.200 172.697,120.540 166.279,117.930 164.565 C 113.195 161.455,109.758 160.074,102.694 158.441 C 100.434 157.918,92.554 157.938,90.000 158.473 " stroke="none" fill="#fafafa" fill-rule="evenodd"></path><path id="path2" d="M267.900 0.274 C 266.195 0.362,264.800 0.606,264.800 0.817 C 264.800 1.028,263.821 1.200,262.624 1.200 C 261.427 1.200,260.336 1.380,260.200 1.600 C 260.064 1.820,259.164 2.000,258.200 2.000 C 257.236 2.000,256.336 2.180,256.200 2.400 C 256.064 2.620,255.243 2.800,254.376 2.800 C 253.509 2.800,252.800 2.980,252.800 3.200 C 252.800 3.420,252.080 3.600,251.200 3.600 C 250.320 3.600,249.600 3.780,249.600 4.000 C 249.600 4.220,249.060 4.400,248.400 4.400 C 247.740 4.400,247.200 4.580,247.200 4.800 C 247.200 5.020,246.570 5.200,245.800 5.200 C 245.030 5.200,244.400 5.380,244.400 5.600 C 244.400 5.820,243.860 6.000,243.200 6.000 C 242.540 6.000,242.000 6.180,242.000 6.400 C 242.000 6.620,241.561 6.800,241.024 6.800 C 240.487 6.800,239.936 6.980,239.800 7.200 C 239.664 7.420,239.203 7.600,238.776 7.600 C 238.349 7.600,238.000 7.780,238.000 8.000 C 238.000 8.220,237.532 8.400,236.960 8.400 C 236.389 8.400,235.264 8.688,234.460 9.041 C 233.657 9.393,232.640 9.821,232.200 9.992 C 230.367 10.702,225.790 13.019,225.667 13.298 C 225.593 13.464,225.188 13.600,224.767 13.600 C 224.345 13.600,224.000 13.780,224.000 14.000 C 224.000 14.220,223.640 14.400,223.200 14.400 C 222.760 14.400,222.400 14.580,222.400 14.800 C 222.400 15.020,222.122 15.200,221.783 15.200 C 221.444 15.200,220.780 15.560,220.308 16.000 C 219.836 16.440,219.213 16.800,218.925 16.800 C 218.636 16.800,218.400 16.980,218.400 17.200 C 218.400 17.420,218.080 17.600,217.688 17.600 C 217.297 17.600,216.717 17.960,216.400 18.400 C 216.083 18.840,215.503 19.200,215.112 19.200 C 214.720 19.200,214.400 19.350,214.400 19.532 C 214.400 19.715,213.905 20.119,213.300 20.430 C 212.695 20.740,211.909 21.311,211.553 21.697 C 211.197 22.084,210.736 22.400,210.529 22.400 C 210.321 22.400,209.802 22.715,209.375 23.100 C 208.948 23.485,207.879 24.333,207.000 24.986 C 206.120 25.638,205.162 26.403,204.871 26.686 C 204.581 26.968,204.188 27.200,203.999 27.200 C 203.451 27.200,189.600 41.285,189.600 41.842 C 189.600 41.987,189.276 42.397,188.881 42.753 C 188.486 43.109,187.725 44.030,187.192 44.800 C 186.658 45.570,185.902 46.549,185.511 46.975 C 185.120 47.402,184.800 47.947,184.800 48.187 C 184.800 48.427,184.440 48.883,184.000 49.200 C 183.560 49.517,183.200 50.014,183.200 50.305 C 183.200 50.596,182.840 51.220,182.400 51.692 C 181.960 52.164,181.600 52.787,181.600 53.075 C 181.600 53.364,181.420 53.600,181.200 53.600 C 180.980 53.600,180.800 53.960,180.800 54.400 C 180.800 54.840,180.620 55.200,180.400 55.200 C 180.180 55.200,180.000 55.545,180.000 55.967 C 180.000 56.388,179.859 56.793,179.687 56.867 C 179.160 57.091,175.670 64.479,175.136 66.500 C 174.860 67.545,174.491 68.400,174.317 68.400 C 174.143 68.400,174.000 68.940,174.000 69.600 C 174.000 70.260,173.820 70.800,173.600 70.800 C 173.380 70.800,173.200 71.340,173.200 72.000 C 173.200 72.660,173.020 73.200,172.800 73.200 C 172.580 73.200,172.400 73.920,172.400 74.800 C 172.400 75.680,172.220 76.400,172.000 76.400 C 171.780 76.400,171.600 77.120,171.600 78.000 C 171.600 78.880,171.420 79.600,171.200 79.600 C 170.980 79.600,170.800 80.489,170.800 81.576 C 170.800 82.663,170.620 83.664,170.400 83.800 C 170.180 83.936,170.000 85.466,170.000 87.200 C 170.000 88.934,169.820 90.464,169.600 90.600 C 169.360 90.748,169.200 93.404,169.200 97.224 C 169.200 101.208,169.350 103.600,169.600 103.600 C 169.835 103.600,170.000 105.000,170.000 107.000 C 170.000 109.000,170.165 110.400,170.400 110.400 C 170.620 110.400,170.800 111.379,170.800 112.576 C 170.800 113.773,170.980 114.864,171.200 115.000 C 171.420 115.136,171.600 115.957,171.600 116.824 C 171.600 117.691,171.780 118.400,172.000 118.400 C 172.220 118.400,172.400 119.030,172.400 119.800 C 172.400 120.570,172.580 121.200,172.800 121.200 C 173.020 121.200,173.200 121.740,173.200 122.400 C 173.200 123.060,173.380 123.600,173.600 123.600 C 173.820 123.600,174.000 124.140,174.000 124.800 C 174.000 125.460,174.160 126.000,174.355 126.000 C 174.551 126.000,174.837 126.672,174.991 127.493 C 175.145 128.314,175.615 129.698,176.036 130.568 C 176.456 131.438,176.800 132.386,176.800 132.675 C 176.800 132.964,176.980 133.200,177.200 133.200 C 177.420 133.200,177.600 133.560,177.600 134.000 C 177.600 134.440,177.780 134.800,178.000 134.800 C 178.220 134.800,178.400 135.160,178.400 135.600 C 178.400 136.040,178.580 136.400,178.800 136.400 C 179.020 136.400,179.200 136.760,179.200 137.200 C 179.200 137.640,179.336 138.000,179.502 138.000 C 179.669 138.000,180.064 138.585,180.380 139.300 C 180.697 140.015,181.280 140.949,181.678 141.375 C 182.075 141.802,182.400 142.387,182.400 142.675 C 182.400 142.964,182.580 143.200,182.800 143.200 C 183.020 143.200,183.200 143.520,183.200 143.912 C 183.200 144.303,183.560 144.883,184.000 145.200 C 184.440 145.517,184.800 145.980,184.800 146.229 C 184.800 146.478,185.340 147.246,186.000 147.937 C 186.660 148.628,187.200 149.379,187.200 149.607 C 187.200 149.835,188.010 150.831,189.000 151.821 C 189.990 152.811,190.800 153.817,190.800 154.056 C 190.800 154.295,192.989 156.653,195.665 159.296 C 199.945 163.524,200.473 164.191,200.065 164.845 C 199.809 165.254,199.600 166.661,199.600 167.971 C 199.600 169.281,199.420 170.464,199.200 170.600 C 198.980 170.736,198.800 171.996,198.800 173.400 C 198.800 174.804,198.620 176.064,198.400 176.200 C 198.180 176.336,198.000 177.596,198.000 179.000 C 198.000 180.404,197.820 181.664,197.600 181.800 C 197.380 181.936,197.200 183.196,197.200 184.600 C 197.200 186.004,197.020 187.264,196.800 187.400 C 196.580 187.536,196.400 188.771,196.400 190.144 C 196.400 191.517,196.235 192.811,196.034 193.020 C 195.832 193.229,195.569 194.480,195.449 195.800 C 195.245 198.052,194.913 200.581,194.006 206.800 C 193.797 208.230,193.460 210.871,193.256 212.670 C 193.051 214.468,192.763 216.136,192.615 216.376 C 191.546 218.105,195.486 226.800,197.338 226.800 C 197.605 226.800,198.083 227.160,198.400 227.600 C 198.739 228.070,199.435 228.400,200.088 228.400 C 200.700 228.400,201.200 228.580,201.200 228.800 C 201.200 229.035,202.600 229.200,204.600 229.200 C 206.600 229.200,208.000 229.035,208.000 228.800 C 208.000 228.580,208.540 228.400,209.200 228.400 C 209.860 228.400,210.400 228.220,210.400 228.000 C 210.400 227.780,210.720 227.600,211.112 227.600 C 211.503 227.600,212.083 227.240,212.400 226.800 C 212.717 226.360,213.297 226.000,213.688 226.000 C 214.080 226.000,214.400 225.820,214.400 225.600 C 214.400 225.380,214.662 225.200,214.982 225.200 C 215.474 225.200,217.552 224.014,219.000 222.905 C 219.220 222.737,220.255 222.166,221.300 221.637 C 222.345 221.107,223.200 220.523,223.200 220.337 C 223.200 220.152,223.470 220.000,223.800 220.000 C 224.130 220.000,224.400 219.820,224.400 219.600 C 224.400 219.380,224.636 219.200,224.925 219.200 C 225.213 219.200,225.836 218.840,226.308 218.400 C 226.780 217.960,227.362 217.600,227.600 217.600 C 227.838 217.600,228.420 217.240,228.892 216.800 C 229.364 216.360,229.987 216.000,230.275 216.000 C 230.564 216.000,230.800 215.820,230.800 215.600 C 230.800 215.380,231.120 215.200,231.512 215.200 C 231.903 215.200,232.483 214.840,232.800 214.400 C 233.117 213.960,233.697 213.600,234.088 213.600 C 234.480 213.600,234.800 213.420,234.800 213.200 C 234.800 212.980,235.070 212.800,235.400 212.800 C 235.730 212.800,236.000 212.620,236.000 212.400 C 236.000 212.180,236.270 212.000,236.600 212.000 C 236.930 212.000,237.200 211.820,237.200 211.600 C 237.200 211.380,237.494 211.200,237.853 211.200 C 238.212 211.200,238.797 210.871,239.153 210.470 C 239.509 210.068,240.372 209.490,241.071 209.185 C 241.770 208.880,242.267 208.508,242.174 208.358 C 242.081 208.208,242.488 207.964,243.078 207.816 C 243.668 207.668,244.640 207.199,245.237 206.773 C 245.835 206.348,246.521 206.000,246.762 206.000 C 247.003 206.000,247.200 205.820,247.200 205.600 C 247.200 205.380,247.436 205.200,247.725 205.200 C 248.013 205.200,248.636 204.840,249.108 204.400 C 249.580 203.960,250.244 203.600,250.583 203.600 C 250.922 203.600,251.200 203.420,251.200 203.200 C 251.200 202.980,251.436 202.800,251.725 202.800 C 252.013 202.800,252.636 202.440,253.108 202.000 C 253.580 201.560,254.120 201.200,254.308 201.200 C 254.496 201.200,254.998 200.885,255.425 200.500 C 255.851 200.115,256.740 199.531,257.400 199.203 C 258.060 198.874,258.891 198.289,259.247 197.903 C 259.603 197.516,260.188 197.200,260.547 197.200 C 260.906 197.200,261.200 197.020,261.200 196.800 C 261.200 196.580,261.520 196.400,261.912 196.400 C 262.303 196.400,262.883 196.040,263.200 195.600 C 263.517 195.160,264.097 194.800,264.488 194.800 C 264.880 194.800,265.200 194.620,265.200 194.400 C 265.200 194.160,266.800 194.000,269.200 194.000 C 271.600 194.000,273.200 194.160,273.200 194.400 C 273.200 194.658,277.600 194.800,285.600 194.800 C 293.600 194.800,298.000 194.658,298.000 194.400 C 298.000 194.165,299.400 194.000,301.400 194.000 C 303.400 194.000,304.800 193.835,304.800 193.600 C 304.800 193.378,305.867 193.200,307.200 193.200 C 308.533 193.200,309.600 193.022,309.600 192.800 C 309.600 192.580,310.500 192.400,311.600 192.400 C 312.700 192.400,313.600 192.220,313.600 192.000 C 313.600 191.780,314.275 191.598,315.100 191.595 C 315.925 191.593,318.040 191.216,319.800 190.757 C 321.560 190.299,323.495 189.831,324.100 189.717 C 324.705 189.603,325.200 189.350,325.200 189.155 C 325.200 188.960,325.335 188.845,325.500 188.900 C 326.032 189.077,330.000 187.867,330.000 187.528 C 330.000 187.347,330.540 187.200,331.200 187.200 C 331.860 187.200,332.400 187.020,332.400 186.800 C 332.400 186.580,332.839 186.400,333.376 186.400 C 333.913 186.400,334.464 186.220,334.600 186.000 C 334.736 185.780,335.197 185.600,335.624 185.600 C 336.051 185.600,336.400 185.420,336.400 185.200 C 336.400 184.980,336.850 184.800,337.400 184.800 C 337.950 184.800,338.400 184.620,338.400 184.400 C 338.400 184.180,338.634 184.000,338.920 184.000 C 339.656 184.000,341.593 183.059,341.597 182.700 C 341.599 182.535,341.960 182.400,342.400 182.400 C 342.840 182.400,343.200 182.220,343.200 182.000 C 343.200 181.780,343.560 181.600,344.000 181.600 C 344.440 181.600,344.800 181.420,344.800 181.200 C 344.800 180.980,345.160 180.800,345.600 180.800 C 346.040 180.800,346.400 180.620,346.400 180.400 C 346.400 180.180,346.760 180.000,347.200 180.000 C 347.640 180.000,348.000 179.820,348.000 179.600 C 348.000 179.380,348.360 179.200,348.800 179.200 C 349.240 179.200,349.600 179.020,349.600 178.800 C 349.600 178.580,349.920 178.400,350.312 178.400 C 350.703 178.400,351.283 178.040,351.600 177.600 C 351.917 177.160,352.497 176.800,352.888 176.800 C 353.280 176.800,353.600 176.620,353.600 176.400 C 353.600 176.180,353.784 176.000,354.009 176.000 C 354.494 176.000,357.742 173.931,357.933 173.500 C 358.007 173.335,358.277 173.200,358.533 173.199 C 358.790 173.199,359.630 172.659,360.400 172.000 C 361.170 171.341,361.953 170.801,362.140 170.801 C 362.326 170.800,362.983 170.260,363.600 169.600 C 364.217 168.940,364.930 168.400,365.186 168.400 C 365.442 168.400,366.529 167.500,367.600 166.400 C 368.671 165.300,369.687 164.400,369.856 164.400 C 370.192 164.400,377.600 156.949,377.600 156.612 C 377.600 156.498,378.680 155.308,380.000 153.968 C 381.320 152.627,382.400 151.364,382.400 151.161 C 382.400 150.959,382.940 150.228,383.600 149.537 C 384.260 148.846,384.800 148.078,384.800 147.829 C 384.800 147.580,385.160 147.117,385.600 146.800 C 386.040 146.483,386.400 145.943,386.400 145.600 C 386.400 145.257,386.760 144.717,387.200 144.400 C 387.640 144.083,388.000 143.586,388.000 143.295 C 388.000 143.004,388.350 142.390,388.779 141.931 C 389.207 141.471,390.031 140.083,390.609 138.847 C 391.186 137.611,392.006 135.908,392.430 135.062 C 392.853 134.216,393.200 133.271,393.200 132.962 C 393.200 132.653,393.380 132.400,393.600 132.400 C 393.820 132.400,394.000 132.040,394.000 131.600 C 394.000 131.160,394.180 130.800,394.400 130.800 C 394.620 130.800,394.800 130.440,394.800 130.000 C 394.800 129.560,394.980 129.200,395.200 129.200 C 395.420 129.200,395.600 128.660,395.600 128.000 C 395.600 127.340,395.780 126.800,396.000 126.800 C 396.220 126.800,396.400 126.260,396.400 125.600 C 396.400 124.940,396.580 124.400,396.800 124.400 C 397.020 124.400,397.200 123.950,397.200 123.400 C 397.200 122.850,397.380 122.400,397.600 122.400 C 397.820 122.400,398.000 121.860,398.000 121.200 C 398.000 120.540,398.180 120.000,398.400 120.000 C 398.620 120.000,398.800 119.295,398.800 118.433 C 398.800 117.536,399.013 116.796,399.300 116.700 C 399.691 116.570,399.800 112.369,399.800 97.487 C 399.800 82.783,399.686 78.326,399.300 77.940 C 399.025 77.665,398.800 76.846,398.800 76.120 C 398.800 75.394,398.620 74.800,398.400 74.800 C 398.180 74.800,398.000 74.181,398.000 73.424 C 398.000 72.667,397.820 71.936,397.600 71.800 C 397.380 71.664,397.200 71.124,397.200 70.600 C 397.200 70.076,397.020 69.536,396.800 69.400 C 396.580 69.264,396.400 68.803,396.400 68.376 C 396.400 67.949,396.220 67.600,396.000 67.600 C 395.780 67.600,395.600 67.060,395.600 66.400 C 395.600 65.740,395.420 65.200,395.200 65.200 C 394.980 65.200,394.800 64.840,394.800 64.400 C 394.800 63.960,394.620 63.600,394.400 63.600 C 394.180 63.600,394.000 63.251,394.000 62.824 C 394.000 62.397,393.820 61.936,393.600 61.800 C 393.380 61.664,393.200 61.203,393.200 60.776 C 393.200 60.349,393.020 60.000,392.800 60.000 C 392.580 60.000,392.400 59.640,392.400 59.200 C 392.400 58.760,392.234 58.400,392.032 58.400 C 391.829 58.400,391.545 57.860,391.400 57.200 C 391.255 56.540,390.971 56.000,390.768 56.000 C 390.566 56.000,390.400 55.640,390.400 55.200 C 390.400 54.760,390.220 54.400,390.000 54.400 C 389.780 54.400,389.600 54.164,389.600 53.875 C 389.600 53.587,389.240 52.964,388.800 52.492 C 388.360 52.020,388.000 51.356,388.000 51.017 C 388.000 50.678,387.832 50.400,387.627 50.400 C 387.422 50.400,387.138 50.034,386.996 49.587 C 386.854 49.140,386.302 48.338,385.769 47.805 C 385.236 47.272,384.800 46.651,384.800 46.425 C 384.800 45.986,383.642 44.606,380.900 41.776 C 379.965 40.811,379.200 39.833,379.200 39.603 C 379.200 39.373,378.075 38.044,376.700 36.650 C 375.325 35.255,373.570 33.404,372.800 32.535 C 372.030 31.666,370.600 30.335,369.622 29.578 C 368.644 28.820,367.294 27.687,366.622 27.060 C 365.950 26.432,364.860 25.641,364.200 25.300 C 363.540 24.960,362.709 24.348,362.353 23.941 C 361.997 23.533,361.484 23.200,361.214 23.200 C 360.943 23.200,360.244 22.705,359.660 22.100 C 359.077 21.495,358.105 20.745,357.500 20.432 C 356.895 20.120,356.400 19.715,356.400 19.532 C 356.400 19.350,356.130 19.200,355.800 19.200 C 355.470 19.200,355.200 19.020,355.200 18.800 C 355.200 18.580,354.922 18.400,354.583 18.400 C 354.244 18.400,353.580 18.040,353.108 17.600 C 352.636 17.160,352.013 16.800,351.725 16.800 C 351.436 16.800,351.200 16.620,351.200 16.400 C 351.200 16.180,350.840 16.000,350.400 16.000 C 349.960 16.000,349.599 15.865,349.597 15.700 C 349.595 15.535,349.190 15.199,348.697 14.954 C 348.204 14.709,346.720 13.952,345.400 13.273 C 340.736 10.871,336.136 8.862,334.677 8.588 C 333.865 8.436,333.200 8.151,333.200 7.955 C 333.200 7.760,332.660 7.600,332.000 7.600 C 331.340 7.600,330.800 7.420,330.800 7.200 C 330.800 6.980,330.260 6.800,329.600 6.800 C 328.940 6.800,328.400 6.620,328.400 6.400 C 328.400 6.180,327.860 6.000,327.200 6.000 C 326.540 6.000,326.000 5.820,326.000 5.600 C 326.000 5.380,325.460 5.200,324.800 5.200 C 324.140 5.200,323.600 5.020,323.600 4.800 C 323.600 4.580,323.071 4.400,322.424 4.400 C 321.777 4.400,321.136 4.220,321.000 4.000 C 320.864 3.780,320.043 3.600,319.176 3.600 C 318.309 3.600,317.600 3.420,317.600 3.200 C 317.600 2.980,316.880 2.800,316.000 2.800 C 315.120 2.800,314.400 2.620,314.400 2.400 C 314.400 2.180,313.500 2.000,312.400 2.000 C 311.300 2.000,310.400 1.820,310.400 1.600 C 310.400 1.380,309.446 1.200,308.280 1.200 C 307.114 1.200,305.939 0.979,305.669 0.709 C 305.182 0.222,275.549 -0.119,267.900 0.274 M297.600 23.016 C 299.470 23.149,301.171 23.425,301.380 23.629 C 301.589 23.833,302.703 24.000,303.856 24.000 C 305.009 24.000,306.064 24.180,306.200 24.400 C 306.336 24.620,307.236 24.800,308.200 24.800 C 309.164 24.800,310.064 24.980,310.200 25.200 C 310.336 25.420,311.056 25.600,311.800 25.600 C 312.544 25.600,313.264 25.780,313.400 26.000 C 313.536 26.220,314.166 26.400,314.800 26.400 C 315.434 26.400,316.064 26.580,316.200 26.800 C 316.336 27.020,316.966 27.200,317.600 27.200 C 318.234 27.200,318.864 27.380,319.000 27.600 C 319.136 27.820,319.676 28.000,320.200 28.000 C 320.724 28.000,321.264 28.180,321.400 28.400 C 321.536 28.620,322.087 28.800,322.624 28.800 C 323.161 28.800,323.600 28.980,323.600 29.200 C 323.600 29.420,324.039 29.600,324.576 29.600 C 325.113 29.600,325.664 29.780,325.800 30.000 C 325.936 30.220,326.315 30.400,326.643 30.400 C 326.970 30.400,328.960 31.210,331.065 32.200 C 333.169 33.190,334.964 34.000,335.053 34.000 C 335.142 34.000,336.400 34.720,337.848 35.600 C 339.297 36.480,340.560 37.200,340.656 37.200 C 340.752 37.200,342.489 38.312,344.515 39.670 C 356.770 47.885,366.580 58.799,371.958 70.200 C 372.853 72.097,373.186 72.875,374.100 75.200 C 374.316 75.750,374.652 76.513,374.847 76.895 C 375.041 77.277,375.200 78.042,375.200 78.595 C 375.200 79.148,375.380 79.600,375.600 79.600 C 375.820 79.600,376.000 80.104,376.000 80.720 C 376.000 81.336,376.162 82.011,376.359 82.220 C 376.556 82.429,376.820 83.320,376.945 84.200 C 377.070 85.080,377.393 87.240,377.662 89.000 C 378.557 94.862,378.186 104.016,376.803 110.200 C 376.557 111.300,376.256 112.785,376.134 113.500 C 376.012 114.215,375.752 114.800,375.556 114.800 C 375.360 114.800,375.200 115.340,375.200 116.000 C 375.200 116.660,375.020 117.200,374.800 117.200 C 374.580 117.200,374.400 117.562,374.400 118.005 C 374.400 118.448,374.235 119.123,374.033 119.505 C 373.467 120.575,372.000 123.965,372.000 124.203 C 372.000 124.319,371.280 125.600,370.400 127.048 C 369.520 128.497,368.800 129.767,368.800 129.870 C 368.800 130.095,364.393 136.512,364.040 136.800 C 363.906 136.910,363.284 137.687,362.658 138.526 C 361.066 140.660,353.834 147.768,351.238 149.750 C 346.631 153.266,346.182 153.595,345.600 153.873 C 345.270 154.031,344.651 154.484,344.225 154.880 C 343.798 155.276,343.213 155.600,342.925 155.600 C 342.636 155.600,342.400 155.759,342.400 155.953 C 342.400 156.148,342.085 156.407,341.700 156.529 C 340.764 156.825,338.634 158.124,338.467 158.500 C 338.393 158.665,338.003 158.800,337.600 158.800 C 337.197 158.800,336.807 158.937,336.733 159.104 C 336.611 159.382,330.476 162.477,328.600 163.207 C 328.160 163.378,327.170 163.793,326.400 164.129 C 323.269 165.496,314.834 168.077,311.000 168.842 C 303.574 170.324,300.780 170.724,294.000 171.275 C 284.526 172.046,274.417 171.535,264.291 169.773 C 263.414 169.620,262.242 169.714,261.491 169.996 C 259.898 170.596,256.671 172.116,256.400 172.395 C 256.290 172.508,255.750 172.853,255.200 173.162 C 254.650 173.472,253.849 173.922,253.420 174.162 C 252.992 174.403,252.283 174.915,251.845 175.300 C 251.407 175.685,250.813 176.000,250.525 176.000 C 250.236 176.000,250.000 176.180,250.000 176.400 C 250.000 176.620,249.818 176.800,249.595 176.800 C 249.373 176.800,247.978 177.585,246.495 178.544 C 241.885 181.528,237.253 184.400,237.051 184.400 C 236.945 184.400,235.500 185.300,233.839 186.400 C 232.178 187.500,230.712 188.400,230.581 188.400 C 230.451 188.400,229.559 188.940,228.600 189.600 C 227.641 190.260,226.663 190.800,226.428 190.800 C 226.193 190.800,226.000 190.950,226.000 191.132 C 226.000 191.315,225.505 191.715,224.900 192.020 C 224.295 192.326,223.025 193.092,222.078 193.722 C 220.130 195.019,218.948 194.920,219.381 193.495 C 219.531 193.003,219.835 191.250,220.057 189.600 C 220.742 184.505,221.184 181.311,221.593 178.500 C 222.588 171.656,222.850 169.623,223.050 167.200 C 223.168 165.770,223.430 164.429,223.632 164.220 C 224.134 163.702,224.104 155.312,223.600 155.000 C 223.380 154.864,223.200 154.403,223.200 153.976 C 223.200 153.549,223.062 153.200,222.893 153.200 C 222.724 153.200,222.319 152.770,221.993 152.245 C 221.667 151.720,219.690 149.795,217.600 147.969 C 215.510 146.142,213.170 143.937,212.400 143.068 C 211.630 142.200,210.278 140.749,209.395 139.844 C 208.512 138.940,207.350 137.570,206.814 136.800 C 206.277 136.030,205.725 135.310,205.587 135.200 C 204.046 133.974,196.800 120.774,196.800 119.191 C 196.800 118.844,196.651 118.389,196.470 118.180 C 196.288 117.971,195.910 116.990,195.631 116.000 C 195.351 115.010,194.960 113.887,194.761 113.505 C 194.562 113.123,194.400 112.279,194.400 111.629 C 194.400 110.979,194.220 110.336,194.000 110.200 C 193.780 110.064,193.600 109.074,193.600 108.000 C 193.600 106.926,193.420 105.936,193.200 105.800 C 192.954 105.648,192.800 102.337,192.800 97.200 C 192.800 92.063,192.954 88.752,193.200 88.600 C 193.420 88.464,193.600 87.474,193.600 86.400 C 193.600 85.326,193.780 84.336,194.000 84.200 C 194.220 84.064,194.400 83.344,194.400 82.600 C 194.400 81.856,194.580 81.136,194.800 81.000 C 195.020 80.864,195.200 80.234,195.200 79.600 C 195.200 78.966,195.344 78.358,195.521 78.249 C 195.697 78.140,196.090 77.139,196.393 76.025 C 196.696 74.911,197.092 74.000,197.272 74.000 C 197.453 74.000,197.600 73.706,197.600 73.346 C 197.600 69.143,210.781 51.294,217.800 45.993 C 219.869 44.431,222.219 42.577,222.400 42.366 C 222.842 41.849,230.295 37.000,232.375 35.875 C 236.869 33.447,240.599 31.709,245.200 29.900 C 245.750 29.684,246.513 29.348,246.895 29.153 C 247.277 28.959,247.941 28.800,248.371 28.800 C 248.801 28.800,249.264 28.620,249.400 28.400 C 249.536 28.180,250.076 28.000,250.600 28.000 C 251.124 28.000,251.664 27.820,251.800 27.600 C 251.936 27.380,252.566 27.200,253.200 27.200 C 253.834 27.200,254.464 27.020,254.600 26.800 C 254.736 26.580,255.366 26.400,256.000 26.400 C 256.634 26.400,257.264 26.220,257.400 26.000 C 257.536 25.780,258.256 25.600,259.000 25.600 C 259.744 25.600,260.464 25.420,260.600 25.200 C 260.736 24.980,261.611 24.800,262.544 24.800 C 263.477 24.800,264.411 24.637,264.620 24.437 C 265.019 24.056,266.978 23.788,273.080 23.280 C 275.104 23.112,276.898 22.835,277.068 22.666 C 277.387 22.346,291.618 22.589,297.600 23.016 M282.600 36.383 C 281.940 36.560,280.556 36.727,279.524 36.753 C 278.492 36.779,277.536 36.980,277.400 37.200 C 277.264 37.420,276.533 37.600,275.776 37.600 C 275.019 37.600,274.400 37.780,274.400 38.000 C 274.400 38.220,274.128 38.400,273.796 38.400 C 270.953 38.400,258.800 47.416,258.800 49.525 C 258.800 49.750,258.655 49.993,258.477 50.067 C 258.009 50.259,255.600 53.865,255.600 54.372 C 255.600 54.607,255.420 54.800,255.200 54.800 C 254.980 54.800,254.800 55.149,254.800 55.576 C 254.800 56.003,254.620 56.464,254.400 56.600 C 254.180 56.736,254.000 58.446,254.000 60.400 C 254.000 62.354,254.180 64.064,254.400 64.200 C 254.620 64.336,254.800 64.763,254.800 65.150 C 254.800 66.053,258.236 69.501,259.800 70.166 C 263.120 71.579,266.087 72.030,266.600 71.200 C 266.736 70.980,267.206 70.800,267.643 70.800 C 269.335 70.800,274.000 67.390,274.000 66.153 C 274.000 65.849,274.180 65.600,274.400 65.600 C 274.620 65.600,274.800 65.407,274.800 65.172 C 274.800 64.470,277.223 61.166,277.938 60.893 C 278.302 60.754,278.949 60.316,279.375 59.920 C 279.802 59.524,280.556 59.200,281.052 59.200 C 281.547 59.200,282.064 59.020,282.200 58.800 C 282.532 58.263,285.008 58.293,286.772 58.855 C 292.349 60.634,294.800 63.864,294.800 69.438 C 294.800 71.413,294.635 72.800,294.400 72.800 C 294.180 72.800,294.000 73.160,294.000 73.600 C 294.000 74.040,293.820 74.400,293.600 74.400 C 293.380 74.400,293.200 74.633,293.200 74.919 C 293.200 75.676,290.435 78.166,288.740 78.936 C 286.448 79.977,282.612 83.033,280.729 85.316 C 279.784 86.462,278.919 87.490,278.805 87.600 C 278.512 87.885,277.588 89.537,276.680 91.400 C 276.251 92.280,275.742 93.313,275.550 93.695 C 275.357 94.077,275.200 94.752,275.200 95.195 C 275.200 95.638,275.020 96.000,274.800 96.000 C 274.580 96.000,274.400 96.619,274.400 97.376 C 274.400 98.133,274.220 98.864,274.000 99.000 C 273.767 99.144,273.600 101.396,273.600 104.400 C 273.600 107.404,273.767 109.656,274.000 109.800 C 274.220 109.936,274.404 110.442,274.409 110.924 C 274.414 111.406,274.770 112.250,275.200 112.800 C 275.630 113.350,275.986 113.959,275.991 114.153 C 276.020 115.300,279.401 117.334,282.295 117.946 C 287.460 119.039,294.400 115.289,294.400 111.405 C 294.400 111.072,294.580 110.800,294.800 110.800 C 295.020 110.800,295.199 110.305,295.197 109.700 C 295.182 103.221,297.727 97.615,300.692 97.598 C 300.861 97.597,301.949 96.877,303.108 95.998 C 304.268 95.119,305.307 94.400,305.419 94.400 C 306.047 94.400,310.132 89.704,312.202 86.602 C 317.127 79.220,318.318 67.004,315.023 57.666 C 313.564 53.531,311.967 50.905,308.251 46.534 C 307.016 45.082,302.626 41.600,302.029 41.600 C 301.830 41.600,301.607 41.464,301.533 41.298 C 301.344 40.870,296.506 38.549,294.600 37.973 C 293.720 37.707,292.640 37.348,292.200 37.175 C 291.760 37.002,290.320 36.765,289.000 36.649 C 287.680 36.533,285.970 36.353,285.200 36.249 C 284.430 36.145,283.260 36.205,282.600 36.383 M281.000 128.800 C 280.864 129.020,280.429 129.200,280.033 129.200 C 279.014 129.200,275.536 132.672,274.484 134.738 C 273.537 136.599,273.128 148.283,273.953 149.905 C 274.148 150.287,274.548 151.113,274.843 151.741 C 275.498 153.136,278.142 155.754,279.559 156.410 C 280.131 156.676,280.913 157.052,281.295 157.247 C 281.677 157.441,283.164 157.600,284.600 157.600 C 286.036 157.600,287.523 157.441,287.905 157.247 C 288.287 157.052,289.122 156.648,289.759 156.347 C 291.427 155.562,293.275 153.587,294.413 151.374 C 296.141 148.013,295.727 133.600,293.902 133.600 C 293.736 133.600,293.600 133.359,293.600 133.064 C 293.600 130.368,282.378 126.570,281.000 128.800 M88.800 135.232 C 88.800 135.434,87.720 135.600,86.400 135.600 C 85.067 135.600,84.000 135.778,84.000 136.000 C 84.000 136.220,83.291 136.400,82.424 136.400 C 81.557 136.400,80.736 136.580,80.600 136.800 C 80.464 137.020,79.834 137.200,79.200 137.200 C 78.566 137.200,77.936 137.380,77.800 137.600 C 77.664 137.820,77.113 138.000,76.576 138.000 C 76.039 138.000,75.600 138.180,75.600 138.400 C 75.600 138.620,75.251 138.800,74.824 138.800 C 74.397 138.800,73.936 138.980,73.800 139.200 C 73.664 139.420,73.113 139.600,72.576 139.600 C 72.039 139.600,71.600 139.780,71.600 140.000 C 71.600 140.220,71.240 140.400,70.800 140.400 C 70.360 140.400,70.000 140.580,70.000 140.800 C 70.000 141.020,69.640 141.200,69.200 141.200 C 68.760 141.200,68.400 141.380,68.400 141.600 C 68.400 141.820,68.136 142.000,67.814 142.000 C 67.001 142.000,64.400 143.276,64.400 143.674 C 64.400 143.853,64.164 144.000,63.875 144.000 C 63.587 144.000,62.964 144.360,62.492 144.800 C 62.020 145.240,61.525 145.600,61.393 145.600 C 60.574 145.600,48.003 157.515,47.998 158.296 C 47.997 158.463,47.457 159.175,46.798 159.878 C 46.139 160.581,45.600 161.346,45.600 161.578 C 45.600 161.810,45.465 162.000,45.299 162.000 C 45.134 162.000,44.279 163.395,43.399 165.100 C 42.520 166.805,41.665 168.260,41.500 168.333 C 41.335 168.407,41.200 168.801,41.200 169.210 C 41.200 169.618,41.020 170.064,40.800 170.200 C 40.580 170.336,40.400 170.887,40.400 171.424 C 40.400 171.961,40.220 172.400,40.000 172.400 C 39.780 172.400,39.600 172.760,39.600 173.200 C 39.600 173.640,39.420 174.000,39.200 174.000 C 38.980 174.000,38.800 174.439,38.800 174.976 C 38.800 175.513,38.620 176.064,38.400 176.200 C 38.180 176.336,38.000 176.876,38.000 177.400 C 38.000 177.924,37.820 178.464,37.600 178.600 C 37.380 178.736,37.200 179.467,37.200 180.224 C 37.200 180.981,37.020 181.600,36.800 181.600 C 36.580 181.600,36.400 182.500,36.400 183.600 C 36.400 184.700,36.220 185.600,36.000 185.600 C 35.767 185.600,35.600 186.925,35.600 188.776 C 35.600 190.561,35.416 192.066,35.180 192.212 C 34.674 192.525,34.743 199.600,35.253 199.600 C 35.444 199.600,35.600 201.220,35.600 203.200 C 35.600 205.333,35.763 206.800,36.000 206.800 C 36.220 206.800,36.400 207.610,36.400 208.600 C 36.400 209.590,36.580 210.400,36.800 210.400 C 37.020 210.400,37.200 211.120,37.200 212.000 C 37.200 212.880,37.380 213.600,37.600 213.600 C 37.820 213.600,38.000 214.140,38.000 214.800 C 38.000 215.460,38.180 216.000,38.400 216.000 C 38.620 216.000,38.800 216.540,38.800 217.200 C 38.800 217.860,38.980 218.400,39.200 218.400 C 39.420 218.400,39.600 218.760,39.600 219.200 C 39.600 219.640,39.780 220.000,40.000 220.000 C 40.220 220.000,40.400 220.272,40.400 220.605 C 40.400 220.938,40.560 221.523,40.755 221.905 C 40.950 222.287,41.618 223.680,42.238 225.000 C 42.858 226.320,43.464 227.490,43.583 227.600 C 43.703 227.710,44.056 228.295,44.368 228.900 C 44.680 229.505,45.085 230.000,45.268 230.000 C 45.450 230.000,45.600 230.288,45.600 230.640 C 45.600 230.991,46.140 231.783,46.800 232.400 C 47.460 233.017,48.000 233.726,48.000 233.976 C 48.000 234.372,51.215 237.633,57.091 243.199 C 58.021 244.079,58.926 244.800,59.102 244.800 C 59.279 244.800,59.683 245.160,60.000 245.600 C 60.317 246.040,60.831 246.400,61.141 246.400 C 61.452 246.400,61.997 246.716,62.353 247.103 C 62.709 247.489,63.495 248.060,64.100 248.370 C 64.705 248.681,65.200 249.085,65.200 249.268 C 65.200 249.450,65.560 249.600,66.000 249.600 C 66.440 249.600,66.800 249.780,66.800 250.000 C 66.800 250.220,67.160 250.400,67.600 250.400 C 68.040 250.400,68.400 250.580,68.400 250.800 C 68.400 251.020,68.760 251.200,69.200 251.200 C 69.640 251.200,70.000 251.380,70.000 251.600 C 70.000 251.820,70.360 252.000,70.800 252.000 C 71.240 252.000,71.600 252.147,71.600 252.328 C 71.600 252.508,72.500 252.900,73.600 253.200 C 74.700 253.500,75.600 253.892,75.600 254.072 C 75.600 254.253,76.039 254.400,76.576 254.400 C 77.113 254.400,77.664 254.580,77.800 254.800 C 77.936 255.020,78.566 255.200,79.200 255.200 C 79.834 255.200,80.464 255.380,80.600 255.600 C 80.736 255.820,81.521 256.000,82.344 256.000 C 83.167 256.000,84.011 256.160,84.220 256.357 C 84.845 256.943,89.397 257.310,96.400 257.339 C 102.575 257.364,105.737 257.066,110.600 256.002 C 111.700 255.761,113.097 255.461,113.705 255.336 C 114.313 255.210,114.908 254.949,115.029 254.754 C 115.149 254.559,115.599 254.400,116.029 254.400 C 116.459 254.400,117.123 254.241,117.505 254.047 C 117.887 253.852,118.650 253.515,119.200 253.297 C 121.245 252.487,124.204 250.990,124.333 250.700 C 124.407 250.535,124.812 250.400,125.233 250.400 C 125.655 250.400,126.000 250.220,126.000 250.000 C 126.000 249.780,126.320 249.600,126.712 249.600 C 127.103 249.600,127.683 249.240,128.000 248.800 C 128.317 248.360,128.897 248.000,129.288 248.000 C 129.680 248.000,130.000 247.820,130.000 247.600 C 130.000 247.380,130.243 247.200,130.541 247.200 C 130.838 247.200,131.646 246.660,132.337 246.000 C 133.028 245.340,133.779 244.800,134.006 244.800 C 134.533 244.800,144.800 234.633,144.800 234.110 C 144.800 233.895,145.340 233.154,146.000 232.463 C 146.660 231.772,147.200 230.975,147.200 230.692 C 147.200 230.409,147.560 229.917,148.000 229.600 C 148.440 229.283,148.800 228.703,148.800 228.312 C 148.800 227.920,148.980 227.600,149.200 227.600 C 149.420 227.600,149.600 227.322,149.600 226.983 C 149.600 226.644,149.960 225.980,150.400 225.508 C 150.840 225.036,151.200 224.413,151.200 224.125 C 151.200 223.836,151.380 223.600,151.600 223.600 C 151.820 223.600,152.000 223.251,152.000 222.824 C 152.000 222.397,152.180 221.936,152.400 221.800 C 152.620 221.664,152.800 221.203,152.800 220.776 C 152.800 220.349,152.980 220.000,153.200 220.000 C 153.420 220.000,153.600 219.651,153.600 219.224 C 153.600 218.797,153.780 218.336,154.000 218.200 C 154.220 218.064,154.400 217.513,154.400 216.976 C 154.400 216.439,154.580 216.000,154.800 216.000 C 155.020 216.000,155.200 215.471,155.200 214.824 C 155.200 214.177,155.380 213.536,155.600 213.400 C 155.820 213.264,156.000 212.569,156.000 211.856 C 156.000 211.143,156.162 210.389,156.359 210.180 C 158.147 208.288,158.149 183.700,156.361 181.820 C 156.163 181.611,156.000 180.857,156.000 180.144 C 156.000 179.431,155.820 178.736,155.600 178.600 C 155.380 178.464,155.200 177.913,155.200 177.376 C 155.200 176.839,155.020 176.400,154.800 176.400 C 154.580 176.400,154.400 175.860,154.400 175.200 C 154.400 174.540,154.220 174.000,154.000 174.000 C 153.780 174.000,153.600 173.640,153.600 173.200 C 153.600 172.760,153.420 172.400,153.200 172.400 C 152.980 172.400,152.800 172.058,152.800 171.641 C 152.800 171.223,152.234 169.828,151.541 168.541 C 150.849 167.253,150.084 165.796,149.841 165.303 C 149.599 164.810,149.265 164.405,149.100 164.403 C 148.935 164.401,148.800 164.080,148.800 163.688 C 148.800 163.297,148.440 162.717,148.000 162.400 C 147.560 162.083,147.200 161.638,147.200 161.412 C 147.198 160.328,134.879 147.200,133.864 147.200 C 133.596 147.200,133.117 146.840,132.800 146.400 C 132.483 145.960,131.943 145.600,131.600 145.600 C 131.257 145.600,130.717 145.240,130.400 144.800 C 130.083 144.360,129.503 144.000,129.112 144.000 C 128.720 144.000,128.400 143.846,128.400 143.657 C 128.400 143.469,127.230 142.794,125.801 142.157 C 124.371 141.521,123.201 140.865,123.201 140.700 C 123.200 140.535,122.840 140.400,122.400 140.400 C 121.960 140.400,121.600 140.220,121.600 140.000 C 121.600 139.780,121.049 139.600,120.376 139.600 C 119.663 139.600,119.256 139.433,119.400 139.200 C 119.540 138.973,119.204 138.800,118.624 138.800 C 118.061 138.800,117.600 138.620,117.600 138.400 C 117.600 138.180,117.060 138.000,116.400 138.000 C 115.740 138.000,115.200 137.820,115.200 137.600 C 115.200 137.380,114.581 137.200,113.824 137.200 C 113.067 137.200,112.336 137.020,112.200 136.800 C 112.064 136.580,111.243 136.400,110.376 136.400 C 109.509 136.400,108.800 136.220,108.800 136.000 C 108.800 135.780,107.821 135.600,106.624 135.600 C 105.427 135.600,104.332 135.414,104.191 135.186 C 103.866 134.660,88.800 134.704,88.800 135.232 M104.200 158.155 C 107.612 158.960,108.733 159.313,111.500 160.454 C 114.110 161.529,114.764 161.884,117.800 163.868 C 126.310 169.429,131.464 176.836,134.455 187.800 C 135.184 190.475,135.189 201.425,134.462 204.400 C 133.178 209.658,130.246 216.113,127.727 219.226 C 115.147 234.779,96.145 239.240,78.900 230.690 C 77.085 229.790,75.600 228.906,75.600 228.727 C 75.600 228.547,75.375 228.400,75.100 228.400 C 74.825 228.399,74.060 227.940,73.400 227.378 C 72.740 226.817,71.271 225.560,70.136 224.586 C 66.533 221.496,62.357 215.316,60.347 210.100 C 60.156 209.605,59.834 208.795,59.630 208.300 C 58.039 204.429,57.355 194.518,58.339 189.600 C 58.581 188.390,58.893 186.723,59.033 185.896 C 59.174 185.069,59.449 184.294,59.644 184.173 C 59.840 184.052,60.000 183.698,60.000 183.386 C 60.000 182.429,62.365 177.595,64.287 174.622 C 68.518 168.080,76.832 161.635,83.600 159.650 C 84.590 159.360,85.713 158.960,86.095 158.761 C 86.477 158.562,87.287 158.397,87.895 158.394 C 88.503 158.391,89.270 158.209,89.600 157.990 C 90.261 157.551,102.213 157.686,104.200 158.155 M58.600 273.600 C 58.464 273.820,56.844 274.000,55.000 274.000 C 53.156 274.000,51.536 274.180,51.400 274.400 C 51.264 274.620,50.476 274.800,49.649 274.800 C 48.282 274.800,47.033 275.081,42.200 276.477 C 41.320 276.731,40.429 277.088,40.220 277.270 C 40.011 277.451,39.426 277.600,38.920 277.600 C 38.414 277.600,38.000 277.780,38.000 278.000 C 38.000 278.220,37.640 278.400,37.200 278.400 C 36.760 278.400,36.400 278.580,36.400 278.800 C 36.400 279.020,36.040 279.200,35.600 279.200 C 35.160 279.200,34.800 279.380,34.800 279.600 C 34.800 279.820,34.440 280.000,34.000 280.000 C 33.560 280.000,33.200 280.180,33.200 280.400 C 33.200 280.620,32.840 280.800,32.400 280.800 C 31.960 280.800,31.600 280.980,31.600 281.200 C 31.600 281.420,31.240 281.600,30.800 281.600 C 30.360 281.600,30.000 281.780,30.000 282.000 C 30.000 282.220,29.730 282.400,29.400 282.400 C 29.070 282.400,28.800 282.580,28.800 282.800 C 28.800 283.020,28.530 283.200,28.200 283.200 C 27.870 283.200,27.600 283.380,27.600 283.600 C 27.600 283.820,27.402 284.000,27.160 284.000 C 26.919 284.000,26.217 284.540,25.600 285.200 C 24.983 285.860,24.270 286.400,24.014 286.400 C 23.758 286.400,22.671 287.300,21.600 288.400 C 20.529 289.500,19.505 290.400,19.326 290.400 C 18.870 290.400,12.000 297.633,12.000 298.113 C 12.000 298.329,11.685 298.798,11.300 299.154 C 10.465 299.927,9.322 301.779,8.742 303.300 C 8.511 303.905,8.159 304.400,7.961 304.400 C 7.762 304.400,7.600 304.760,7.600 305.200 C 7.600 305.640,7.420 306.000,7.200 306.000 C 6.980 306.000,6.800 306.360,6.800 306.800 C 6.800 307.240,6.654 307.600,6.475 307.600 C 6.296 307.600,5.902 308.230,5.600 309.000 C 5.298 309.770,4.904 310.400,4.725 310.400 C 4.546 310.400,4.400 310.749,4.400 311.176 C 4.400 311.603,4.220 312.064,4.000 312.200 C 3.780 312.336,3.600 312.887,3.600 313.424 C 3.600 313.961,3.420 314.400,3.200 314.400 C 2.980 314.400,2.800 314.940,2.800 315.600 C 2.800 316.260,2.620 316.800,2.400 316.800 C 2.180 316.800,2.000 317.340,2.000 318.000 C 2.000 318.660,1.820 319.200,1.600 319.200 C 1.380 319.200,1.200 319.905,1.200 320.767 C 1.200 321.664,0.987 322.404,0.700 322.500 C 0.057 322.714,-0.042 394.256,0.600 394.714 C 0.820 394.871,1.051 395.242,1.113 395.538 C 1.175 395.835,2.133 396.961,3.242 398.041 L 5.259 400.005 96.765 399.903 L 188.271 399.800 189.835 398.113 C 192.175 395.590,192.400 395.286,192.400 394.650 C 192.400 394.329,192.568 394.007,192.773 393.933 C 192.978 393.860,193.200 392.690,193.266 391.334 C 193.331 389.977,193.523 388.953,193.693 389.057 C 193.862 389.162,194.000 377.007,194.000 362.047 C 194.000 344.345,193.860 334.761,193.600 334.600 C 193.377 334.462,193.200 332.596,193.200 330.376 C 193.200 327.992,193.040 326.400,192.800 326.400 C 192.580 326.400,192.400 325.500,192.400 324.400 C 192.400 323.300,192.246 322.400,192.057 322.400 C 191.868 322.400,191.597 321.283,191.454 319.918 C 191.312 318.552,191.016 317.256,190.798 317.038 C 190.579 316.819,190.400 316.237,190.400 315.744 C 190.400 315.251,190.220 314.736,190.000 314.600 C 189.780 314.464,189.600 314.029,189.600 313.633 C 189.600 312.848,187.187 307.883,186.700 307.667 C 186.535 307.593,186.400 307.188,186.400 306.767 C 186.400 306.345,186.220 306.000,186.000 306.000 C 185.780 306.000,185.600 305.640,185.600 305.200 C 185.600 304.760,185.420 304.400,185.200 304.400 C 184.980 304.400,184.800 304.164,184.800 303.875 C 184.800 303.587,184.440 302.964,184.000 302.492 C 183.560 302.020,183.200 301.473,183.200 301.276 C 183.200 301.079,182.660 300.354,182.000 299.663 C 181.340 298.972,180.800 298.221,180.800 297.993 C 180.800 297.601,179.916 296.616,175.527 292.119 C 172.581 289.100,169.619 286.400,169.253 286.400 C 169.069 286.400,168.354 285.860,167.663 285.200 C 166.972 284.540,166.175 284.000,165.892 284.000 C 165.609 284.000,165.117 283.640,164.800 283.200 C 164.483 282.760,163.903 282.400,163.512 282.400 C 163.120 282.400,162.800 282.220,162.800 282.000 C 162.800 281.780,162.440 281.600,162.000 281.600 C 161.560 281.600,161.200 281.420,161.200 281.200 C 161.200 280.980,160.855 280.800,160.433 280.800 C 160.012 280.800,159.607 280.664,159.533 280.498 C 159.295 279.960,153.223 277.146,150.800 276.452 C 150.030 276.231,148.434 275.769,147.254 275.425 C 146.074 275.081,144.319 274.800,143.354 274.800 C 142.389 274.800,141.600 274.620,141.600 274.400 C 141.600 274.161,140.059 274.000,137.776 274.000 C 135.329 274.000,134.042 273.856,134.200 273.600 C 134.355 273.349,133.479 273.200,131.847 273.200 C 130.417 273.200,129.136 273.380,129.000 273.600 C 128.864 273.820,128.133 274.000,127.376 274.000 C 126.619 274.000,126.000 274.144,126.000 274.320 C 126.000 274.495,125.381 274.863,124.624 275.137 C 123.123 275.680,120.800 277.648,120.800 278.377 C 120.800 278.628,120.440 279.220,120.000 279.692 C 119.560 280.164,119.200 280.787,119.200 281.075 C 119.200 281.364,119.020 281.600,118.800 281.600 C 118.580 281.600,118.400 281.960,118.400 282.400 C 118.400 282.840,118.220 283.200,118.000 283.200 C 117.780 283.200,117.600 283.560,117.600 284.000 C 117.600 284.440,117.420 284.800,117.200 284.800 C 116.980 284.800,116.800 285.145,116.800 285.567 C 116.800 285.988,116.633 286.393,116.430 286.467 C 116.226 286.540,116.001 286.863,115.930 287.184 C 115.858 287.506,115.485 288.125,115.100 288.560 C 114.715 288.995,114.400 289.587,114.400 289.875 C 114.400 290.164,114.220 290.400,114.000 290.400 C 113.780 290.400,113.600 290.760,113.600 291.200 C 113.600 291.640,113.454 292.000,113.275 292.000 C 113.096 292.000,112.702 292.630,112.400 293.400 C 112.098 294.170,111.704 294.800,111.525 294.800 C 111.346 294.800,111.200 295.145,111.200 295.567 C 111.200 295.988,111.065 296.393,110.900 296.467 C 110.426 296.677,108.400 300.638,108.400 301.354 C 108.400 301.709,108.220 302.000,108.000 302.000 C 107.780 302.000,107.600 302.360,107.600 302.800 C 107.600 303.240,107.420 303.600,107.200 303.600 C 106.980 303.600,106.800 303.836,106.800 304.125 C 106.800 304.413,106.440 305.036,106.000 305.508 C 105.560 305.980,105.200 306.644,105.200 306.983 C 105.200 307.322,105.020 307.600,104.800 307.600 C 104.580 307.600,104.400 307.960,104.400 308.400 C 104.400 308.840,104.220 309.200,104.000 309.200 C 103.780 309.200,103.600 309.470,103.600 309.800 C 103.600 310.130,103.420 310.400,103.200 310.400 C 102.980 310.400,102.800 310.760,102.800 311.200 C 102.800 311.640,102.620 312.000,102.400 312.000 C 102.180 312.000,102.000 312.360,102.000 312.800 C 102.000 313.240,101.820 313.600,101.600 313.600 C 101.380 313.600,101.200 313.870,101.200 314.200 C 101.200 314.530,101.020 314.800,100.800 314.800 C 100.580 314.800,100.400 315.070,100.400 315.400 C 100.400 315.730,100.220 316.000,100.000 316.000 C 99.780 316.000,99.600 316.360,99.600 316.800 C 99.600 317.240,99.420 317.600,99.200 317.600 C 98.980 317.600,98.800 317.960,98.800 318.400 C 98.800 318.840,98.620 319.200,98.400 319.200 C 98.180 319.200,98.000 319.560,98.000 320.000 C 98.000 320.440,97.820 320.800,97.600 320.800 C 97.380 320.800,97.200 321.160,97.200 321.600 C 97.200 322.133,96.933 322.400,96.400 322.400 C 95.867 322.400,95.600 322.133,95.600 321.600 C 95.600 321.160,95.420 320.800,95.200 320.800 C 94.980 320.800,94.800 320.440,94.800 320.000 C 94.800 319.560,94.620 319.200,94.400 319.200 C 94.180 319.200,94.000 318.840,94.000 318.400 C 94.000 317.960,93.820 317.600,93.600 317.600 C 93.380 317.600,93.200 317.255,93.200 316.833 C 93.200 316.412,93.058 316.007,92.884 315.933 C 92.711 315.860,91.857 314.360,90.988 312.600 C 90.119 310.840,89.271 309.340,89.104 309.267 C 88.937 309.193,88.800 308.788,88.800 308.367 C 88.800 307.945,88.620 307.600,88.400 307.600 C 88.180 307.600,88.000 307.364,88.000 307.075 C 88.000 306.787,87.685 306.195,87.300 305.760 C 86.915 305.325,86.542 304.706,86.470 304.384 C 86.399 304.063,86.174 303.740,85.970 303.667 C 85.767 303.593,85.600 303.188,85.600 302.767 C 85.600 302.345,85.420 302.000,85.200 302.000 C 84.980 302.000,84.800 301.640,84.800 301.200 C 84.800 300.760,84.620 300.400,84.400 300.400 C 84.180 300.400,84.000 300.040,84.000 299.600 C 84.000 299.160,83.854 298.800,83.675 298.800 C 83.496 298.800,83.102 298.170,82.800 297.400 C 82.498 296.630,82.104 296.000,81.925 296.000 C 81.746 296.000,81.600 295.730,81.600 295.400 C 81.600 295.070,81.420 294.800,81.200 294.800 C 80.980 294.800,80.800 294.440,80.800 294.000 C 80.800 293.560,80.620 293.200,80.400 293.200 C 80.180 293.200,80.000 292.930,80.000 292.600 C 80.000 292.270,79.820 292.000,79.600 292.000 C 79.380 292.000,79.200 291.640,79.200 291.200 C 79.200 290.760,79.020 290.400,78.800 290.400 C 78.580 290.400,78.400 290.040,78.400 289.600 C 78.400 289.160,78.220 288.800,78.000 288.800 C 77.780 288.800,77.600 288.522,77.600 288.183 C 77.600 287.844,77.240 287.180,76.800 286.708 C 76.360 286.236,76.000 285.613,76.000 285.325 C 76.000 285.036,75.820 284.800,75.600 284.800 C 75.380 284.800,75.200 284.511,75.200 284.158 C 75.200 281.980,69.883 274.730,68.784 275.410 C 68.573 275.540,68.399 275.502,68.397 275.324 C 68.392 274.862,66.405 274.000,65.344 274.000 C 64.851 274.000,64.336 273.820,64.200 273.600 C 64.064 273.380,62.804 273.200,61.400 273.200 C 59.996 273.200,58.736 273.380,58.600 273.600 M56.910 298.100 C 57.272 298.815,58.170 300.480,58.904 301.800 C 59.639 303.120,61.201 306.000,62.376 308.200 C 63.551 310.400,65.002 313.100,65.600 314.200 C 67.301 317.324,69.094 320.608,70.353 322.900 C 70.987 324.055,72.132 326.170,72.897 327.600 C 73.662 329.030,74.831 331.190,75.495 332.400 C 77.805 336.609,82.143 344.616,83.514 347.200 C 88.038 355.729,88.695 356.551,92.311 358.224 C 98.285 360.986,103.538 358.510,107.315 351.151 C 108.148 349.528,109.258 347.455,109.783 346.545 C 110.308 345.635,111.496 343.475,112.423 341.745 C 113.350 340.015,114.592 337.700,115.182 336.600 C 115.772 335.500,117.341 332.620,118.668 330.200 C 119.995 327.780,121.948 324.180,123.006 322.200 C 124.065 320.220,125.329 317.880,125.816 317.000 C 126.303 316.120,127.219 314.410,127.851 313.200 C 128.483 311.990,129.090 310.910,129.200 310.800 C 129.310 310.690,129.917 309.610,130.550 308.400 C 131.182 307.190,132.217 305.255,132.850 304.100 C 133.482 302.945,134.562 300.965,135.249 299.700 C 136.947 296.572,136.885 296.613,139.078 297.187 C 153.457 300.955,163.143 309.482,168.398 323.000 C 168.569 323.440,168.895 324.520,169.123 325.400 C 169.350 326.280,169.731 327.741,169.968 328.646 C 170.254 329.737,170.400 338.418,170.400 354.347 L 170.400 378.402 96.500 378.301 L 22.600 378.200 22.490 354.800 C 22.376 330.612,22.703 325.403,24.463 323.420 C 24.648 323.211,24.802 322.761,24.805 322.420 C 24.812 321.604,27.675 316.016,29.288 313.673 C 32.833 308.519,40.153 302.406,45.600 300.048 C 48.745 298.687,49.235 298.499,50.800 298.061 C 51.570 297.845,52.740 297.492,53.400 297.277 C 55.573 296.567,56.210 296.716,56.910 298.100 " stroke="none" fill="#144c84" fill-rule="evenodd"></path><path id="path3" d="M94.100 157.896 C 95.365 157.975,97.435 157.975,98.700 157.896 C 99.965 157.816,98.930 157.751,96.400 157.751 C 93.870 157.751,92.835 157.816,94.100 157.896 M88.100 158.676 C 88.485 158.776,89.115 158.776,89.500 158.676 C 89.885 158.575,89.570 158.493,88.800 158.493 C 88.030 158.493,87.715 158.575,88.100 158.676 M104.200 158.790 C 105.080 158.978,106.474 159.308,107.297 159.523 C 108.121 159.738,108.708 159.774,108.602 159.603 C 108.381 159.246,106.525 158.824,104.200 158.602 L 102.600 158.449 104.200 158.790 M78.000 162.436 C 77.336 162.979,77.269 163.115,77.800 162.840 C 79.105 162.166,79.828 161.612,79.400 161.615 C 79.180 161.617,78.550 161.986,78.000 162.436 M115.200 162.820 C 116.587 163.761,117.378 164.035,116.400 163.236 C 115.850 162.786,115.220 162.417,115.000 162.415 C 114.780 162.413,114.870 162.596,115.200 162.820 M123.612 169.407 C 125.256 171.171,126.682 172.559,126.782 172.492 C 126.882 172.425,125.537 170.982,123.794 169.285 L 120.625 166.200 123.612 169.407 M69.000 169.200 C 67.917 170.300,67.203 171.182,67.415 171.159 C 67.791 171.120,71.480 167.200,71.141 167.200 C 71.047 167.200,70.083 168.100,69.000 169.200 M128.815 175.800 C 128.817 176.020,129.186 176.650,129.636 177.200 C 130.179 177.864,130.315 177.931,130.040 177.400 C 129.366 176.095,128.812 175.372,128.815 175.800 M59.254 186.267 C 59.225 186.744,59.096 187.464,58.970 187.867 C 58.752 188.561,58.764 188.562,59.196 187.888 C 59.447 187.497,59.575 186.777,59.481 186.288 C 59.309 185.401,59.309 185.401,59.254 186.267 M58.514 190.600 C 58.517 191.700,58.595 192.103,58.687 191.495 C 58.779 190.886,58.777 189.986,58.682 189.495 C 58.587 189.003,58.511 189.500,58.514 190.600 M134.674 194.600 C 134.798 196.140,134.966 197.475,135.049 197.567 C 135.327 197.874,135.158 195.017,134.802 193.400 C 134.531 192.170,134.502 192.448,134.674 194.600 M58.137 196.200 C 58.139 197.960,58.209 198.630,58.293 197.689 C 58.378 196.749,58.377 195.309,58.291 194.489 C 58.205 193.670,58.136 194.440,58.137 196.200 M134.493 199.200 C 134.493 199.970,134.575 200.285,134.676 199.900 C 134.776 199.515,134.776 198.885,134.676 198.500 C 134.575 198.115,134.493 198.430,134.493 199.200 M58.514 201.800 C 58.517 202.900,58.595 203.303,58.687 202.695 C 58.779 202.086,58.777 201.186,58.682 200.695 C 58.587 200.203,58.511 200.700,58.514 201.800 M61.611 212.400 C 61.615 212.730,61.989 213.450,62.444 214.000 C 62.898 214.550,63.153 214.774,63.010 214.499 C 61.819 212.194,61.606 211.874,61.611 212.400 M127.292 218.629 C 126.797 219.383,126.472 220.000,126.569 220.000 C 126.847 220.000,128.504 217.571,128.339 217.406 C 128.257 217.324,127.786 217.874,127.292 218.629 M65.600 219.325 C 65.600 219.394,66.185 219.979,66.900 220.625 L 68.200 221.800 67.025 220.500 C 65.930 219.288,65.600 219.016,65.600 219.325 M123.617 222.985 L 121.433 225.400 123.798 223.114 C 125.098 221.857,126.081 220.771,125.981 220.700 C 125.882 220.629,124.817 221.657,123.617 222.985 M70.400 224.400 C 71.830 225.705,73.153 226.779,73.339 226.787 C 73.526 226.794,72.581 225.872,71.239 224.737 C 69.898 223.602,68.800 222.522,68.800 222.337 C 68.800 222.152,68.575 222.006,68.300 222.013 C 68.025 222.021,68.970 223.095,70.400 224.400 M89.800 234.000 C 90.240 234.189,90.870 234.344,91.200 234.344 C 91.578 234.344,91.504 234.217,91.000 234.000 C 90.560 233.811,89.930 233.656,89.600 233.656 C 89.222 233.656,89.296 233.783,89.800 234.000 M101.800 234.000 C 100.781 234.438,101.832 234.438,103.200 234.000 C 104.004 233.743,104.043 233.677,103.400 233.668 C 102.960 233.662,102.240 233.811,101.800 234.000 M54.800 297.200 C 54.470 297.413,53.626 297.591,52.924 297.594 C 52.222 297.597,51.536 297.780,51.400 298.000 C 51.264 298.220,50.801 298.400,50.371 298.400 C 49.941 298.400,49.277 298.559,48.895 298.753 C 48.513 298.948,47.660 299.331,47.000 299.606 C 36.555 303.952,27.648 313.600,24.480 324.000 C 22.604 330.156,22.600 330.222,22.600 354.600 L 22.600 377.800 96.500 377.901 L 170.400 378.002 170.400 354.607 C 170.400 338.995,170.253 330.577,169.959 329.306 C 169.203 326.034,168.722 324.233,168.354 323.300 C 166.860 319.505,166.451 318.639,165.000 316.198 C 159.408 306.791,148.993 299.171,139.400 297.469 C 138.740 297.352,137.918 297.147,137.574 297.014 C 137.114 296.836,136.625 297.386,135.732 299.086 C 133.021 304.245,131.085 307.822,130.801 308.200 C 130.635 308.420,129.554 310.400,128.397 312.600 C 127.240 314.800,125.778 317.545,125.147 318.700 C 124.516 319.855,123.435 321.835,122.745 323.100 C 122.054 324.365,121.037 326.210,120.485 327.200 C 119.933 328.190,118.857 330.170,118.094 331.600 C 117.331 333.030,116.251 335.010,115.694 336.000 C 115.137 336.990,113.969 339.150,113.098 340.800 C 105.800 354.637,104.141 357.083,101.059 358.545 C 95.387 361.237,89.078 358.315,85.603 351.386 C 84.835 349.854,84.115 348.510,84.003 348.400 C 83.891 348.290,83.283 347.210,82.651 346.000 C 82.019 344.790,81.047 342.990,80.491 342.000 C 79.935 341.010,78.765 338.850,77.890 337.200 C 77.015 335.550,75.262 332.310,73.995 330.000 C 72.727 327.690,71.066 324.630,70.304 323.200 C 69.542 321.770,68.463 319.790,67.906 318.800 C 67.349 317.810,66.218 315.740,65.393 314.200 C 62.272 308.372,61.060 306.122,59.680 303.600 C 55.595 296.134,55.877 296.505,54.800 297.200 " stroke="none" fill="#53abe3" fill-rule="evenodd"></path><path id="path4" d="M277.068 22.666 C 276.898 22.835,275.104 23.112,273.080 23.280 C 266.978 23.788,265.019 24.056,264.620 24.437 C 264.411 24.637,263.477 24.800,262.544 24.800 C 261.611 24.800,260.736 24.980,260.600 25.200 C 260.464 25.420,259.744 25.600,259.000 25.600 C 258.256 25.600,257.536 25.780,257.400 26.000 C 257.264 26.220,256.634 26.400,256.000 26.400 C 255.366 26.400,254.736 26.580,254.600 26.800 C 254.464 27.020,253.834 27.200,253.200 27.200 C 252.566 27.200,251.932 27.387,251.790 27.616 C 251.529 28.038,252.735 27.877,254.800 27.214 C 262.228 24.829,276.293 22.800,285.400 22.800 C 293.130 22.800,307.454 24.657,313.200 26.403 C 313.750 26.570,315.010 26.934,316.000 27.211 C 316.990 27.489,318.571 27.959,319.514 28.258 C 321.564 28.906,321.720 28.918,321.400 28.400 C 321.264 28.180,320.724 28.000,320.200 28.000 C 319.676 28.000,319.136 27.820,319.000 27.600 C 318.864 27.380,318.234 27.200,317.600 27.200 C 316.966 27.200,316.336 27.020,316.200 26.800 C 316.064 26.580,315.434 26.400,314.800 26.400 C 314.166 26.400,313.536 26.220,313.400 26.000 C 313.264 25.780,312.544 25.600,311.800 25.600 C 311.056 25.600,310.336 25.420,310.200 25.200 C 310.064 24.980,309.164 24.800,308.200 24.800 C 307.236 24.800,306.336 24.620,306.200 24.400 C 306.064 24.180,305.009 24.000,303.856 24.000 C 302.703 24.000,301.589 23.833,301.380 23.629 C 300.663 22.929,277.714 22.020,277.068 22.666 M249.400 28.400 C 249.108 28.873,249.499 28.873,250.600 28.400 C 251.371 28.069,251.369 28.055,250.524 28.028 C 250.042 28.013,249.536 28.180,249.400 28.400 M246.800 29.195 C 246.470 29.386,245.859 29.650,245.443 29.781 C 245.026 29.912,244.778 30.111,244.890 30.223 C 245.003 30.336,245.973 30.072,247.047 29.636 C 248.121 29.200,248.640 28.844,248.200 28.845 C 247.760 28.846,247.130 29.003,246.800 29.195 M324.600 30.000 C 325.701 30.473,326.092 30.473,325.800 30.000 C 325.664 29.780,325.158 29.613,324.676 29.628 C 323.831 29.655,323.829 29.669,324.600 30.000 M328.000 31.284 C 335.500 34.799,339.399 36.843,341.662 38.447 C 342.246 38.861,342.921 39.200,343.162 39.200 C 343.403 39.200,343.600 39.351,343.600 39.536 C 343.600 39.720,344.036 40.070,344.569 40.313 C 345.102 40.556,345.867 41.025,346.269 41.355 C 346.671 41.685,348.170 42.814,349.600 43.863 C 352.487 45.981,361.200 54.507,363.024 57.000 C 363.668 57.880,364.301 58.690,364.430 58.800 C 365.941 60.088,371.467 69.752,373.008 73.800 C 373.594 75.340,374.216 76.960,374.391 77.400 C 374.682 78.133,375.190 79.867,376.030 83.000 C 378.693 92.930,378.387 103.301,375.091 114.800 C 374.257 117.708,371.927 123.308,370.099 126.800 C 369.350 128.230,369.087 128.968,369.515 128.441 C 370.314 127.456,371.792 124.631,372.990 121.800 C 373.363 120.920,373.832 119.887,374.034 119.505 C 374.235 119.123,374.400 118.448,374.400 118.005 C 374.400 117.562,374.580 117.200,374.800 117.200 C 375.020 117.200,375.200 116.660,375.200 116.000 C 375.200 115.340,375.360 114.800,375.556 114.800 C 375.752 114.800,376.012 114.215,376.134 113.500 C 376.256 112.785,376.557 111.300,376.803 110.200 C 378.186 104.016,378.557 94.862,377.662 89.000 C 377.393 87.240,377.070 85.080,376.945 84.200 C 376.820 83.320,376.556 82.429,376.359 82.220 C 376.162 82.011,376.000 81.336,376.000 80.720 C 376.000 80.104,375.820 79.600,375.600 79.600 C 375.380 79.600,375.200 79.148,375.200 78.595 C 375.200 78.042,375.041 77.277,374.847 76.895 C 374.652 76.513,374.316 75.750,374.100 75.200 C 373.186 72.875,372.853 72.097,371.958 70.200 C 366.580 58.799,356.770 47.885,344.515 39.670 C 342.489 38.312,340.752 37.200,340.656 37.200 C 340.560 37.200,339.297 36.480,337.848 35.600 C 336.400 34.720,335.142 34.000,335.053 34.000 C 334.964 34.000,333.169 33.190,331.065 32.200 C 328.960 31.210,327.005 30.409,326.719 30.420 C 326.434 30.431,327.010 30.820,328.000 31.284 M240.800 31.611 C 240.470 31.811,238.940 32.581,237.400 33.323 C 232.329 35.765,223.488 41.095,222.400 42.366 C 222.219 42.577,219.869 44.431,217.800 45.993 C 210.876 51.223,197.572 69.176,197.604 73.246 C 197.607 73.551,198.415 72.180,199.401 70.200 C 203.342 62.283,206.526 57.886,213.198 51.148 C 217.868 46.431,227.858 38.400,229.056 38.400 C 229.177 38.400,229.810 38.020,230.462 37.556 C 231.114 37.092,234.112 35.477,237.124 33.967 C 240.136 32.458,242.330 31.228,242.000 31.235 C 241.670 31.242,241.130 31.411,240.800 31.611 M279.400 36.400 C 278.262 36.690,278.283 36.705,279.800 36.705 C 280.680 36.705,281.940 36.568,282.600 36.400 C 283.738 36.110,283.717 36.095,282.200 36.095 C 281.320 36.095,280.060 36.232,279.400 36.400 M286.600 36.400 C 287.260 36.568,288.610 36.706,289.600 36.707 L 291.400 36.708 289.800 36.377 C 288.920 36.195,287.570 36.057,286.800 36.070 L 285.400 36.095 286.600 36.400 M275.600 37.200 C 274.645 37.506,274.657 37.522,275.876 37.560 C 276.578 37.582,277.264 37.420,277.400 37.200 C 277.684 36.740,277.036 36.740,275.600 37.200 M292.200 37.200 C 292.336 37.420,292.788 37.600,293.205 37.600 C 294.375 37.600,301.248 40.652,301.533 41.298 C 301.607 41.464,301.830 41.600,302.029 41.600 C 303.535 41.600,308.914 46.865,311.845 51.209 C 316.570 58.211,318.254 69.692,315.800 78.161 C 314.736 81.834,314.603 82.579,315.190 81.575 C 317.183 78.169,318.053 66.552,316.685 61.600 C 313.286 49.293,305.360 40.690,294.427 37.445 C 291.866 36.685,291.883 36.686,292.200 37.200 M271.957 38.542 C 266.915 40.616,261.952 44.528,258.169 49.411 C 256.364 51.741,254.657 54.800,255.162 54.800 C 255.403 54.800,255.600 54.607,255.600 54.372 C 255.600 53.865,258.009 50.259,258.477 50.067 C 258.655 49.993,258.800 49.750,258.800 49.525 C 258.800 47.416,270.953 38.400,273.796 38.400 C 274.128 38.400,274.400 38.220,274.400 38.000 C 274.400 37.499,274.598 37.455,271.957 38.542 M253.465 58.700 C 251.864 66.820,260.466 74.100,268.285 71.242 C 271.411 70.099,272.646 69.026,275.073 65.341 C 279.736 58.261,288.054 56.911,292.101 62.578 C 296.105 68.183,294.783 75.211,289.172 78.149 C 281.970 81.920,276.545 88.357,274.463 95.600 C 274.179 96.590,273.778 97.953,273.573 98.628 C 272.866 100.957,273.119 108.790,273.977 111.137 C 276.652 118.455,284.602 121.034,291.105 116.693 C 293.190 115.301,296.013 110.800,294.800 110.800 C 294.580 110.800,294.400 111.072,294.400 111.405 C 294.400 115.289,287.460 119.039,282.295 117.946 C 279.401 117.334,276.020 115.300,275.991 114.153 C 275.986 113.959,275.630 113.350,275.200 112.800 C 274.770 112.250,274.414 111.406,274.409 110.924 C 274.404 110.442,274.220 109.936,274.000 109.800 C 273.767 109.656,273.600 107.404,273.600 104.400 C 273.600 101.396,273.767 99.144,274.000 99.000 C 274.220 98.864,274.400 98.133,274.400 97.376 C 274.400 96.619,274.580 96.000,274.800 96.000 C 275.020 96.000,275.200 95.638,275.200 95.195 C 275.200 94.752,275.357 94.077,275.550 93.695 C 275.742 93.313,276.251 92.280,276.680 91.400 C 277.588 89.537,278.512 87.885,278.805 87.600 C 278.919 87.490,279.784 86.462,280.729 85.316 C 282.612 83.033,286.448 79.977,288.740 78.936 C 290.435 78.166,293.200 75.676,293.200 74.919 C 293.200 74.633,293.380 74.400,293.600 74.400 C 293.820 74.400,294.000 74.040,294.000 73.600 C 294.000 73.160,294.180 72.800,294.400 72.800 C 294.635 72.800,294.800 71.413,294.800 69.438 C 294.800 63.864,292.349 60.634,286.772 58.855 C 285.008 58.293,282.532 58.263,282.200 58.800 C 282.064 59.020,281.547 59.200,281.052 59.200 C 280.556 59.200,279.802 59.524,279.375 59.920 C 278.949 60.316,278.302 60.754,277.938 60.893 C 277.223 61.166,274.800 64.470,274.800 65.172 C 274.800 65.407,274.620 65.600,274.400 65.600 C 274.180 65.600,274.000 65.849,274.000 66.153 C 274.000 67.390,269.335 70.800,267.643 70.800 C 267.206 70.800,266.736 70.980,266.600 71.200 C 266.087 72.030,263.120 71.579,259.800 70.166 C 258.284 69.521,254.800 66.065,254.800 65.206 C 254.800 64.851,254.628 64.388,254.418 64.178 C 254.208 63.968,253.983 62.267,253.918 60.398 C 253.811 57.323,253.768 57.161,253.465 58.700 M196.429 75.900 C 196.129 76.945,195.716 78.015,195.511 78.278 C 195.306 78.541,195.197 79.155,195.269 79.643 C 195.353 80.210,195.785 79.350,196.464 77.265 C 197.049 75.469,197.404 74.000,197.252 74.000 C 197.099 74.000,196.729 74.855,196.429 75.900 M194.667 81.067 C 194.520 81.213,194.400 81.923,194.400 82.643 C 194.400 83.363,194.220 84.064,194.000 84.200 C 193.780 84.336,193.600 85.326,193.600 86.400 C 193.600 87.474,193.420 88.464,193.200 88.600 C 192.954 88.752,192.800 92.063,192.800 97.200 C 192.800 102.337,192.954 105.648,193.200 105.800 C 193.420 105.936,193.600 106.926,193.600 108.000 C 193.600 109.074,193.780 110.064,194.000 110.200 C 194.220 110.336,194.400 110.979,194.400 111.629 C 194.400 112.279,194.562 113.123,194.761 113.505 C 194.960 113.887,195.351 115.010,195.631 116.000 C 195.910 116.990,196.288 117.971,196.470 118.180 C 196.931 118.711,196.884 118.341,196.260 116.550 C 195.514 114.408,194.165 108.762,193.594 105.400 C 193.047 102.173,193.279 90.262,193.956 86.800 C 194.193 85.590,194.554 83.790,194.759 82.800 C 195.142 80.942,195.125 80.609,194.667 81.067 M313.747 83.868 C 312.228 87.095,306.452 94.400,305.419 94.400 C 305.307 94.400,304.268 95.119,303.108 95.998 C 301.949 96.877,300.861 97.597,300.692 97.598 C 298.997 97.608,295.978 101.072,296.018 102.961 C 296.028 103.480,296.250 103.189,296.599 102.200 C 297.110 100.747,299.277 98.400,300.107 98.400 C 300.711 98.400,305.353 95.083,307.356 93.220 C 310.330 90.453,315.320 83.186,314.683 82.549 C 314.565 82.431,314.144 83.025,313.747 83.868 M295.420 107.318 C 295.245 108.813,295.200 110.133,295.318 110.252 C 295.611 110.544,296.122 106.295,295.908 105.353 C 295.813 104.939,295.594 105.823,295.420 107.318 M196.828 119.239 C 196.796 119.966,197.997 122.537,198.250 122.283 C 198.342 122.192,198.066 121.325,197.637 120.358 C 197.208 119.391,196.844 118.887,196.828 119.239 M198.400 123.010 C 198.400 123.970,204.521 134.352,205.587 135.200 C 205.725 135.310,206.277 136.030,206.814 136.800 C 207.350 137.570,208.512 138.940,209.395 139.844 C 210.278 140.749,211.630 142.200,212.400 143.068 C 213.170 143.937,215.510 146.142,217.600 147.969 C 219.690 149.795,221.667 151.720,221.993 152.245 C 222.319 152.770,222.724 153.200,222.893 153.200 C 223.062 153.200,223.200 153.549,223.200 153.976 C 223.200 154.403,223.380 154.864,223.600 155.000 C 224.104 155.312,224.134 163.702,223.632 164.220 C 223.430 164.429,223.168 165.770,223.050 167.200 C 222.932 168.630,222.647 171.105,222.418 172.700 C 221.295 180.495,220.924 183.153,220.057 189.600 C 219.835 191.250,219.531 193.003,219.381 193.495 C 218.948 194.920,220.130 195.019,222.078 193.722 C 223.025 193.092,224.295 192.326,224.900 192.020 C 225.505 191.715,226.000 191.315,226.000 191.132 C 226.000 190.950,226.193 190.800,226.428 190.800 C 226.663 190.800,227.641 190.260,228.600 189.600 C 229.559 188.940,230.451 188.400,230.581 188.400 C 230.712 188.400,232.178 187.500,233.839 186.400 C 235.500 185.300,236.945 184.400,237.051 184.400 C 237.253 184.400,241.885 181.528,246.495 178.544 C 247.978 177.585,249.373 176.800,249.595 176.800 C 249.818 176.800,250.000 176.620,250.000 176.400 C 250.000 176.180,250.236 176.000,250.525 176.000 C 250.813 176.000,251.407 175.685,251.845 175.300 C 252.283 174.915,252.992 174.403,253.420 174.162 C 253.849 173.922,254.650 173.472,255.200 173.162 C 255.750 172.853,256.290 172.508,256.400 172.395 C 256.604 172.185,259.395 170.837,261.200 170.076 C 261.750 169.844,261.930 169.644,261.600 169.631 C 260.639 169.594,257.150 171.351,252.982 173.971 C 250.856 175.307,249.038 176.400,248.941 176.400 C 248.845 176.400,248.549 176.584,248.283 176.808 C 247.312 177.628,242.762 180.400,242.387 180.400 C 242.174 180.400,242.000 180.580,242.000 180.800 C 242.000 181.020,241.817 181.200,241.594 181.200 C 241.370 181.200,240.245 181.807,239.094 182.548 C 230.105 188.337,220.429 194.168,220.205 193.932 C 220.079 193.799,220.534 189.682,221.225 184.700 C 221.431 183.215,221.769 180.785,221.975 179.300 C 222.418 176.107,223.119 171.150,223.602 167.800 C 225.275 156.184,224.779 153.536,220.200 149.638 C 210.821 141.653,203.709 133.101,199.961 125.300 C 198.894 123.081,198.400 122.356,198.400 123.010 M279.413 128.935 C 277.183 130.151,275.118 132.312,274.083 134.513 C 272.799 137.244,272.761 148.103,274.024 151.067 C 277.880 160.114,290.261 160.431,294.849 151.600 C 295.868 149.638,296.466 139.711,295.735 136.888 C 295.518 136.051,295.400 138.040,295.400 142.524 C 295.400 151.111,294.097 154.305,289.759 156.347 C 289.122 156.648,288.287 157.052,287.905 157.247 C 287.523 157.441,286.036 157.600,284.600 157.600 C 283.164 157.600,281.677 157.441,281.295 157.247 C 280.913 157.052,280.131 156.676,279.559 156.410 C 278.142 155.754,275.498 153.136,274.843 151.741 C 274.548 151.113,274.148 150.287,273.953 149.905 C 273.128 148.283,273.537 136.599,274.484 134.738 C 275.536 132.672,279.014 129.200,280.033 129.200 C 280.429 129.200,280.864 129.020,281.000 128.800 C 282.378 126.570,293.600 130.368,293.600 133.064 C 293.600 133.359,293.759 133.600,293.953 133.600 C 294.148 133.600,294.411 133.997,294.537 134.483 C 294.664 134.968,294.892 135.242,295.043 135.091 C 295.371 134.762,293.734 132.222,292.234 130.735 C 289.401 127.925,282.933 127.017,279.413 128.935 M366.618 132.457 C 355.771 148.768,334.833 162.642,313.200 167.851 C 311.550 168.248,310.493 168.633,310.851 168.706 C 311.900 168.921,322.715 165.738,326.400 164.129 C 327.170 163.793,328.160 163.378,328.600 163.207 C 330.476 162.477,336.611 159.382,336.733 159.104 C 336.807 158.937,337.197 158.800,337.600 158.800 C 338.003 158.800,338.393 158.665,338.467 158.500 C 338.634 158.124,340.764 156.825,341.700 156.529 C 342.085 156.407,342.400 156.148,342.400 155.953 C 342.400 155.759,342.636 155.600,342.925 155.600 C 343.213 155.600,343.798 155.276,344.225 154.880 C 344.651 154.484,345.270 154.031,345.600 153.873 C 346.182 153.595,346.631 153.266,351.238 149.750 C 353.834 147.768,361.066 140.660,362.658 138.526 C 363.284 137.687,363.906 136.910,364.040 136.800 C 364.623 136.324,368.862 129.928,368.701 129.768 C 368.604 129.670,367.666 130.880,366.618 132.457 M89.600 158.000 C 88.836 158.494,89.658 158.494,91.200 158.000 L 92.200 157.680 91.200 157.646 C 90.650 157.627,89.930 157.787,89.600 158.000 M101.600 158.000 C 103.142 158.494,103.964 158.494,103.200 158.000 C 102.870 157.787,102.150 157.627,101.600 157.646 L 100.600 157.680 101.600 158.000 M76.000 163.233 L 75.000 164.048 76.300 163.414 C 77.015 163.065,77.600 162.694,77.600 162.590 C 77.600 162.192,76.963 162.448,76.000 163.233 M116.800 163.324 C 116.800 163.417,117.565 163.998,118.500 164.615 C 119.435 165.232,119.989 165.480,119.731 165.168 C 119.234 164.567,116.800 163.036,116.800 163.324 M73.188 165.108 C 70.817 166.930,67.641 170.071,66.040 172.180 C 64.209 174.591,63.035 176.400,63.301 176.400 C 63.407 176.400,63.995 175.635,64.607 174.700 C 67.017 171.020,71.601 166.359,74.287 164.855 C 74.676 164.638,74.899 164.366,74.784 164.251 C 74.670 164.136,73.951 164.522,73.188 165.108 M120.448 165.822 C 120.475 166.030,121.780 167.370,123.348 168.800 C 125.585 170.840,125.895 170.708,123.776 168.618 C 121.853 166.720,120.408 165.507,120.448 165.822 M307.200 169.200 C 306.220 169.514,306.224 169.521,307.400 169.554 C 308.060 169.573,308.870 169.413,309.200 169.200 C 309.958 168.710,308.730 168.710,307.200 169.200 M265.600 170.000 C 265.930 170.213,267.010 170.370,268.000 170.348 L 269.800 170.308 268.200 169.977 C 265.873 169.496,264.834 169.505,265.600 170.000 M302.400 170.000 L 301.000 170.295 302.600 170.319 C 303.480 170.333,304.560 170.189,305.000 170.000 C 306.042 169.552,304.526 169.552,302.400 170.000 M271.209 170.814 C 271.748 171.155,278.752 171.391,278.367 171.055 C 278.275 170.975,276.494 170.804,274.409 170.675 C 271.995 170.525,270.832 170.576,271.209 170.814 M295.200 170.800 L 292.200 171.056 295.600 171.122 C 297.470 171.158,299.270 171.013,299.600 170.800 C 300.269 170.368,300.266 170.368,295.200 170.800 M281.400 171.623 C 282.280 171.805,284.080 171.954,285.400 171.954 C 286.720 171.954,288.520 171.805,289.400 171.623 C 290.536 171.388,289.377 171.292,285.400 171.292 C 281.423 171.292,280.264 171.388,281.400 171.623 M128.281 174.589 C 129.092 175.793,129.823 176.710,129.906 176.627 C 130.119 176.414,127.464 172.416,127.103 172.407 C 126.940 172.403,127.470 173.385,128.281 174.589 M62.200 178.000 C 61.859 178.660,61.669 179.200,61.779 179.200 C 61.889 179.200,62.259 178.660,62.600 178.000 C 62.941 177.340,63.131 176.800,63.021 176.800 C 62.911 176.800,62.541 177.340,62.200 178.000 M130.946 179.100 C 131.473 180.145,132.309 182.260,132.802 183.800 C 133.971 187.450,134.455 188.601,134.150 187.000 C 133.614 184.196,130.785 177.200,130.187 177.200 C 130.077 177.200,130.418 178.055,130.946 179.100 M134.476 189.800 C 134.460 190.680,134.595 192.120,134.777 193.000 C 135.230 195.188,135.261 193.044,134.818 190.200 C 134.513 188.241,134.506 188.233,134.476 189.800 M57.843 191.833 C 57.517 192.682,57.585 199.622,57.928 200.485 C 58.078 200.862,58.200 198.927,58.200 196.185 C 58.200 193.443,58.174 191.200,58.143 191.200 C 58.111 191.200,57.976 191.485,57.843 191.833 M134.600 200.400 C 134.443 201.966,134.404 203.337,134.514 203.447 C 134.624 203.557,134.843 202.366,135.000 200.800 C 135.157 199.234,135.196 197.863,135.086 197.753 C 134.976 197.643,134.757 198.834,134.600 200.400 M58.412 204.000 C 58.412 204.330,58.587 204.870,58.800 205.200 C 59.145 205.733,59.188 205.733,59.188 205.200 C 59.188 204.870,59.013 204.330,58.800 204.000 C 58.455 203.467,58.412 203.467,58.412 204.000 M133.799 205.300 C 133.478 206.882,132.009 211.247,131.612 211.800 C 131.208 212.361,130.789 213.600,131.003 213.600 C 131.250 213.600,132.664 210.439,133.353 208.345 C 134.075 206.151,134.526 204.000,134.264 204.000 C 134.154 204.000,133.945 204.585,133.799 205.300 M62.186 214.300 C 62.535 215.015,62.906 215.600,63.010 215.600 C 63.408 215.600,63.152 214.963,62.367 214.000 L 61.552 213.000 62.186 214.300 M129.853 215.300 L 129.133 216.600 129.958 215.600 C 130.689 214.713,131.014 214.000,130.686 214.000 C 130.624 214.000,130.249 214.585,129.853 215.300 M63.877 217.231 C 64.275 217.908,64.856 218.673,65.168 218.931 C 65.480 219.189,65.232 218.635,64.615 217.700 C 63.320 215.737,62.809 215.412,63.877 217.231 M128.245 217.788 C 127.880 218.344,127.722 218.800,127.895 218.800 C 128.284 218.800,129.319 217.186,129.082 216.949 C 128.986 216.853,128.610 217.231,128.245 217.788 M124.322 222.510 C 122.629 224.307,121.292 225.826,121.351 225.885 C 121.506 226.039,126.280 221.168,127.021 220.100 C 128.025 218.653,127.583 219.047,124.322 222.510 M67.183 221.480 C 68.095 222.624,69.776 224.305,70.920 225.217 L 73.000 226.875 71.058 225.079 C 69.990 224.091,68.309 222.410,67.321 221.342 L 65.525 219.400 67.183 221.480 M117.826 228.038 C 116.300 229.117,115.185 230.000,115.348 230.000 C 115.761 230.000,120.295 226.893,120.599 226.402 C 120.950 225.834,120.907 225.859,117.826 228.038 M73.200 227.095 C 73.200 227.484,74.814 228.519,75.051 228.282 C 75.147 228.186,74.769 227.810,74.212 227.445 C 73.656 227.080,73.200 226.922,73.200 227.095 M77.000 229.719 C 79.473 231.124,82.009 232.252,84.634 233.114 C 87.248 233.972,91.183 234.668,89.800 234.027 C 89.360 233.823,88.625 233.644,88.166 233.628 C 86.729 233.580,82.328 232.003,79.071 230.369 C 75.641 228.649,74.472 228.282,77.000 229.719 M113.200 230.800 C 112.430 231.222,111.944 231.574,112.120 231.583 C 112.544 231.605,114.800 230.432,114.800 230.190 C 114.800 229.928,114.777 229.937,113.200 230.800 M108.876 232.470 C 107.487 232.918,106.424 233.358,106.514 233.447 C 106.727 233.660,110.887 232.365,111.380 231.933 C 111.869 231.505,111.858 231.507,108.876 232.470 M103.200 234.000 C 101.856 234.431,103.308 234.431,105.000 234.000 C 106.078 233.726,106.098 233.694,105.200 233.687 C 104.650 233.683,103.750 233.824,103.200 234.000 M93.500 234.697 C 95.095 234.773,97.705 234.773,99.300 234.697 C 100.895 234.621,99.590 234.559,96.400 234.559 C 93.210 234.559,91.905 234.621,93.500 234.697 M35.775 306.500 L 34.600 307.800 35.900 306.625 C 37.112 305.530,37.384 305.200,37.075 305.200 C 37.006 305.200,36.421 305.785,35.775 306.500 M32.175 310.100 L 31.000 311.400 32.300 310.225 C 33.512 309.130,33.784 308.800,33.475 308.800 C 33.406 308.800,32.821 309.385,32.175 310.100 M22.534 333.200 C 22.534 334.850,22.605 335.525,22.691 334.700 C 22.778 333.875,22.778 332.525,22.691 331.700 C 22.605 330.875,22.534 331.550,22.534 333.200 M95.705 359.487 C 96.314 359.579,97.214 359.577,97.705 359.482 C 98.197 359.387,97.700 359.311,96.600 359.314 C 95.500 359.317,95.097 359.395,95.705 359.487 M22.741 378.101 C 22.907 378.267,56.243 378.357,96.821 378.301 L 170.600 378.200 96.520 378.000 C 55.776 377.890,22.575 377.935,22.741 378.101 " stroke="none" fill="#607d86" fill-rule="evenodd"></path></g></svg>