<svg id="svg" version="1.1" xmlns="http://www.w3.org/2000/svg" xmlns:xlink="http://www.w3.org/1999/xlink" width="400" height="400" viewBox="0, 0, 400,400"><g id="svgg"><path id="path0" d="M199.189 25.082 C 197.888 25.978,190.370 31.501,189.600 32.125 C 189.270 32.392,188.370 33.054,187.600 33.595 C 186.830 34.136,186.020 34.722,185.800 34.898 C 185.580 35.073,182.700 37.194,179.400 39.611 C 176.100 42.028,172.860 44.445,172.200 44.981 L 171.000 45.957 190.600 45.985 C 212.665 46.015,213.250 46.093,216.118 49.349 C 222.134 56.178,219.079 65.909,210.154 68.350 C 208.993 68.667,198.352 68.800,174.084 68.800 L 139.662 68.800 133.881 73.100 C 130.702 75.465,125.987 78.930,123.404 80.800 C 120.822 82.670,118.504 84.386,118.254 84.613 C 118.004 84.840,117.170 85.466,116.400 86.002 C 115.630 86.539,114.820 87.122,114.600 87.298 C 114.380 87.474,112.370 88.958,110.133 90.595 C 107.895 92.232,105.950 93.757,105.809 93.985 C 105.634 94.269,110.313 94.400,120.581 94.400 C 135.115 94.400,135.671 94.428,137.504 95.262 C 144.940 98.642,146.848 107.978,141.278 113.725 C 139.905 115.142,139.272 115.524,136.281 116.744 C 135.477 117.072,126.550 117.200,104.543 117.200 L 73.923 117.200 72.662 118.094 C 71.968 118.586,71.130 119.208,70.800 119.476 C 70.014 120.114,61.335 126.495,55.398 130.800 C 52.819 132.670,50.504 134.380,50.254 134.601 C 50.004 134.821,49.139 135.445,48.330 135.988 C 47.522 136.530,46.947 137.115,47.054 137.287 C 47.301 137.688,353.491 137.701,353.737 137.300 C 353.838 137.135,352.454 135.902,350.661 134.559 C 345.346 130.581,335.108 123.048,333.600 122.006 C 332.830 121.474,332.110 120.931,332.000 120.800 C 331.890 120.669,331.170 120.128,330.400 119.599 C 329.630 119.069,326.300 116.637,323.000 114.195 C 319.700 111.752,315.406 108.594,313.457 107.177 C 311.508 105.760,306.622 102.170,302.600 99.200 C 298.577 96.230,293.904 92.810,292.216 91.600 C 290.528 90.390,287.944 88.494,286.473 87.386 C 285.003 86.278,282.180 84.209,280.200 82.787 C 278.220 81.366,276.396 80.022,276.147 79.801 C 275.898 79.581,273.223 77.600,270.203 75.400 C 267.183 73.200,262.159 69.510,259.038 67.200 C 255.917 64.890,251.505 61.650,249.232 60.000 C 246.960 58.350,241.748 54.533,237.650 51.517 C 233.553 48.501,228.940 45.114,227.400 43.990 C 223.956 41.477,212.349 32.922,211.800 32.492 C 211.580 32.319,210.770 31.736,210.000 31.195 C 209.230 30.654,208.330 29.995,208.000 29.730 C 202.071 24.970,200.530 24.157,199.189 25.082 M84.428 166.500 C 84.444 170.075,84.582 173.318,84.736 173.706 C 84.889 174.095,84.946 171.260,84.862 167.406 L 84.709 160.400 115.921 160.400 C 140.517 160.400,147.176 160.506,147.335 160.900 C 147.456 161.199,147.550 161.118,147.568 160.700 C 147.598 160.039,145.841 160.000,116.000 160.000 L 84.400 160.000 84.428 166.500 M261.069 160.264 C 260.602 160.731,260.766 172.680,261.256 173.881 C 262.487 176.900,262.861 177.529,264.276 178.962 C 265.792 180.497,268.455 181.999,269.600 181.964 C 269.930 181.954,269.750 181.754,269.200 181.519 C 268.650 181.284,267.660 180.858,267.000 180.572 C 262.828 178.766,261.200 174.683,261.200 166.023 L 261.200 160.400 292.600 160.400 L 324.000 160.400 324.000 165.769 C 324.000 175.690,321.964 179.704,316.070 181.405 C 315.558 181.552,315.231 181.765,315.343 181.876 C 315.847 182.380,318.730 180.924,320.491 179.276 C 323.777 176.202,324.482 173.758,324.321 166.000 L 324.200 160.200 292.769 160.098 C 275.482 160.041,261.217 160.116,261.069 160.264 M147.036 172.816 C 146.627 175.894,144.969 178.394,141.934 180.507 C 141.420 180.865,141.193 181.167,141.428 181.179 C 142.201 181.217,145.185 178.368,146.217 176.607 C 147.105 175.093,148.058 170.800,147.507 170.800 C 147.395 170.800,147.183 171.707,147.036 172.816 M85.218 175.022 C 85.185 175.806,87.497 179.073,88.652 179.873 C 90.144 180.908,91.299 181.455,90.013 180.519 C 88.439 179.372,86.779 177.513,85.977 176.000 C 85.569 175.230,85.227 174.790,85.218 175.022 M91.600 181.600 C 91.930 181.813,92.470 181.988,92.800 181.988 C 93.333 181.988,93.333 181.945,92.800 181.600 C 92.470 181.387,91.930 181.212,91.600 181.212 C 91.067 181.212,91.067 181.255,91.600 181.600 M139.200 181.600 C 138.667 181.945,138.667 181.988,139.200 181.988 C 139.530 181.988,140.070 181.813,140.400 181.600 C 140.933 181.255,140.933 181.212,140.400 181.212 C 140.070 181.212,139.530 181.387,139.200 181.600 M92.400 310.481 C 91.850 310.716,90.860 311.142,90.200 311.428 C 88.345 312.231,85.172 315.961,85.218 317.286 C 85.227 317.569,85.577 317.170,85.994 316.400 C 87.482 313.654,89.104 312.259,92.063 311.177 C 94.698 310.214,136.846 309.957,139.572 310.887 C 143.278 312.152,145.987 314.992,146.998 318.671 C 147.344 319.930,147.538 320.253,147.555 319.600 C 147.625 317.030,144.400 312.558,141.600 311.341 C 140.830 311.007,139.887 310.568,139.505 310.366 C 138.490 309.831,93.667 309.940,92.400 310.481 M269.400 310.400 C 269.264 310.620,268.713 310.800,268.176 310.800 C 267.639 310.800,267.200 310.980,267.200 311.200 C 267.200 311.420,266.952 311.600,266.648 311.600 C 266.345 311.600,265.371 312.304,264.483 313.165 C 262.999 314.606,262.544 315.361,261.256 318.519 C 260.749 319.763,260.607 332.000,261.100 332.001 C 261.265 332.001,261.341 329.616,261.268 326.701 C 261.081 319.201,261.694 316.782,264.572 313.674 C 265.712 312.442,266.333 312.074,269.319 310.856 C 270.952 310.190,313.998 310.215,315.972 310.883 C 319.948 312.229,322.544 315.142,323.424 319.247 C 324.141 322.591,324.195 331.455,323.500 331.735 C 323.201 331.856,323.282 331.950,323.700 331.968 C 324.574 332.008,324.704 321.831,323.869 318.800 C 322.896 315.272,320.736 312.526,318.000 311.340 C 317.230 311.006,316.287 310.568,315.905 310.366 C 314.926 309.850,269.720 309.882,269.400 310.400 M84.643 318.633 C 84.291 319.550,84.344 332.000,84.700 331.999 C 84.865 331.998,85.000 328.848,85.000 324.999 C 85.000 321.149,84.974 318.000,84.943 318.000 C 84.911 318.000,84.776 318.285,84.643 318.633 " stroke="none" fill="#53abe3" fill-rule="evenodd"></path><path id="path1" d="M198.000 0.800 C 197.670 1.013,196.545 1.191,195.500 1.194 C 194.455 1.197,193.600 1.380,193.600 1.600 C 193.600 1.820,193.161 2.000,192.624 2.000 C 192.087 2.000,191.536 2.180,191.400 2.400 C 191.264 2.620,190.803 2.800,190.376 2.800 C 189.949 2.800,189.600 2.980,189.600 3.200 C 189.600 3.420,189.280 3.600,188.888 3.600 C 188.497 3.600,187.917 3.960,187.600 4.400 C 187.283 4.840,186.775 5.200,186.472 5.200 C 186.169 5.200,185.417 5.740,184.800 6.400 C 184.183 7.060,183.391 7.600,183.040 7.600 C 182.688 7.600,182.400 7.735,182.399 7.900 C 182.399 8.065,181.319 8.920,180.000 9.800 C 178.681 10.680,177.601 11.535,177.601 11.700 C 177.600 11.865,177.412 12.000,177.182 12.000 C 176.952 12.000,176.314 12.450,175.764 13.000 C 175.214 13.550,174.600 14.000,174.400 14.000 C 174.200 14.000,173.586 14.450,173.036 15.000 C 172.486 15.550,171.830 16.000,171.579 16.000 C 171.327 16.000,170.617 16.540,170.000 17.200 C 169.383 17.860,168.663 18.400,168.400 18.400 C 168.137 18.400,167.417 18.940,166.800 19.600 C 166.183 20.260,165.480 20.800,165.236 20.800 C 164.992 20.800,164.228 21.340,163.537 22.000 C 162.846 22.660,162.078 23.200,161.829 23.200 C 161.580 23.200,161.117 23.560,160.800 24.000 C 160.483 24.440,160.076 24.800,159.895 24.800 C 159.714 24.800,159.349 24.983,159.083 25.207 C 157.251 26.753,156.639 27.200,156.357 27.200 C 156.181 27.200,155.586 27.650,155.036 28.200 C 154.486 28.750,153.847 29.200,153.615 29.200 C 153.383 29.200,152.628 29.740,151.937 30.400 C 151.246 31.060,150.478 31.600,150.229 31.600 C 149.980 31.600,149.517 31.960,149.200 32.400 C 148.883 32.840,148.393 33.200,148.112 33.200 C 147.830 33.200,147.600 33.380,147.600 33.600 C 147.600 33.820,147.370 34.000,147.088 34.000 C 146.807 34.000,146.317 34.360,146.000 34.800 C 145.683 35.240,145.193 35.600,144.912 35.600 C 144.630 35.600,144.400 35.780,144.400 36.000 C 144.400 36.220,144.170 36.400,143.888 36.400 C 143.607 36.400,143.117 36.760,142.800 37.200 C 142.483 37.640,142.065 38.000,141.872 38.000 C 141.679 38.000,141.017 38.540,140.400 39.200 C 139.783 39.860,139.057 40.400,138.786 40.400 C 138.516 40.400,138.003 40.733,137.647 41.141 C 137.291 41.548,136.379 42.202,135.620 42.593 C 134.860 42.984,133.992 43.550,133.691 43.852 C 133.390 44.153,132.984 44.400,132.790 44.400 C 132.595 44.400,131.986 44.850,131.436 45.400 C 130.886 45.950,130.275 46.400,130.078 46.400 C 129.880 46.400,129.154 46.940,128.463 47.600 C 127.772 48.260,127.114 48.800,127.000 48.800 C 126.886 48.800,126.228 49.340,125.537 50.000 C 124.846 50.660,124.078 51.200,123.829 51.200 C 123.580 51.200,123.117 51.560,122.800 52.000 C 122.483 52.440,122.020 52.800,121.771 52.800 C 121.522 52.800,120.754 53.340,120.063 54.000 C 119.372 54.660,118.525 55.200,118.180 55.200 C 117.835 55.200,117.664 55.380,117.800 55.600 C 117.936 55.820,117.806 56.000,117.512 56.000 C 117.217 56.000,116.717 56.360,116.400 56.800 C 116.083 57.240,115.503 57.600,115.112 57.600 C 114.720 57.600,114.400 57.735,114.399 57.900 C 114.399 58.065,113.319 58.920,112.000 59.800 C 110.681 60.680,109.601 61.535,109.601 61.700 C 109.600 61.865,109.370 62.000,109.088 62.000 C 108.807 62.000,108.317 62.360,108.000 62.800 C 107.683 63.240,107.220 63.600,106.971 63.600 C 106.722 63.600,105.954 64.140,105.263 64.800 C 104.572 65.460,103.808 66.000,103.564 66.000 C 103.320 66.000,102.617 66.540,102.000 67.200 C 101.383 67.860,100.680 68.400,100.436 68.400 C 100.192 68.400,99.428 68.940,98.737 69.600 C 98.046 70.260,97.278 70.800,97.029 70.800 C 96.780 70.800,96.317 71.160,96.000 71.600 C 95.683 72.040,95.183 72.400,94.888 72.400 C 94.594 72.400,94.464 72.580,94.600 72.800 C 94.736 73.020,94.516 73.200,94.112 73.200 C 93.707 73.200,93.117 73.560,92.800 74.000 C 92.483 74.440,92.076 74.800,91.895 74.800 C 91.714 74.800,91.349 74.983,91.083 75.207 C 89.251 76.753,88.639 77.200,88.357 77.200 C 88.181 77.200,87.586 77.650,87.036 78.200 C 86.486 78.750,85.847 79.200,85.615 79.200 C 85.383 79.200,84.628 79.740,83.937 80.400 C 83.246 81.060,82.478 81.600,82.229 81.600 C 81.980 81.600,81.517 81.960,81.200 82.400 C 80.883 82.840,80.393 83.200,80.112 83.200 C 79.830 83.200,79.600 83.380,79.600 83.600 C 79.600 83.820,79.370 84.000,79.088 84.000 C 78.807 84.000,78.317 84.360,78.000 84.800 C 77.683 85.240,77.265 85.600,77.072 85.600 C 76.879 85.600,76.217 86.140,75.600 86.800 C 74.983 87.460,74.280 88.000,74.036 88.000 C 73.792 88.000,73.028 88.540,72.337 89.200 C 71.646 89.860,70.904 90.400,70.688 90.400 C 70.471 90.400,70.003 90.734,69.647 91.143 C 69.291 91.551,68.640 92.000,68.200 92.140 C 67.760 92.281,66.877 92.846,66.238 93.398 C 65.599 93.949,64.932 94.400,64.756 94.400 C 64.580 94.400,63.986 94.850,63.436 95.400 C 62.886 95.950,62.293 96.401,62.118 96.402 C 61.943 96.403,61.225 96.943,60.522 97.602 C 59.819 98.261,59.142 98.800,59.018 98.800 C 58.894 98.800,58.228 99.340,57.537 100.000 C 56.846 100.660,56.078 101.200,55.829 101.200 C 55.580 101.200,55.117 101.560,54.800 102.000 C 54.483 102.440,54.020 102.800,53.771 102.800 C 53.522 102.800,52.754 103.340,52.063 104.000 C 51.372 104.660,50.608 105.200,50.364 105.200 C 50.120 105.200,49.417 105.740,48.800 106.400 C 48.183 107.060,47.406 107.600,47.073 107.600 C 46.739 107.600,46.407 107.752,46.333 107.938 C 46.260 108.124,45.255 108.951,44.100 109.776 C 42.945 110.600,42.000 111.449,42.000 111.661 C 42.000 111.873,41.832 111.943,41.626 111.816 C 41.420 111.689,40.798 112.038,40.244 112.592 C 39.690 113.147,39.048 113.600,38.818 113.600 C 38.588 113.600,38.400 113.780,38.400 114.000 C 38.400 114.220,38.170 114.400,37.888 114.400 C 37.607 114.400,37.117 114.760,36.800 115.200 C 36.483 115.640,35.975 116.000,35.672 116.000 C 35.369 116.000,34.617 116.540,34.000 117.200 C 33.383 117.860,32.674 118.400,32.422 118.400 C 31.594 118.400,25.674 124.739,25.151 126.186 C 24.869 126.964,24.495 127.600,24.320 127.600 C 24.144 127.600,24.000 127.949,24.000 128.376 C 24.000 128.803,23.820 129.264,23.600 129.400 C 23.380 129.536,23.200 130.166,23.200 130.800 C 23.200 131.434,23.020 132.064,22.800 132.200 C 22.565 132.345,22.400 134.671,22.400 137.824 C 22.400 141.141,22.553 143.200,22.800 143.200 C 23.020 143.200,23.200 143.729,23.200 144.376 C 23.200 145.023,23.380 145.664,23.600 145.800 C 23.820 145.936,24.000 146.487,24.000 147.024 C 24.000 147.561,24.180 148.000,24.400 148.000 C 24.620 148.000,24.800 148.274,24.800 148.608 C 24.800 150.356,30.616 156.898,32.868 157.684 C 33.491 157.901,34.000 158.241,34.000 158.439 C 34.000 158.638,34.349 158.800,34.776 158.800 C 35.203 158.800,35.664 158.980,35.800 159.200 C 35.936 159.420,36.487 159.600,37.024 159.600 C 37.561 159.600,38.000 159.780,38.000 160.000 C 38.000 160.220,38.709 160.400,39.576 160.400 C 40.443 160.400,41.264 160.580,41.400 160.800 C 41.554 161.049,45.337 161.200,51.424 161.200 L 61.200 161.200 61.200 169.072 C 61.200 173.401,61.370 177.496,61.578 178.172 C 61.786 178.847,62.371 180.794,62.878 182.498 C 63.385 184.202,63.935 185.597,64.100 185.598 C 64.265 185.599,64.400 185.960,64.400 186.400 C 64.400 186.840,64.536 187.200,64.702 187.200 C 64.869 187.200,65.241 187.735,65.530 188.388 C 65.820 189.041,66.584 190.140,67.228 190.830 C 67.873 191.520,68.400 192.254,68.400 192.462 C 68.400 193.150,74.045 198.419,74.489 198.145 C 74.728 197.997,74.812 198.057,74.675 198.278 C 74.539 198.499,74.871 198.917,75.414 199.207 C 75.956 199.498,76.400 199.885,76.400 200.068 C 76.400 200.250,76.670 200.400,77.000 200.400 C 77.330 200.400,77.600 200.580,77.600 200.800 C 77.600 201.020,77.960 201.200,78.400 201.200 C 78.840 201.200,79.200 201.380,79.200 201.600 C 79.200 201.820,79.483 202.000,79.829 202.000 C 81.661 202.000,81.600 200.468,81.600 246.200 C 81.600 291.932,81.661 290.400,79.829 290.400 C 79.483 290.400,79.198 290.535,79.195 290.700 C 79.193 290.865,78.479 291.341,77.609 291.758 C 76.739 292.175,75.706 292.810,75.313 293.169 C 74.921 293.528,73.970 294.259,73.200 294.793 C 71.602 295.902,69.200 298.379,69.200 298.918 C 69.200 299.116,68.660 299.783,68.000 300.400 C 67.340 301.017,66.800 301.726,66.800 301.977 C 66.800 302.228,66.440 302.820,66.000 303.292 C 65.560 303.764,65.200 304.387,65.200 304.675 C 65.200 304.964,65.020 305.200,64.800 305.200 C 64.580 305.200,64.400 305.560,64.400 306.000 C 64.400 306.440,64.220 306.800,64.000 306.800 C 63.780 306.800,63.600 307.340,63.600 308.000 C 63.600 308.660,63.420 309.200,63.200 309.200 C 62.980 309.200,62.800 309.639,62.800 310.176 C 62.800 310.713,62.620 311.264,62.400 311.400 C 62.180 311.536,62.000 312.357,62.000 313.224 C 62.000 314.091,61.820 314.800,61.600 314.800 C 61.347 314.800,61.200 317.733,61.200 322.800 L 61.200 330.800 50.024 330.800 C 43.004 330.800,38.755 330.949,38.600 331.200 C 38.464 331.420,37.654 331.600,36.800 331.600 C 35.946 331.600,35.136 331.780,35.000 332.000 C 34.864 332.220,34.481 332.400,34.149 332.400 C 33.170 332.400,28.805 337.073,28.539 338.407 C 28.407 339.063,28.143 339.600,27.950 339.600 C 27.758 339.600,27.600 341.310,27.600 343.400 C 27.600 345.667,27.761 347.200,28.000 347.200 C 28.220 347.200,28.400 347.616,28.400 348.125 C 28.400 348.633,28.716 349.398,29.103 349.825 C 29.490 350.251,30.124 351.095,30.512 351.700 C 30.901 352.305,31.445 352.800,31.721 352.800 C 31.997 352.800,32.483 353.160,32.800 353.600 C 33.117 354.040,33.697 354.400,34.088 354.400 C 34.480 354.400,34.800 354.580,34.800 354.800 C 34.800 355.020,35.484 355.200,36.320 355.200 C 37.156 355.200,38.020 355.380,38.241 355.601 C 39.258 356.618,366.000 355.777,366.000 354.758 C 366.000 354.561,366.282 354.400,366.626 354.400 C 367.443 354.400,371.244 350.543,371.947 349.000 C 372.247 348.340,372.652 347.487,372.847 347.105 C 373.333 346.150,373.294 340.105,372.800 339.800 C 372.580 339.664,372.400 339.203,372.400 338.776 C 372.400 338.349,372.220 338.000,372.000 338.000 C 371.780 338.000,371.600 337.725,371.600 337.389 C 371.600 335.672,366.122 331.600,363.811 331.600 C 363.061 331.600,362.336 331.420,362.200 331.200 C 362.050 330.957,359.063 330.800,354.576 330.800 L 347.200 330.800 347.200 322.600 C 347.200 317.400,347.054 314.400,346.800 314.400 C 346.580 314.400,346.400 313.680,346.400 312.800 C 346.400 311.920,346.220 311.200,346.000 311.200 C 345.780 311.200,345.600 310.761,345.600 310.224 C 345.600 309.687,345.420 309.136,345.200 309.000 C 344.980 308.864,344.800 308.313,344.800 307.776 C 344.800 307.239,344.620 306.800,344.400 306.800 C 344.180 306.800,344.000 306.440,344.000 306.000 C 344.000 305.560,343.820 305.200,343.600 305.200 C 343.380 305.200,343.200 304.880,343.200 304.488 C 343.200 304.097,342.840 303.517,342.400 303.200 C 341.960 302.883,341.596 302.348,341.590 302.012 C 341.578 301.268,340.034 299.293,337.542 296.833 C 334.691 294.019,333.750 293.259,332.215 292.527 C 331.437 292.155,330.800 291.705,330.800 291.526 C 330.800 291.347,330.440 291.200,330.000 291.200 C 329.560 291.200,329.200 291.020,329.200 290.800 C 329.200 290.580,328.917 290.400,328.571 290.400 C 326.738 290.400,326.800 291.942,326.800 246.062 L 326.800 202.867 328.000 202.336 C 328.660 202.044,329.200 201.669,329.200 201.502 C 329.200 201.336,329.560 201.200,330.000 201.200 C 330.440 201.200,330.800 201.020,330.800 200.800 C 330.800 200.580,331.088 200.400,331.440 200.400 C 331.791 200.400,332.583 199.860,333.200 199.200 C 333.817 198.540,334.529 198.000,334.783 198.000 C 335.425 198.000,339.885 193.394,340.198 192.407 C 340.339 191.963,340.581 191.600,340.736 191.600 C 340.891 191.600,341.357 190.970,341.772 190.200 C 342.187 189.430,342.678 188.800,342.863 188.800 C 343.048 188.800,343.200 188.440,343.200 188.000 C 343.200 187.560,343.380 187.200,343.600 187.200 C 343.820 187.200,344.000 186.840,344.000 186.400 C 344.000 185.960,344.180 185.600,344.400 185.600 C 344.620 185.600,344.800 185.238,344.800 184.795 C 344.800 184.352,344.980 183.632,345.200 183.195 C 345.420 182.758,345.780 182.042,346.000 181.605 C 346.220 181.168,346.400 180.189,346.400 179.429 C 346.400 178.669,346.580 177.936,346.800 177.800 C 347.046 177.648,347.200 174.396,347.200 169.376 L 347.200 161.200 352.976 161.200 C 356.396 161.200,358.854 161.037,359.000 160.800 C 359.136 160.580,360.047 160.400,361.024 160.400 C 362.001 160.400,362.800 160.220,362.800 160.000 C 362.800 159.780,363.143 159.600,363.563 159.600 C 365.749 159.600,374.400 153.155,374.400 151.526 C 374.400 151.347,374.388 151.096,374.374 150.970 C 374.359 150.843,374.719 150.417,375.174 150.023 C 375.628 149.629,376.000 149.012,376.000 148.653 C 376.000 148.294,376.180 148.000,376.400 148.000 C 376.620 148.000,376.800 147.460,376.800 146.800 C 376.800 146.140,376.980 145.600,377.200 145.600 C 377.420 145.600,377.600 145.060,377.600 144.400 C 377.600 143.740,377.780 143.200,378.000 143.200 C 378.247 143.200,378.400 141.133,378.400 137.800 C 378.400 134.467,378.247 132.400,378.000 132.400 C 377.780 132.400,377.600 131.759,377.600 130.976 C 377.600 130.129,377.438 129.653,377.200 129.800 C 376.967 129.944,376.800 129.537,376.800 128.824 C 376.800 128.151,376.620 127.600,376.400 127.600 C 376.180 127.600,376.000 127.416,376.000 127.191 C 376.000 125.937,369.441 118.400,368.350 118.400 C 368.153 118.400,367.428 117.860,366.737 117.200 C 366.046 116.540,365.304 116.000,365.088 116.000 C 364.871 116.000,364.391 115.651,364.022 115.225 C 363.652 114.799,363.092 114.394,362.778 114.325 C 362.465 114.256,361.729 113.705,361.143 113.100 C 360.558 112.495,359.915 112.000,359.715 112.000 C 359.515 112.000,359.002 111.682,358.575 111.294 C 357.461 110.279,353.738 107.600,353.443 107.600 C 353.305 107.600,352.628 107.060,351.937 106.400 C 351.246 105.740,350.526 105.200,350.337 105.200 C 350.148 105.200,349.428 104.660,348.737 104.000 C 348.046 103.340,347.278 102.800,347.029 102.800 C 346.780 102.800,346.317 102.440,346.000 102.000 C 345.683 101.560,345.220 101.200,344.971 101.200 C 344.722 101.200,343.954 100.660,343.263 100.000 C 342.572 99.340,341.871 98.799,341.704 98.798 C 341.537 98.797,340.825 98.257,340.122 97.598 C 339.419 96.939,338.654 96.400,338.422 96.400 C 338.190 96.400,338.000 96.262,338.000 96.094 C 338.000 95.926,337.280 95.344,336.400 94.800 C 335.520 94.256,334.800 93.715,334.800 93.597 C 334.800 93.478,334.125 93.028,333.300 92.596 C 332.475 92.164,331.509 91.494,331.153 91.106 C 330.797 90.717,330.284 90.400,330.014 90.400 C 329.743 90.400,329.017 89.860,328.400 89.200 C 327.783 88.540,327.063 88.000,326.800 88.000 C 326.537 88.000,325.817 87.460,325.200 86.800 C 324.583 86.140,323.921 85.600,323.728 85.600 C 323.535 85.600,323.117 85.240,322.800 84.800 C 322.483 84.360,322.020 84.000,321.771 84.000 C 321.522 84.000,320.754 83.460,320.063 82.800 C 319.372 82.140,318.608 81.600,318.364 81.600 C 318.120 81.600,317.417 81.060,316.800 80.400 C 316.183 79.740,315.480 79.200,315.236 79.200 C 314.992 79.200,314.228 78.660,313.537 78.000 C 312.846 77.340,312.115 76.800,311.912 76.800 C 311.709 76.800,311.292 76.575,310.985 76.300 C 309.663 75.114,309.209 74.800,308.820 74.800 C 308.593 74.800,307.891 74.260,307.260 73.600 C 306.629 72.940,305.948 72.400,305.745 72.400 C 305.542 72.400,305.117 72.040,304.800 71.600 C 304.483 71.160,304.020 70.800,303.771 70.800 C 303.522 70.800,302.754 70.260,302.063 69.600 C 301.372 68.940,300.608 68.400,300.364 68.400 C 300.120 68.400,299.417 67.860,298.800 67.200 C 298.183 66.540,297.431 66.000,297.128 66.000 C 296.825 66.000,296.317 65.640,296.000 65.200 C 295.683 64.760,295.193 64.400,294.912 64.400 C 294.630 64.400,294.400 64.220,294.400 64.000 C 294.400 63.780,294.196 63.600,293.947 63.600 C 293.698 63.600,293.203 63.281,292.847 62.892 C 292.201 62.185,291.873 61.940,288.300 59.507 C 287.255 58.795,286.400 58.075,286.400 57.906 C 286.400 57.738,286.112 57.600,285.760 57.600 C 285.409 57.600,284.617 57.060,284.000 56.400 C 283.383 55.740,282.663 55.200,282.400 55.200 C 282.137 55.200,281.442 54.705,280.857 54.100 C 280.271 53.495,279.567 52.954,279.291 52.898 C 279.015 52.842,278.225 52.257,277.535 51.598 C 276.846 50.939,276.078 50.400,275.829 50.400 C 275.580 50.400,275.117 50.040,274.800 49.600 C 274.483 49.160,274.081 48.800,273.908 48.800 C 273.735 48.800,273.028 48.260,272.337 47.600 C 271.646 46.940,270.920 46.400,270.722 46.400 C 270.525 46.400,269.914 45.950,269.364 45.400 C 268.814 44.850,268.216 44.400,268.036 44.400 C 267.856 44.400,267.099 43.863,266.354 43.206 C 265.609 42.550,264.773 42.010,264.496 42.006 C 264.219 42.003,263.428 41.460,262.737 40.800 C 262.046 40.140,261.278 39.600,261.029 39.600 C 260.780 39.600,260.317 39.240,260.000 38.800 C 259.683 38.360,259.195 38.000,258.915 38.000 C 258.636 38.000,257.891 37.460,257.260 36.800 C 256.629 36.140,255.996 35.600,255.853 35.600 C 255.710 35.600,255.028 35.060,254.337 34.400 C 253.646 33.740,252.926 33.200,252.737 33.200 C 252.548 33.200,251.828 32.660,251.137 32.000 C 250.446 31.340,249.678 30.800,249.429 30.800 C 249.180 30.800,248.717 30.440,248.400 30.000 C 248.083 29.560,247.638 29.200,247.412 29.199 C 247.185 29.199,246.370 28.659,245.600 28.000 C 244.830 27.341,244.057 26.801,243.883 26.801 C 243.708 26.800,243.080 26.350,242.487 25.800 C 241.893 25.250,241.270 24.800,241.100 24.800 C 240.931 24.800,240.228 24.260,239.537 23.600 C 238.846 22.940,238.078 22.400,237.829 22.400 C 237.580 22.400,237.117 22.040,236.800 21.600 C 236.483 21.160,235.993 20.800,235.712 20.800 C 235.430 20.800,235.200 20.620,235.200 20.400 C 235.200 20.180,234.970 20.000,234.688 20.000 C 234.407 20.000,233.917 19.640,233.600 19.200 C 233.283 18.760,232.820 18.400,232.571 18.400 C 232.322 18.400,231.554 17.860,230.863 17.200 C 230.172 16.540,229.408 16.000,229.164 16.000 C 228.920 16.000,228.217 15.460,227.600 14.800 C 226.983 14.140,226.257 13.600,225.986 13.600 C 225.716 13.600,225.203 13.285,224.847 12.900 C 223.971 11.953,221.291 9.915,219.700 8.986 C 218.985 8.569,218.400 8.086,218.400 7.914 C 218.400 7.741,218.157 7.600,217.859 7.600 C 217.562 7.600,216.754 7.060,216.063 6.400 C 215.372 5.740,214.575 5.200,214.292 5.200 C 214.009 5.200,213.517 4.840,213.200 4.400 C 212.883 3.960,212.303 3.600,211.912 3.600 C 211.520 3.600,211.200 3.420,211.200 3.200 C 211.200 2.980,210.840 2.800,210.400 2.800 C 209.960 2.800,209.600 2.620,209.600 2.400 C 209.600 2.180,209.060 2.000,208.400 2.000 C 207.740 2.000,207.200 1.820,207.200 1.600 C 207.200 1.380,206.210 1.200,205.000 1.200 C 203.790 1.200,202.800 1.020,202.800 0.800 C 202.800 0.287,198.793 0.287,198.000 0.800 M204.098 26.824 C 205.914 28.157,207.670 29.465,208.000 29.730 C 208.330 29.995,209.230 30.654,210.000 31.195 C 210.770 31.736,211.580 32.319,211.800 32.492 C 212.349 32.922,223.956 41.477,227.400 43.990 C 228.940 45.114,233.553 48.501,237.650 51.517 C 241.748 54.533,246.960 58.350,249.232 60.000 C 251.505 61.650,255.917 64.890,259.038 67.200 C 262.159 69.510,267.183 73.200,270.203 75.400 C 273.223 77.600,275.898 79.581,276.147 79.801 C 276.396 80.022,278.220 81.366,280.200 82.787 C 282.180 84.209,285.003 86.278,286.473 87.386 C 287.944 88.494,290.528 90.390,292.216 91.600 C 293.904 92.810,298.577 96.230,302.600 99.200 C 306.622 102.170,311.508 105.760,313.457 107.177 C 315.406 108.594,319.700 111.752,323.000 114.195 C 326.300 116.637,329.630 119.069,330.400 119.599 C 331.170 120.128,331.890 120.669,332.000 120.800 C 332.110 120.931,332.830 121.474,333.600 122.006 C 335.108 123.048,345.346 130.581,350.661 134.559 C 352.454 135.902,353.838 137.135,353.737 137.300 C 353.491 137.701,47.301 137.688,47.054 137.287 C 46.947 137.115,47.522 136.530,48.330 135.988 C 49.139 135.445,50.004 134.821,50.254 134.601 C 50.504 134.380,52.819 132.670,55.398 130.800 C 61.335 126.495,70.014 120.114,70.800 119.476 C 71.130 119.208,71.968 118.586,72.662 118.094 L 73.923 117.200 104.543 117.200 C 126.550 117.200,135.477 117.072,136.281 116.744 C 139.272 115.524,139.905 115.142,141.278 113.725 C 146.848 107.978,144.940 98.642,137.504 95.262 C 135.671 94.428,135.115 94.400,120.581 94.400 C 110.313 94.400,105.634 94.269,105.809 93.985 C 105.950 93.757,107.895 92.232,110.133 90.595 C 112.370 88.958,114.380 87.474,114.600 87.298 C 114.820 87.122,115.630 86.539,116.400 86.002 C 117.170 85.466,118.004 84.840,118.254 84.613 C 118.504 84.386,120.822 82.670,123.404 80.800 C 125.987 78.930,130.702 75.465,133.881 73.100 L 139.662 68.800 174.084 68.800 C 198.352 68.800,208.993 68.667,210.154 68.350 C 219.079 65.909,222.134 56.178,216.118 49.349 C 213.250 46.093,212.665 46.015,190.600 45.985 L 171.000 45.957 172.200 44.981 C 172.860 44.445,176.100 42.028,179.400 39.611 C 182.700 37.194,185.580 35.073,185.800 34.898 C 186.020 34.722,186.830 34.136,187.600 33.595 C 188.370 33.054,189.270 32.392,189.600 32.125 C 190.370 31.501,197.888 25.978,199.189 25.082 C 200.537 24.153,200.386 24.099,204.098 26.824 M147.532 167.300 C 147.384 175.485,147.003 176.734,143.800 179.546 C 140.915 182.080,141.819 182.000,115.851 181.996 L 92.200 181.992 90.125 180.803 C 85.590 178.202,84.400 175.206,84.400 166.396 L 84.400 160.000 116.032 160.000 L 147.664 160.000 147.532 167.300 M324.321 166.000 C 324.479 173.597,323.794 176.088,320.724 179.081 C 317.597 182.130,318.847 182.001,292.513 181.991 C 266.099 181.981,267.395 182.120,264.276 178.962 C 262.861 177.529,262.487 176.900,261.256 173.881 C 260.766 172.680,260.602 160.731,261.069 160.264 C 261.217 160.116,275.482 160.041,292.769 160.098 L 324.200 160.200 324.321 166.000 M238.000 169.800 C 238.000 175.267,238.146 178.400,238.400 178.400 C 238.620 178.400,238.800 179.120,238.800 180.000 C 238.800 180.880,238.980 181.600,239.200 181.600 C 239.420 181.600,239.600 182.140,239.600 182.800 C 239.600 183.460,239.780 184.000,240.000 184.000 C 240.220 184.000,240.400 184.360,240.400 184.800 C 240.400 185.240,240.580 185.600,240.800 185.600 C 241.020 185.600,241.200 185.960,241.200 186.400 C 241.200 186.840,241.380 187.200,241.600 187.200 C 241.820 187.200,242.000 187.474,242.000 187.808 C 242.000 188.627,243.904 191.600,244.429 191.600 C 244.659 191.600,244.739 191.774,244.608 191.987 C 244.330 192.437,250.617 198.800,251.339 198.800 C 251.605 198.800,252.083 199.160,252.400 199.600 C 252.717 200.040,253.282 200.400,253.655 200.400 C 254.028 200.400,254.393 200.566,254.467 200.770 C 254.540 200.973,254.870 201.198,255.200 201.270 C 255.530 201.341,255.892 201.521,256.004 201.668 C 256.116 201.815,256.472 201.995,256.794 202.068 C 258.442 202.439,258.400 201.282,258.400 246.200 C 258.400 291.932,258.461 290.400,256.629 290.400 C 256.283 290.400,256.000 290.580,256.000 290.800 C 256.000 291.020,255.640 291.200,255.200 291.200 C 254.760 291.200,254.400 291.362,254.400 291.561 C 254.400 291.759,253.894 292.098,253.276 292.314 C 252.657 292.529,251.892 292.952,251.576 293.253 C 251.259 293.554,250.327 294.303,249.504 294.917 C 247.828 296.169,245.605 298.440,245.602 298.904 C 245.601 299.071,245.060 299.772,244.400 300.463 C 243.740 301.154,243.200 301.885,243.200 302.088 C 243.200 302.291,242.930 302.727,242.600 303.057 C 242.270 303.387,242.000 304.004,242.000 304.429 C 242.000 304.853,241.820 305.200,241.600 305.200 C 241.380 305.200,241.200 305.560,241.200 306.000 C 241.200 306.440,241.053 306.800,240.872 306.800 C 240.692 306.800,240.300 307.700,240.000 308.800 C 239.700 309.900,239.308 310.800,239.128 310.800 C 238.947 310.800,238.800 311.520,238.800 312.400 C 238.800 313.280,238.620 314.000,238.400 314.000 C 238.146 314.000,238.000 317.067,238.000 322.400 L 238.000 330.800 204.821 330.800 L 171.642 330.800 171.439 325.300 C 171.163 317.804,170.809 313.873,170.369 313.420 C 170.166 313.211,170.000 312.547,170.000 311.944 C 170.000 311.341,169.820 310.736,169.600 310.600 C 169.380 310.464,169.200 309.913,169.200 309.376 C 169.200 308.839,169.020 308.400,168.800 308.400 C 168.580 308.400,168.400 308.040,168.400 307.600 C 168.400 307.160,168.220 306.800,168.000 306.800 C 167.780 306.800,167.600 306.440,167.600 306.000 C 167.600 305.560,167.420 305.200,167.200 305.200 C 166.980 305.200,166.800 304.840,166.800 304.400 C 166.800 303.960,166.620 303.600,166.400 303.600 C 166.180 303.600,166.000 303.312,166.000 302.960 C 166.000 302.609,165.460 301.817,164.800 301.200 C 164.140 300.583,163.600 299.878,163.600 299.632 C 163.600 299.171,158.610 294.000,158.165 294.000 C 158.028 294.000,157.381 293.550,156.727 293.000 C 156.073 292.450,155.282 292.000,154.969 292.000 C 154.656 292.000,154.400 291.820,154.400 291.600 C 154.400 291.380,154.040 291.200,153.600 291.200 C 153.160 291.200,152.800 291.020,152.800 290.800 C 152.800 290.580,152.517 290.400,152.171 290.400 C 150.338 290.400,150.400 291.940,150.407 246.129 L 150.414 203.000 152.407 202.058 C 153.503 201.539,154.400 200.954,154.400 200.758 C 154.400 200.561,154.720 200.400,155.112 200.400 C 155.503 200.400,156.083 200.040,156.400 199.600 C 156.717 199.160,157.119 198.800,157.294 198.800 C 157.649 198.800,164.400 192.139,164.400 191.789 C 164.400 191.667,164.760 191.180,165.200 190.708 C 165.640 190.236,166.000 189.613,166.000 189.325 C 166.000 189.036,166.180 188.800,166.400 188.800 C 166.620 188.800,166.800 188.530,166.800 188.200 C 166.800 187.870,166.980 187.600,167.200 187.600 C 167.420 187.600,167.600 187.240,167.600 186.800 C 167.600 186.360,167.780 186.000,168.000 186.000 C 168.220 186.000,168.400 185.550,168.400 185.000 C 168.400 184.450,168.580 184.000,168.800 184.000 C 169.020 184.000,169.200 183.460,169.200 182.800 C 169.200 182.140,169.380 181.600,169.600 181.600 C 169.820 181.600,170.000 181.096,170.000 180.480 C 170.000 179.864,170.165 179.189,170.368 178.980 C 170.822 178.511,171.157 174.797,171.440 167.100 L 171.658 161.200 204.829 161.200 L 238.000 161.200 238.000 169.800 M127.102 246.100 L 127.204 287.600 116.202 287.600 L 105.200 287.600 105.200 246.267 C 105.200 223.533,105.323 204.810,105.473 204.660 C 105.623 204.510,110.528 204.435,116.373 204.494 L 127.000 204.600 127.102 246.100 M303.400 246.000 L 303.400 287.400 292.400 287.400 L 281.400 287.400 281.298 246.225 C 281.217 213.550,281.300 204.983,281.698 204.727 C 281.974 204.550,286.970 204.449,292.800 204.502 L 303.400 204.600 303.400 246.000 M139.505 310.366 C 139.887 310.568,140.830 311.007,141.600 311.341 C 146.139 313.314,147.580 316.671,147.591 325.300 L 147.600 332.000 116.000 332.000 L 84.400 332.000 84.406 325.700 C 84.412 319.523,84.635 318.070,85.960 315.600 C 86.790 314.052,88.873 312.002,90.200 311.428 C 90.860 311.142,91.850 310.716,92.400 310.481 C 93.667 309.940,138.490 309.831,139.505 310.366 M315.905 310.366 C 316.287 310.568,317.230 311.006,318.000 311.340 C 322.632 313.348,324.355 317.385,324.382 326.300 L 324.400 332.000 292.600 332.000 L 260.800 332.000 260.800 325.819 C 260.800 322.111,260.983 319.190,261.256 318.519 C 262.544 315.361,262.999 314.606,264.483 313.165 C 265.371 312.304,266.345 311.600,266.648 311.600 C 266.952 311.600,267.200 311.420,267.200 311.200 C 267.200 310.980,267.639 310.800,268.176 310.800 C 268.713 310.800,269.264 310.620,269.400 310.400 C 269.720 309.882,314.926 309.850,315.905 310.366 M8.600 375.889 C 7.940 375.984,7.229 376.228,7.020 376.431 C 6.811 376.634,6.331 376.800,5.953 376.800 C 5.576 376.800,5.207 376.935,5.133 377.100 C 5.060 377.265,4.325 377.904,3.500 378.520 C 2.675 379.137,2.000 379.835,2.000 380.073 C 2.000 380.311,1.595 380.857,1.100 381.286 C -0.214 382.426,-0.294 393.080,1.003 394.266 C 1.444 394.670,2.060 395.495,2.370 396.100 C 2.681 396.705,3.225 397.200,3.579 397.200 C 3.934 397.200,4.483 397.560,4.800 398.000 C 5.117 398.440,5.682 398.800,6.055 398.800 C 6.428 398.800,6.808 399.025,6.900 399.300 C 7.033 399.699,46.089 399.800,200.400 399.800 C 354.711 399.800,393.767 399.699,393.900 399.300 C 393.992 399.025,394.372 398.800,394.745 398.800 C 395.118 398.800,395.683 398.440,396.000 398.000 C 396.317 397.560,396.866 397.200,397.221 397.200 C 397.575 397.200,398.120 396.705,398.432 396.100 C 398.745 395.495,399.225 394.762,399.500 394.471 C 399.855 394.096,400.000 392.172,400.000 387.831 L 400.000 381.720 398.787 380.046 C 398.120 379.125,397.130 378.169,396.587 377.921 C 396.044 377.674,395.600 377.320,395.600 377.136 C 395.600 376.951,395.276 376.800,394.880 376.800 C 394.484 376.800,393.935 376.575,393.660 376.300 C 393.178 375.818,11.930 375.412,8.600 375.889 " stroke="none" fill="#144c83" fill-rule="evenodd"></path><path id="path2" d="M84.876 167.300 C 85.099 176.564,86.649 179.496,92.382 181.494 C 94.417 182.203,137.583 182.203,139.618 181.494 C 143.904 180.000,146.324 177.033,147.178 172.227 C 147.633 169.668,147.755 162.068,147.357 161.033 C 147.139 160.463,143.996 160.400,115.912 160.400 L 84.709 160.400 84.876 167.300 M261.200 166.023 C 261.200 173.609,261.749 175.677,264.572 178.726 C 265.712 179.958,266.333 180.326,269.319 181.544 C 270.110 181.866,276.925 182.000,292.600 182.000 C 308.275 182.000,315.090 181.866,315.881 181.544 C 318.852 180.332,319.474 179.975,320.436 178.928 C 323.370 175.732,324.000 173.408,324.000 165.769 L 324.000 160.400 292.600 160.400 L 261.200 160.400 261.200 166.023 M93.000 310.790 C 92.560 310.974,91.608 311.347,90.885 311.617 C 86.472 313.269,85.017 316.583,85.007 325.000 L 85.000 331.800 116.200 331.800 L 147.400 331.800 147.523 326.800 C 147.758 317.256,145.604 312.946,139.572 310.887 C 137.897 310.316,94.347 310.225,93.000 310.790 M269.200 310.881 C 268.650 311.116,267.660 311.542,267.000 311.828 C 262.770 313.659,261.065 318.057,261.273 326.600 L 261.400 331.800 291.800 331.910 C 308.520 331.971,322.605 331.922,323.100 331.803 C 323.973 331.591,324.000 331.440,323.986 326.692 C 323.958 316.987,321.877 312.881,315.972 310.883 C 314.076 310.242,270.701 310.240,269.200 310.881 " stroke="none" fill="#f9f9fa" fill-rule="evenodd"></path><path id="path3" d="M105.600 246.000 L 105.600 287.200 116.000 287.200 L 126.400 287.200 126.400 246.000 L 126.400 204.800 116.000 204.800 L 105.600 204.800 105.600 246.000 M282.267 205.067 C 282.120 205.213,282.000 223.756,282.000 246.273 L 282.000 287.213 292.500 287.107 L 303.000 287.000 303.114 247.200 C 303.176 225.310,303.123 206.815,302.996 206.100 L 302.764 204.800 292.649 204.800 C 287.085 204.800,282.413 204.920,282.267 205.067 " stroke="none" fill="#fbc304" fill-rule="evenodd"></path><path id="path4" d="M105.473 204.660 C 105.323 204.810,105.200 223.533,105.200 246.267 L 105.200 287.600 116.202 287.600 L 127.204 287.600 127.102 246.100 L 127.000 204.600 116.373 204.494 C 110.528 204.435,105.623 204.510,105.473 204.660 M281.698 204.727 C 281.300 204.983,281.217 213.550,281.298 246.225 L 281.400 287.400 292.400 287.400 L 303.400 287.400 303.400 246.000 L 303.400 204.600 292.800 204.502 C 286.970 204.449,281.974 204.550,281.698 204.727 M126.400 246.000 L 126.400 287.200 116.000 287.200 L 105.600 287.200 105.600 246.000 L 105.600 204.800 116.000 204.800 L 126.400 204.800 126.400 246.000 M302.996 206.100 C 303.123 206.815,303.176 225.310,303.114 247.200 L 303.000 287.000 292.500 287.107 L 282.000 287.213 282.000 246.273 C 282.000 223.756,282.120 205.213,282.267 205.067 C 282.413 204.920,287.085 204.800,292.649 204.800 L 302.764 204.800 302.996 206.100 " stroke="none" fill="#8c8c44" fill-rule="evenodd"></path></g></svg>