<svg id="svg" version="1.1" xmlns="http://www.w3.org/2000/svg" xmlns:xlink="http://www.w3.org/1999/xlink" width="400" height="400" viewBox="0, 0, 400,400"><g id="svgg"><path id="path0" d="M198.400 200.301 C 197.410 201.118,195.790 202.535,194.800 203.449 C 193.810 204.364,192.370 205.623,191.600 206.249 C 190.830 206.874,189.300 208.219,188.200 209.236 C 187.100 210.254,185.582 211.627,184.826 212.287 L 183.452 213.488 184.430 214.444 C 184.968 214.970,186.576 216.390,188.004 217.600 C 189.432 218.810,190.660 219.935,190.733 220.100 C 190.807 220.265,195.102 220.400,200.279 220.400 L 209.691 220.400 212.129 218.300 C 218.012 213.231,217.842 213.546,215.637 211.784 C 214.152 210.596,210.108 207.038,205.629 202.979 C 200.359 198.202,200.762 198.352,198.400 200.301 M112.000 212.673 C 105.966 213.300,90.955 218.981,88.400 221.605 C 88.290 221.718,87.127 222.528,85.815 223.405 C 83.201 225.153,75.608 232.459,73.765 235.000 C 73.127 235.880,72.502 236.690,72.376 236.800 C 71.849 237.261,69.600 240.776,69.600 241.139 C 69.600 241.356,69.451 241.593,69.269 241.667 C 68.331 242.045,64.305 251.633,63.000 256.600 C 61.180 263.522,61.215 262.263,61.207 321.701 L 61.200 378.001 200.500 377.901 L 339.800 377.800 339.800 321.200 C 339.800 275.424,339.698 264.141,339.265 262.200 C 337.418 253.908,335.746 248.982,333.125 244.110 C 332.442 242.839,331.684 241.396,331.441 240.903 C 331.199 240.410,330.865 240.005,330.700 240.003 C 330.535 240.001,330.400 239.764,330.400 239.475 C 330.400 239.187,330.080 238.602,329.689 238.175 C 329.298 237.749,328.536 236.770,327.996 236.000 C 327.019 234.607,326.206 233.619,323.668 230.742 C 315.792 221.814,301.433 214.404,288.600 212.643 L 287.000 212.424 284.829 216.912 C 282.262 222.220,275.463 236.185,269.249 248.912 C 266.802 253.924,264.800 258.102,264.800 258.198 C 264.800 258.293,262.485 263.103,259.655 268.886 C 254.327 279.775,251.080 286.453,245.791 297.400 C 244.090 300.920,240.539 308.210,237.900 313.600 C 235.261 318.990,232.520 324.660,231.810 326.200 C 231.100 327.740,228.761 332.600,226.611 337.000 C 218.094 354.437,215.573 359.618,213.057 364.852 C 210.267 370.657,207.295 374.400,205.475 374.400 C 205.192 374.400,204.744 374.616,204.480 374.880 C 203.584 375.776,197.638 375.468,195.800 374.430 C 192.061 372.318,191.172 371.041,186.171 360.600 C 184.170 356.420,180.903 349.670,178.913 345.600 C 174.252 336.069,168.647 324.539,165.107 317.200 C 163.568 314.010,160.413 307.530,158.096 302.800 C 155.778 298.070,153.035 292.400,152.000 290.200 C 150.966 288.000,148.314 282.510,146.109 278.000 C 141.350 268.269,136.166 257.604,132.302 249.600 C 130.762 246.410,127.919 240.560,125.983 236.600 C 122.457 229.385,116.780 217.601,115.385 214.600 C 114.684 213.091,114.053 212.339,113.600 212.470 C 113.490 212.502,112.770 212.593,112.000 212.673 M105.085 242.713 C 106.232 245.071,108.546 249.880,110.228 253.400 C 111.910 256.920,115.227 263.760,117.600 268.600 C 119.973 273.440,122.540 278.750,123.304 280.400 C 124.068 282.050,126.496 287.090,128.700 291.600 C 139.350 313.390,142.800 320.494,142.800 320.636 C 142.800 320.783,148.047 331.593,156.179 348.200 C 158.964 353.887,159.770 355.876,159.382 356.102 C 159.097 356.268,141.794 356.358,120.932 356.302 L 83.000 356.200 83.000 349.600 L 83.000 343.000 87.200 342.787 C 103.360 341.968,102.191 321.200,85.985 321.200 L 82.800 321.200 82.800 312.600 L 82.800 304.000 95.100 303.996 C 108.139 303.991,109.662 303.816,112.635 301.978 C 117.991 298.668,118.885 289.645,114.287 285.321 C 113.153 284.255,112.288 283.717,109.505 282.343 C 109.123 282.154,102.958 282.000,95.805 282.000 L 82.800 282.000 82.800 274.006 C 82.800 265.960,82.984 264.432,84.514 259.800 C 87.058 252.099,92.342 245.066,99.200 240.252 C 102.722 237.780,102.677 237.761,105.085 242.713 M301.538 240.188 C 304.622 242.260,309.687 247.282,311.695 250.260 C 313.665 253.183,315.924 257.928,316.807 261.000 C 317.060 261.880,317.472 263.140,317.722 263.800 C 318.431 265.669,318.621 355.613,317.918 356.059 C 316.894 356.709,241.600 356.474,241.600 355.822 C 241.600 355.504,243.827 350.689,246.549 345.122 C 252.005 333.961,255.915 325.902,260.000 317.400 C 261.480 314.320,264.224 308.650,266.098 304.800 C 267.972 300.950,270.766 295.190,272.306 292.000 C 273.847 288.810,276.585 283.140,278.392 279.400 C 280.198 275.660,283.486 268.910,285.699 264.400 C 287.911 259.890,290.655 254.220,291.796 251.800 C 297.155 240.440,298.204 238.400,298.687 238.400 C 298.791 238.400,300.074 239.205,301.538 240.188 M194.607 243.900 C 194.453 244.725,194.162 246.840,193.963 248.600 C 193.507 252.613,192.870 258.043,192.366 262.200 C 192.001 265.208,191.784 267.035,190.800 275.400 C 190.580 277.270,190.208 280.375,189.973 282.300 C 189.738 284.225,189.389 287.150,189.197 288.800 C 188.331 296.238,187.931 299.596,187.598 302.200 C 186.632 309.756,186.633 309.849,187.719 312.098 C 189.202 315.167,196.562 330.426,198.520 334.487 C 200.793 339.204,199.931 340.179,207.617 324.200 C 209.628 320.020,211.906 315.298,212.681 313.707 C 214.397 310.180,214.477 312.074,211.606 288.200 C 211.395 286.440,211.033 283.380,210.803 281.400 C 210.573 279.420,210.208 276.315,209.992 274.500 C 209.776 272.685,209.426 269.715,209.213 267.900 C 209.000 266.085,208.631 262.980,208.392 261.000 C 207.577 254.253,207.248 251.402,206.841 247.579 C 206.242 241.940,206.814 242.400,200.402 242.400 L 194.889 242.400 194.607 243.900 " stroke="none" fill="#fafafb" fill-rule="evenodd"></path><path id="path1" d="M195.539 22.995 C 195.432 23.102,194.007 23.359,192.372 23.567 C 162.663 27.342,140.521 55.520,143.782 85.400 C 144.691 93.722,147.072 101.521,150.474 107.318 C 151.093 108.372,151.600 109.407,151.600 109.618 C 151.600 109.828,151.758 110.000,151.951 110.000 C 152.145 110.000,152.527 110.540,152.800 111.200 C 153.073 111.860,153.416 112.400,153.562 112.400 C 153.708 112.400,154.143 112.933,154.528 113.585 C 154.913 114.237,155.448 115.002,155.716 115.285 C 155.984 115.568,157.012 116.778,158.000 117.973 C 159.452 119.729,163.416 123.266,167.600 126.537 C 179.109 135.537,199.357 139.278,214.500 135.204 C 215.325 134.982,216.585 134.643,217.300 134.452 C 247.045 126.493,264.838 91.274,254.307 61.200 C 248.858 45.638,234.803 31.219,220.585 26.604 C 219.493 26.250,218.240 25.809,217.800 25.625 C 216.054 24.896,212.130 24.009,207.154 23.220 C 204.494 22.798,195.902 22.631,195.539 22.995 " stroke="none" fill="#fbc304" fill-rule="evenodd"></path><path id="path2" d="M187.300 0.273 C 185.925 0.364,184.800 0.610,184.800 0.819 C 184.800 1.029,184.001 1.200,183.024 1.200 C 182.047 1.200,181.136 1.380,181.000 1.600 C 180.864 1.820,180.234 2.000,179.600 2.000 C 178.966 2.000,178.336 2.180,178.200 2.400 C 178.064 2.620,177.423 2.800,176.776 2.800 C 176.129 2.800,175.600 2.980,175.600 3.200 C 175.600 3.420,175.060 3.600,174.400 3.600 C 173.740 3.600,173.200 3.780,173.200 4.000 C 173.200 4.220,172.851 4.400,172.424 4.400 C 171.997 4.400,171.536 4.580,171.400 4.800 C 171.264 5.020,170.713 5.200,170.176 5.200 C 169.639 5.200,169.200 5.380,169.200 5.600 C 169.200 5.820,168.840 6.000,168.400 6.000 C 167.960 6.000,167.600 6.180,167.600 6.400 C 167.600 6.620,167.347 6.800,167.038 6.800 C 166.729 6.800,165.784 7.147,164.938 7.570 C 164.092 7.994,162.389 8.814,161.153 9.391 C 159.917 9.969,158.529 10.793,158.069 11.221 C 157.610 11.650,156.996 12.000,156.705 12.000 C 156.414 12.000,155.917 12.360,155.600 12.800 C 155.283 13.240,154.791 13.600,154.508 13.600 C 154.225 13.600,153.428 14.140,152.737 14.800 C 152.046 15.460,151.314 16.000,151.109 16.000 C 150.905 16.000,150.046 16.720,149.200 17.600 C 148.354 18.480,147.508 19.200,147.319 19.200 C 146.755 19.200,139.600 26.474,139.600 27.047 C 139.600 27.165,138.880 27.954,138.000 28.800 C 137.120 29.646,136.400 30.549,136.400 30.808 C 136.400 31.067,135.860 31.783,135.200 32.400 C 134.540 33.017,134.000 33.769,134.000 34.072 C 134.000 34.375,133.640 34.883,133.200 35.200 C 132.760 35.517,132.400 36.097,132.400 36.488 C 132.400 36.880,132.242 37.200,132.049 37.200 C 131.855 37.200,131.473 37.740,131.200 38.400 C 130.927 39.060,130.545 39.600,130.351 39.600 C 130.158 39.600,130.000 39.945,130.000 40.367 C 130.000 40.788,129.859 41.193,129.687 41.267 C 129.173 41.486,125.697 48.858,125.193 50.800 C 124.935 51.790,124.562 52.913,124.363 53.295 C 124.163 53.677,124.000 54.341,124.000 54.771 C 124.000 55.201,123.820 55.664,123.600 55.800 C 123.380 55.936,123.200 56.577,123.200 57.224 C 123.200 57.871,123.020 58.400,122.800 58.400 C 122.580 58.400,122.400 59.019,122.400 59.776 C 122.400 60.533,122.220 61.264,122.000 61.400 C 121.780 61.536,121.600 62.346,121.600 63.200 C 121.600 64.054,121.420 64.864,121.200 65.000 C 120.980 65.136,120.800 66.306,120.800 67.600 C 120.800 68.894,120.620 70.064,120.400 70.200 C 120.151 70.354,120.000 74.071,120.000 80.024 C 120.000 86.141,120.144 89.600,120.400 89.600 C 120.626 89.600,120.800 90.733,120.800 92.200 C 120.800 93.667,120.974 94.800,121.200 94.800 C 121.420 94.800,121.600 95.700,121.600 96.800 C 121.600 97.900,121.780 98.800,122.000 98.800 C 122.220 98.800,122.400 99.419,122.400 100.176 C 122.400 100.933,122.580 101.664,122.800 101.800 C 123.020 101.936,123.200 102.577,123.200 103.224 C 123.200 103.871,123.380 104.400,123.600 104.400 C 123.820 104.400,124.000 104.940,124.000 105.600 C 124.000 106.260,124.160 106.800,124.355 106.800 C 124.550 106.800,124.800 107.295,124.912 107.900 C 125.176 109.333,126.798 113.691,127.249 114.180 C 127.442 114.389,127.600 114.884,127.600 115.280 C 127.600 115.676,127.738 116.000,127.906 116.000 C 128.074 116.000,128.518 116.675,128.894 117.500 C 129.581 119.012,130.829 121.230,131.201 121.600 C 131.311 121.710,131.656 122.295,131.968 122.900 C 132.280 123.505,132.685 124.000,132.868 124.000 C 133.050 124.000,133.200 124.230,133.200 124.512 C 133.200 124.793,133.560 125.283,134.000 125.600 C 134.440 125.917,134.800 126.425,134.800 126.728 C 134.800 127.031,135.340 127.783,136.000 128.400 C 136.660 129.017,137.200 129.722,137.200 129.967 C 137.200 130.958,149.461 143.200,150.453 143.200 C 150.687 143.200,151.383 143.740,152.000 144.400 C 152.617 145.060,153.369 145.600,153.672 145.600 C 153.975 145.600,154.483 145.960,154.800 146.400 C 155.117 146.840,155.631 147.200,155.941 147.200 C 156.252 147.200,156.797 147.529,157.153 147.930 C 157.509 148.332,158.385 148.916,159.100 149.228 C 159.815 149.540,160.400 149.931,160.400 150.098 C 160.400 150.264,160.655 150.400,160.967 150.400 C 161.278 150.400,161.593 150.535,161.667 150.700 C 161.887 151.195,166.854 153.600,167.656 153.600 C 168.065 153.600,168.400 153.780,168.400 154.000 C 168.400 154.220,168.760 154.400,169.200 154.400 C 169.640 154.400,170.000 154.541,170.000 154.713 C 170.000 154.885,170.855 155.275,171.900 155.580 C 172.945 155.885,174.070 156.267,174.400 156.428 C 175.886 157.156,182.964 158.800,184.609 158.800 C 185.348 158.800,186.064 158.980,186.200 159.200 C 186.336 159.420,187.596 159.600,189.000 159.600 C 190.404 159.600,191.664 159.780,191.800 160.000 C 192.134 160.541,209.066 160.541,209.400 160.000 C 209.536 159.780,210.771 159.600,212.144 159.600 C 213.517 159.600,214.811 159.437,215.020 159.239 C 215.229 159.040,216.210 158.790,217.200 158.684 C 218.190 158.577,220.170 158.191,221.600 157.826 C 223.030 157.461,224.697 157.060,225.305 156.935 C 225.913 156.810,226.508 156.549,226.629 156.354 C 226.749 156.159,227.276 156.000,227.800 156.000 C 228.324 156.000,228.864 155.820,229.000 155.600 C 229.136 155.380,229.597 155.200,230.024 155.200 C 230.451 155.200,230.800 155.020,230.800 154.800 C 230.800 154.580,231.239 154.400,231.776 154.400 C 232.313 154.400,232.864 154.220,233.000 154.000 C 233.136 153.780,233.597 153.600,234.024 153.600 C 234.451 153.600,234.800 153.420,234.800 153.200 C 234.800 152.980,235.160 152.800,235.600 152.800 C 236.040 152.800,236.400 152.620,236.400 152.400 C 236.400 152.180,236.760 152.000,237.200 152.000 C 237.640 152.000,238.000 151.864,238.000 151.698 C 238.000 151.531,238.585 151.140,239.300 150.828 C 240.015 150.516,240.891 149.932,241.247 149.530 C 241.603 149.129,242.188 148.800,242.547 148.800 C 242.906 148.800,243.200 148.620,243.200 148.400 C 243.200 148.180,243.436 148.000,243.725 148.000 C 244.013 148.000,244.636 147.640,245.108 147.200 C 245.580 146.760,246.127 146.400,246.324 146.400 C 246.521 146.400,247.246 145.860,247.937 145.200 C 248.628 144.540,249.348 144.000,249.537 144.000 C 249.726 144.000,250.409 143.505,251.053 142.900 C 251.697 142.295,253.119 141.080,254.212 140.200 C 256.814 138.106,259.173 135.740,260.393 134.000 C 260.932 133.230,262.055 131.939,262.887 131.131 C 263.719 130.324,264.400 129.451,264.400 129.192 C 264.400 128.933,264.940 128.217,265.600 127.600 C 266.260 126.983,266.800 126.231,266.800 125.928 C 266.800 125.625,267.160 125.117,267.600 124.800 C 268.040 124.483,268.400 124.071,268.400 123.884 C 268.400 123.697,268.940 122.759,269.600 121.800 C 270.260 120.841,270.800 119.863,270.800 119.628 C 270.800 119.393,270.980 119.200,271.200 119.200 C 271.420 119.200,271.600 118.840,271.600 118.400 C 271.600 117.960,271.780 117.600,272.000 117.600 C 272.220 117.600,272.400 117.240,272.400 116.800 C 272.400 116.360,272.580 116.000,272.800 116.000 C 273.020 116.000,273.200 115.764,273.200 115.475 C 273.200 115.186,273.650 114.017,274.200 112.877 C 274.750 111.737,275.200 110.353,275.200 109.802 C 275.200 109.251,275.380 108.800,275.600 108.800 C 275.820 108.800,276.000 108.440,276.000 108.000 C 276.000 107.560,276.180 107.200,276.400 107.200 C 276.620 107.200,276.800 106.660,276.800 106.000 C 276.800 105.340,276.980 104.800,277.200 104.800 C 277.420 104.800,277.600 104.170,277.600 103.400 C 277.600 102.630,277.780 102.000,278.000 102.000 C 278.220 102.000,278.400 101.269,278.400 100.376 C 278.400 99.396,278.558 98.851,278.800 99.000 C 279.044 99.151,279.200 98.537,279.200 97.424 C 279.200 96.421,279.380 95.600,279.600 95.600 C 279.822 95.600,280.000 94.533,280.000 93.200 C 280.000 91.867,280.178 90.800,280.400 90.800 C 280.657 90.800,280.800 86.933,280.800 80.000 C 280.800 73.067,280.657 69.200,280.400 69.200 C 280.178 69.200,280.000 68.133,280.000 66.800 C 280.000 65.467,279.822 64.400,279.600 64.400 C 279.380 64.400,279.200 63.590,279.200 62.600 C 279.200 61.610,279.020 60.800,278.800 60.800 C 278.580 60.800,278.400 60.080,278.400 59.200 C 278.400 58.320,278.220 57.600,278.000 57.600 C 277.780 57.600,277.600 57.060,277.600 56.400 C 277.600 55.740,277.420 55.200,277.200 55.200 C 276.980 55.200,276.800 54.660,276.800 54.000 C 276.800 53.340,276.620 52.800,276.400 52.800 C 276.180 52.800,276.000 52.260,276.000 51.600 C 276.000 50.940,275.820 50.400,275.600 50.400 C 275.380 50.400,275.201 50.175,275.201 49.900 C 275.203 49.192,273.211 44.504,272.099 42.600 C 271.585 41.720,271.062 40.685,270.936 40.300 C 270.810 39.915,270.548 39.600,270.353 39.600 C 270.159 39.600,270.000 39.240,270.000 38.800 C 270.000 38.360,269.850 38.000,269.668 38.000 C 269.485 38.000,269.081 37.505,268.770 36.900 C 268.460 36.295,267.889 35.509,267.503 35.153 C 267.116 34.797,266.800 34.252,266.800 33.941 C 266.800 33.631,266.440 33.117,266.000 32.800 C 265.560 32.483,265.200 32.015,265.200 31.760 C 265.200 31.505,264.480 30.555,263.600 29.648 C 262.720 28.741,262.000 27.809,262.000 27.576 C 262.000 27.343,261.820 27.264,261.600 27.400 C 261.380 27.536,261.200 27.425,261.200 27.154 C 261.200 26.883,260.481 25.928,259.602 25.031 C 258.722 24.134,256.907 22.275,255.567 20.900 C 254.227 19.525,252.966 18.400,252.766 18.400 C 252.565 18.400,251.659 17.680,250.752 16.800 C 249.845 15.920,248.895 15.200,248.640 15.200 C 248.385 15.200,247.917 14.840,247.600 14.400 C 247.283 13.960,246.769 13.600,246.459 13.600 C 246.148 13.600,245.603 13.284,245.247 12.897 C 244.891 12.511,244.105 11.940,243.500 11.630 C 242.895 11.319,242.400 10.915,242.400 10.732 C 242.400 10.550,242.055 10.400,241.633 10.400 C 241.212 10.400,240.807 10.258,240.733 10.084 C 240.660 9.911,239.160 9.082,237.400 8.243 C 235.640 7.405,233.887 6.557,233.505 6.359 C 233.123 6.162,232.538 6.000,232.205 6.000 C 231.872 6.000,231.600 5.820,231.600 5.600 C 231.600 5.380,231.240 5.200,230.800 5.200 C 230.360 5.200,230.000 5.020,230.000 4.800 C 230.000 4.580,229.460 4.400,228.800 4.400 C 228.140 4.400,227.600 4.220,227.600 4.000 C 227.600 3.780,227.060 3.600,226.400 3.600 C 225.740 3.600,225.200 3.420,225.200 3.200 C 225.200 2.980,224.660 2.800,224.000 2.800 C 223.340 2.800,222.800 2.620,222.800 2.400 C 222.800 2.180,222.181 2.000,221.424 2.000 C 220.667 2.000,219.936 1.820,219.800 1.600 C 219.664 1.380,218.879 1.200,218.056 1.200 C 217.233 1.200,216.340 0.980,216.071 0.711 C 215.583 0.223,193.218 -0.118,187.300 0.273 M209.000 23.146 C 210.320 23.369,212.300 23.751,213.400 23.994 C 214.500 24.237,215.897 24.539,216.505 24.664 C 217.113 24.790,217.708 25.051,217.829 25.246 C 217.949 25.441,218.399 25.600,218.829 25.600 C 219.259 25.600,219.923 25.759,220.305 25.953 C 220.687 26.148,221.450 26.489,222.000 26.711 C 228.646 29.397,235.422 33.926,240.730 39.228 C 246.776 45.268,250.261 50.390,253.434 57.900 C 253.782 58.725,254.232 59.713,254.434 60.095 C 254.635 60.477,254.800 61.141,254.800 61.571 C 254.800 62.001,254.980 62.464,255.200 62.600 C 255.420 62.736,255.600 63.366,255.600 64.000 C 255.600 64.634,255.780 65.264,256.000 65.400 C 256.220 65.536,256.400 66.346,256.400 67.200 C 256.400 68.054,256.555 68.849,256.746 68.966 C 257.701 69.557,258.071 82.863,257.269 87.800 C 257.019 89.340,256.702 91.366,256.565 92.303 C 256.428 93.239,256.155 94.105,255.958 94.226 C 255.761 94.348,255.600 94.966,255.600 95.600 C 255.600 96.234,255.420 96.864,255.200 97.000 C 254.980 97.136,254.800 97.599,254.800 98.029 C 254.800 98.459,254.641 99.123,254.447 99.505 C 254.252 99.887,253.916 100.650,253.700 101.200 C 253.063 102.817,250.669 107.782,250.421 108.000 C 250.295 108.110,249.836 108.878,249.401 109.708 C 246.562 115.118,238.916 123.175,232.465 127.556 C 227.919 130.643,217.749 135.192,215.380 135.198 C 214.929 135.199,214.389 135.362,214.180 135.559 C 212.889 136.779,200.819 137.591,194.600 136.877 C 188.292 136.152,187.026 135.943,186.620 135.559 C 186.411 135.362,185.883 135.200,185.447 135.200 C 183.148 135.200,169.074 128.762,168.000 127.219 C 167.890 127.061,167.509 126.767,167.154 126.566 C 163.634 124.572,156.473 117.257,152.945 112.051 C 151.786 110.341,151.261 109.461,149.275 105.900 C 148.876 105.185,147.961 103.070,147.241 101.200 C 146.521 99.330,145.767 97.387,145.566 96.881 C 145.365 96.376,145.200 95.531,145.200 95.005 C 145.200 94.478,145.020 93.936,144.800 93.800 C 144.580 93.664,144.400 92.854,144.400 92.000 C 144.400 91.146,144.243 90.350,144.052 90.232 C 143.155 89.677,142.814 78.568,143.529 73.200 C 144.398 66.681,144.484 66.198,144.841 65.820 C 145.038 65.611,145.200 64.947,145.200 64.344 C 145.200 63.741,145.380 63.136,145.600 63.000 C 145.820 62.864,146.000 62.401,146.000 61.971 C 146.000 61.541,146.159 60.877,146.353 60.495 C 146.548 60.113,146.888 59.350,147.110 58.800 C 151.616 47.625,161.128 36.255,170.200 31.198 C 171.080 30.708,172.250 29.999,172.800 29.624 C 173.766 28.965,175.141 28.301,178.300 26.966 C 179.125 26.618,180.113 26.168,180.495 25.966 C 180.877 25.765,181.541 25.600,181.971 25.600 C 182.401 25.600,182.864 25.420,183.000 25.200 C 183.136 24.980,183.766 24.800,184.400 24.800 C 185.034 24.800,185.652 24.639,185.774 24.442 C 185.998 24.079,186.679 23.946,191.947 23.236 C 193.568 23.017,195.006 22.727,195.142 22.591 C 195.497 22.237,206.151 22.663,209.000 23.146 M197.600 172.000 C 197.270 172.213,196.672 172.391,196.272 172.394 C 195.593 172.400,192.728 174.158,191.530 175.304 C 191.238 175.583,190.190 176.437,189.200 177.202 C 188.210 177.967,186.557 179.450,185.526 180.497 C 184.495 181.543,183.474 182.400,183.257 182.400 C 183.039 182.400,181.586 183.660,180.028 185.200 C 178.469 186.740,177.102 188.000,176.988 188.000 C 176.875 188.000,175.807 188.945,174.615 190.100 C 172.228 192.413,172.025 192.585,170.000 194.000 C 169.230 194.538,167.790 195.798,166.800 196.800 C 165.810 197.802,164.370 199.062,163.600 199.600 C 162.344 200.478,161.358 201.447,157.205 205.889 C 156.542 206.597,156.000 207.452,156.000 207.789 C 156.000 208.125,155.864 208.400,155.697 208.400 C 155.531 208.400,155.171 209.117,154.897 209.994 C 154.301 211.904,154.231 216.800,154.800 216.800 C 155.020 216.800,155.200 217.340,155.200 218.000 C 155.200 218.660,155.380 219.200,155.600 219.200 C 155.820 219.200,156.000 219.489,156.000 219.841 C 156.000 220.462,160.686 225.190,161.307 225.197 C 161.476 225.199,162.785 226.370,164.215 227.800 C 165.645 229.230,166.958 230.400,167.134 230.400 C 168.592 230.400,172.982 235.993,172.000 236.600 C 171.780 236.736,171.600 238.266,171.600 240.000 C 171.600 241.734,171.420 243.264,171.200 243.400 C 170.980 243.536,170.800 244.976,170.800 246.600 C 170.800 248.224,170.620 249.664,170.400 249.800 C 170.180 249.936,170.000 251.567,170.000 253.424 C 170.000 255.408,169.835 256.800,169.600 256.800 C 169.367 256.800,169.200 258.133,169.200 260.000 C 169.200 261.867,169.033 263.200,168.800 263.200 C 168.574 263.200,168.400 264.333,168.400 265.800 C 168.400 267.267,168.226 268.400,168.000 268.400 C 167.780 268.400,167.600 268.040,167.600 267.600 C 167.600 267.160,167.420 266.800,167.200 266.800 C 166.980 266.800,166.800 266.440,166.800 266.000 C 166.800 265.560,166.620 265.200,166.400 265.200 C 166.180 265.200,166.000 264.840,166.000 264.400 C 166.000 263.960,165.820 263.600,165.600 263.600 C 165.380 263.600,165.200 263.240,165.200 262.800 C 165.200 262.360,165.020 262.000,164.800 262.000 C 164.580 262.000,164.400 261.640,164.400 261.200 C 164.400 260.760,164.254 260.400,164.075 260.400 C 163.896 260.400,163.502 259.770,163.200 259.000 C 162.898 258.230,162.504 257.600,162.325 257.600 C 162.146 257.600,162.000 257.240,162.000 256.800 C 162.000 256.360,161.820 256.000,161.600 256.000 C 161.380 256.000,161.200 255.728,161.200 255.395 C 161.200 255.062,161.032 254.477,160.826 254.095 C 160.621 253.713,160.222 252.828,159.941 252.129 C 159.660 251.430,159.327 250.922,159.200 251.000 C 159.073 251.078,158.930 250.660,158.881 250.071 C 158.833 249.482,158.615 248.940,158.397 248.867 C 158.178 248.793,158.000 248.482,158.000 248.176 C 158.000 247.485,155.911 243.050,155.500 242.867 C 155.335 242.793,155.200 242.388,155.200 241.967 C 155.200 241.545,155.020 241.200,154.800 241.200 C 154.580 241.200,154.400 240.840,154.400 240.400 C 154.400 239.960,154.220 239.600,154.000 239.600 C 153.780 239.600,153.600 239.240,153.600 238.800 C 153.600 238.360,153.420 238.000,153.200 238.000 C 152.980 238.000,152.800 237.640,152.800 237.200 C 152.800 236.760,152.620 236.400,152.400 236.400 C 152.180 236.400,152.000 236.040,152.000 235.600 C 152.000 235.160,151.820 234.800,151.600 234.800 C 151.380 234.800,151.200 234.440,151.200 234.000 C 151.200 233.560,151.020 233.200,150.800 233.200 C 150.580 233.200,150.400 232.840,150.400 232.400 C 150.400 231.960,150.220 231.600,150.000 231.600 C 149.780 231.600,149.600 231.240,149.600 230.800 C 149.600 230.360,149.420 230.000,149.200 230.000 C 148.980 230.000,148.800 229.640,148.800 229.200 C 148.800 228.760,148.620 228.400,148.400 228.400 C 148.180 228.400,148.000 228.040,148.000 227.600 C 148.000 227.160,147.820 226.800,147.600 226.800 C 147.380 226.800,147.200 226.451,147.200 226.024 C 147.200 225.597,147.020 225.136,146.800 225.000 C 146.580 224.864,146.400 224.403,146.400 223.976 C 146.400 223.549,146.220 223.200,146.000 223.200 C 145.780 223.200,145.600 222.840,145.600 222.400 C 145.600 221.960,145.420 221.600,145.200 221.600 C 144.980 221.600,144.800 221.240,144.800 220.800 C 144.800 220.360,144.620 220.000,144.400 220.000 C 144.180 220.000,144.000 219.640,144.000 219.200 C 144.000 218.760,143.820 218.400,143.600 218.400 C 143.380 218.400,143.200 218.040,143.200 217.600 C 143.200 217.160,143.020 216.800,142.800 216.800 C 142.580 216.800,142.400 216.440,142.400 216.000 C 142.400 215.560,142.220 215.200,142.000 215.200 C 141.780 215.200,141.600 214.935,141.600 214.611 C 141.600 213.872,139.543 209.447,139.116 209.267 C 138.942 209.193,138.800 208.788,138.800 208.367 C 138.800 207.945,138.620 207.600,138.400 207.600 C 138.180 207.600,138.000 207.240,138.000 206.800 C 138.000 206.360,137.820 206.000,137.600 206.000 C 137.380 206.000,137.200 205.640,137.200 205.200 C 137.200 204.760,137.020 204.400,136.800 204.400 C 136.580 204.400,136.400 204.040,136.400 203.600 C 136.400 203.160,136.220 202.800,136.000 202.800 C 135.780 202.800,135.600 202.548,135.600 202.241 C 135.600 201.933,135.060 200.655,134.400 199.400 C 133.740 198.145,133.200 196.867,133.200 196.559 C 133.200 196.252,133.020 196.000,132.800 196.000 C 132.580 196.000,132.400 195.640,132.400 195.200 C 132.400 194.760,132.220 194.400,132.000 194.400 C 131.780 194.400,131.598 194.175,131.596 193.900 C 131.594 193.625,131.020 192.950,130.320 192.400 C 129.620 191.850,128.640 190.995,128.142 190.500 C 127.644 190.005,126.958 189.600,126.618 189.600 C 126.278 189.600,126.000 189.420,126.000 189.200 C 126.000 188.980,125.280 188.800,124.400 188.800 C 123.520 188.800,122.800 188.620,122.800 188.400 C 122.800 188.162,121.275 188.000,119.024 188.000 C 116.937 188.000,115.137 188.179,115.000 188.400 C 114.864 188.620,113.334 188.800,111.600 188.800 C 109.866 188.800,108.336 188.980,108.200 189.200 C 108.064 189.420,106.973 189.600,105.776 189.600 C 104.579 189.600,103.600 189.780,103.600 190.000 C 103.600 190.220,102.880 190.400,102.000 190.400 C 101.120 190.400,100.400 190.580,100.400 190.800 C 100.400 191.020,99.691 191.200,98.824 191.200 C 97.957 191.200,97.149 191.359,97.029 191.554 C 96.908 191.748,96.002 192.029,95.014 192.177 C 94.027 192.325,93.114 192.616,92.986 192.823 C 92.858 193.030,92.324 193.200,91.800 193.200 C 91.276 193.200,90.736 193.380,90.600 193.600 C 90.464 193.820,90.003 194.000,89.576 194.000 C 89.149 194.000,88.800 194.180,88.800 194.400 C 88.800 194.620,88.445 194.800,88.012 194.800 C 87.579 194.800,86.583 195.160,85.800 195.600 C 85.017 196.040,84.111 196.400,83.788 196.400 C 83.465 196.400,83.200 196.580,83.200 196.800 C 83.200 197.020,82.840 197.200,82.400 197.200 C 81.960 197.200,81.600 197.380,81.600 197.600 C 81.600 197.820,81.364 198.000,81.075 198.000 C 80.787 198.000,80.164 198.360,79.692 198.800 C 79.220 199.240,78.556 199.600,78.217 199.600 C 77.878 199.600,77.600 199.780,77.600 200.000 C 77.600 200.220,77.330 200.400,77.000 200.400 C 76.670 200.400,76.400 200.550,76.400 200.732 C 76.400 200.915,75.905 201.319,75.300 201.630 C 74.695 201.940,73.909 202.511,73.553 202.897 C 73.197 203.284,72.684 203.600,72.414 203.600 C 72.143 203.600,71.417 204.140,70.800 204.800 C 70.183 205.460,69.475 206.000,69.226 206.000 C 68.977 206.000,68.169 206.585,67.430 207.300 C 66.691 208.015,65.489 209.050,64.760 209.600 C 63.033 210.902,58.800 215.157,58.800 215.591 C 58.800 215.777,57.810 216.958,56.600 218.218 C 55.390 219.477,54.400 220.714,54.400 220.965 C 54.400 221.217,54.040 221.683,53.600 222.000 C 53.160 222.317,52.800 222.762,52.799 222.988 C 52.799 223.215,52.274 224.014,51.632 224.764 C 50.991 225.514,50.227 226.594,49.933 227.164 C 49.640 227.734,49.085 228.549,48.700 228.975 C 48.315 229.402,48.000 229.987,48.000 230.275 C 48.000 230.564,47.820 230.800,47.600 230.800 C 47.380 230.800,47.200 231.160,47.200 231.600 C 47.200 232.040,47.020 232.400,46.800 232.400 C 46.580 232.400,46.400 232.760,46.400 233.200 C 46.400 233.640,46.220 234.000,46.000 234.000 C 45.780 234.000,45.600 234.360,45.600 234.800 C 45.600 235.240,45.420 235.600,45.200 235.600 C 44.980 235.600,44.800 235.960,44.800 236.400 C 44.800 236.840,44.620 237.200,44.400 237.200 C 44.180 237.200,44.000 237.472,44.000 237.805 C 44.000 238.138,43.820 238.768,43.600 239.205 C 43.380 239.642,43.032 240.338,42.827 240.751 C 42.622 241.164,42.332 242.156,42.182 242.955 C 42.032 243.755,41.750 244.507,41.555 244.628 C 41.360 244.749,41.200 245.377,41.200 246.024 C 41.200 246.671,41.020 247.200,40.800 247.200 C 40.580 247.200,40.400 247.920,40.400 248.800 C 40.400 249.680,40.220 250.400,40.000 250.400 C 39.780 250.400,39.600 251.120,39.600 252.000 C 39.600 252.880,39.420 253.600,39.200 253.600 C 38.980 253.600,38.800 254.500,38.800 255.600 C 38.800 256.700,38.620 257.600,38.400 257.600 C 38.171 257.600,38.000 258.800,38.000 260.400 C 38.000 262.000,37.829 263.200,37.600 263.200 C 37.335 263.200,37.200 285.000,37.200 327.800 C 37.200 370.600,37.335 392.400,37.600 392.400 C 37.820 392.400,38.000 392.940,38.000 393.600 C 38.000 394.260,38.180 394.800,38.400 394.800 C 38.620 394.800,38.800 395.075,38.800 395.411 C 38.800 395.746,39.650 396.871,40.689 397.911 L 42.579 399.800 200.400 399.800 L 358.221 399.800 360.111 397.911 C 361.150 396.871,362.000 395.746,362.000 395.411 C 362.000 395.075,362.180 394.800,362.400 394.800 C 362.620 394.800,362.800 394.260,362.800 393.600 C 362.800 392.940,362.980 392.400,363.200 392.400 C 363.465 392.400,363.600 370.600,363.600 327.800 C 363.600 285.000,363.465 263.200,363.200 263.200 C 362.971 263.200,362.800 262.000,362.800 260.400 C 362.800 258.800,362.629 257.600,362.400 257.600 C 362.180 257.600,362.000 256.700,362.000 255.600 C 362.000 254.500,361.820 253.600,361.600 253.600 C 361.380 253.600,361.200 252.891,361.200 252.024 C 361.200 251.157,361.020 250.336,360.800 250.200 C 360.580 250.064,360.400 249.333,360.400 248.576 C 360.400 247.819,360.220 247.200,360.000 247.200 C 359.780 247.200,359.600 246.660,359.600 246.000 C 359.600 245.340,359.420 244.800,359.200 244.800 C 358.980 244.800,358.800 244.386,358.800 243.880 C 358.800 243.374,358.652 242.789,358.471 242.580 C 358.290 242.371,357.795 241.075,357.371 239.700 C 356.947 238.325,356.465 237.200,356.300 237.200 C 356.135 237.200,356.000 236.840,356.000 236.400 C 356.000 235.960,355.820 235.600,355.600 235.600 C 355.380 235.600,355.200 235.240,355.200 234.800 C 355.200 234.360,355.020 234.000,354.800 234.000 C 354.580 234.000,354.400 233.640,354.400 233.200 C 354.400 232.760,354.220 232.400,354.000 232.400 C 353.780 232.400,353.600 232.040,353.600 231.600 C 353.600 231.160,353.420 230.800,353.200 230.800 C 352.980 230.800,352.800 230.564,352.800 230.275 C 352.800 229.987,352.485 229.402,352.100 228.975 C 351.715 228.549,351.131 227.660,350.803 227.000 C 350.474 226.340,349.889 225.509,349.503 225.153 C 349.116 224.797,348.800 224.329,348.800 224.112 C 348.800 223.896,348.260 223.154,347.600 222.463 C 346.940 221.772,346.400 221.014,346.400 220.778 C 346.400 220.541,345.500 219.471,344.400 218.400 C 343.300 217.329,342.400 216.250,342.400 216.002 C 342.400 215.755,342.220 215.664,342.000 215.800 C 341.780 215.936,341.600 215.751,341.600 215.389 C 341.600 214.692,338.315 211.256,336.057 209.590 C 335.318 209.046,334.109 208.015,333.370 207.300 C 332.631 206.585,331.867 206.000,331.673 206.000 C 331.478 206.000,330.754 205.460,330.063 204.800 C 329.372 204.140,328.602 203.600,328.351 203.600 C 328.099 203.600,327.603 203.284,327.247 202.897 C 326.891 202.511,326.105 201.940,325.500 201.630 C 324.895 201.319,324.400 200.915,324.400 200.732 C 324.400 200.550,324.145 200.400,323.833 200.400 C 323.522 200.400,323.207 200.265,323.133 200.100 C 322.966 199.724,320.836 198.425,319.900 198.129 C 319.515 198.007,319.200 197.748,319.200 197.553 C 319.200 197.359,318.840 197.200,318.400 197.200 C 317.960 197.200,317.600 197.020,317.600 196.800 C 317.600 196.580,317.240 196.400,316.800 196.400 C 316.360 196.400,316.000 196.220,316.000 196.000 C 316.000 195.780,315.728 195.600,315.395 195.600 C 315.062 195.600,314.477 195.441,314.095 195.247 C 313.713 195.052,312.860 194.671,312.200 194.400 C 311.540 194.129,310.687 193.748,310.305 193.553 C 309.923 193.359,309.259 193.200,308.829 193.200 C 308.399 193.200,307.942 193.030,307.814 192.823 C 307.686 192.616,306.773 192.325,305.786 192.177 C 304.798 192.029,303.892 191.748,303.771 191.554 C 303.651 191.359,302.944 191.200,302.200 191.200 C 301.456 191.200,300.736 191.020,300.600 190.800 C 300.464 190.580,299.643 190.400,298.776 190.400 C 297.909 190.400,297.200 190.220,297.200 190.000 C 297.200 189.780,296.221 189.600,295.024 189.600 C 293.827 189.600,292.736 189.420,292.600 189.200 C 292.464 188.980,290.934 188.800,289.200 188.800 C 287.466 188.800,285.936 188.620,285.800 188.400 C 285.664 188.179,283.870 188.000,281.800 188.000 C 279.730 188.000,277.936 188.179,277.800 188.400 C 277.664 188.620,277.068 188.804,276.476 188.809 C 275.884 188.814,274.950 189.170,274.400 189.600 C 273.850 190.030,273.271 190.386,273.113 190.391 C 272.586 190.407,270.000 192.988,270.000 193.497 C 270.000 193.774,269.820 194.000,269.600 194.000 C 269.380 194.000,269.200 194.270,269.200 194.600 C 269.200 194.930,269.020 195.200,268.800 195.200 C 268.580 195.200,268.400 195.560,268.400 196.000 C 268.400 196.440,268.220 196.800,268.000 196.800 C 267.780 196.800,267.600 197.250,267.600 197.800 C 267.600 198.350,267.465 198.801,267.300 198.803 C 266.941 198.807,266.000 200.744,266.000 201.480 C 266.000 201.766,265.820 202.000,265.600 202.000 C 265.380 202.000,265.200 202.360,265.200 202.800 C 265.200 203.240,265.020 203.600,264.800 203.600 C 264.580 203.600,264.400 203.960,264.400 204.400 C 264.400 204.840,264.220 205.200,264.000 205.200 C 263.780 205.200,263.600 205.560,263.600 206.000 C 263.600 206.440,263.420 206.800,263.200 206.800 C 262.980 206.800,262.800 207.145,262.800 207.567 C 262.800 207.988,262.655 208.393,262.479 208.467 C 262.028 208.654,258.400 216.228,258.400 216.982 C 258.400 217.322,258.220 217.600,258.000 217.600 C 257.780 217.600,257.600 217.960,257.600 218.400 C 257.600 218.840,257.420 219.200,257.200 219.200 C 256.980 219.200,256.800 219.560,256.800 220.000 C 256.800 220.440,256.620 220.800,256.400 220.800 C 256.180 220.800,256.000 221.160,256.000 221.600 C 256.000 222.040,255.820 222.400,255.600 222.400 C 255.380 222.400,255.200 222.760,255.200 223.200 C 255.200 223.640,255.020 224.000,254.800 224.000 C 254.580 224.000,254.400 224.349,254.400 224.776 C 254.400 225.203,254.220 225.664,254.000 225.800 C 253.780 225.936,253.600 226.397,253.600 226.824 C 253.600 227.251,253.420 227.600,253.200 227.600 C 252.980 227.600,252.800 227.960,252.800 228.400 C 252.800 228.840,252.620 229.200,252.400 229.200 C 252.180 229.200,252.000 229.560,252.000 230.000 C 252.000 230.440,251.820 230.800,251.600 230.800 C 251.380 230.800,251.200 231.160,251.200 231.600 C 251.200 232.040,251.020 232.400,250.800 232.400 C 250.580 232.400,250.400 232.760,250.400 233.200 C 250.400 233.640,250.220 234.000,250.000 234.000 C 249.780 234.000,249.600 234.360,249.600 234.800 C 249.600 235.240,249.420 235.600,249.200 235.600 C 248.980 235.600,248.800 235.960,248.800 236.400 C 248.800 236.840,248.620 237.200,248.400 237.200 C 248.180 237.200,248.000 237.560,248.000 238.000 C 248.000 238.440,247.820 238.800,247.600 238.800 C 247.380 238.800,247.200 239.160,247.200 239.600 C 247.200 240.040,247.020 240.400,246.800 240.400 C 246.580 240.400,246.400 240.760,246.400 241.200 C 246.400 241.640,246.220 242.000,246.000 242.000 C 245.780 242.000,245.600 242.345,245.600 242.767 C 245.600 243.188,245.464 243.593,245.298 243.667 C 245.032 243.784,244.162 245.602,241.118 252.400 C 240.675 253.390,240.152 254.513,239.956 254.895 C 239.760 255.277,239.600 255.862,239.600 256.195 C 239.600 256.528,239.420 256.800,239.200 256.800 C 238.980 256.800,238.800 257.160,238.800 257.600 C 238.800 258.040,238.620 258.400,238.400 258.400 C 238.180 258.400,238.000 258.670,238.000 259.000 C 238.000 259.330,237.820 259.600,237.600 259.600 C 237.380 259.600,237.200 259.960,237.200 260.400 C 237.200 260.840,237.020 261.200,236.800 261.200 C 236.580 261.200,236.400 261.560,236.400 262.000 C 236.400 262.440,236.220 262.800,236.000 262.800 C 235.780 262.800,235.600 263.160,235.600 263.600 C 235.600 264.040,235.420 264.400,235.200 264.400 C 234.980 264.400,234.800 264.760,234.800 265.200 C 234.800 265.640,234.620 266.000,234.400 266.000 C 234.180 266.000,234.000 266.360,234.000 266.800 C 234.000 267.240,233.820 267.600,233.600 267.600 C 233.380 267.600,233.200 267.960,233.200 268.400 C 233.200 268.840,233.020 269.200,232.800 269.200 C 232.567 269.200,232.400 267.875,232.400 266.024 C 232.400 264.277,232.220 262.736,232.000 262.600 C 231.780 262.464,231.600 261.049,231.600 259.456 C 231.600 257.863,231.434 256.389,231.231 256.180 C 230.887 255.826,230.749 254.606,230.164 246.800 C 230.041 245.150,229.773 243.629,229.570 243.420 C 229.366 243.211,229.200 241.647,229.200 239.944 C 229.200 238.241,229.020 236.736,228.800 236.600 C 227.716 235.930,229.782 233.209,233.200 230.804 C 233.970 230.263,235.625 228.780,236.878 227.510 C 238.131 226.239,239.254 225.200,239.375 225.200 C 240.105 225.200,244.800 220.485,244.800 219.752 C 244.800 219.448,244.980 219.200,245.200 219.200 C 245.420 219.200,245.600 218.851,245.600 218.424 C 245.600 217.997,245.780 217.536,246.000 217.400 C 246.951 216.812,246.112 208.400,245.103 208.400 C 244.936 208.400,244.800 208.125,244.800 207.789 C 244.800 207.454,244.035 206.406,243.100 205.462 C 242.165 204.517,240.950 203.206,240.400 202.549 C 239.850 201.892,238.596 200.734,237.612 199.977 C 236.629 199.220,235.009 197.785,234.012 196.789 C 233.016 195.793,231.570 194.538,230.800 194.000 C 228.775 192.585,228.572 192.413,226.185 190.100 C 224.993 188.945,223.925 188.000,223.812 188.000 C 223.698 188.000,222.331 186.740,220.772 185.200 C 219.214 183.660,217.761 182.400,217.543 182.400 C 217.326 182.400,216.305 181.543,215.274 180.497 C 214.243 179.450,212.590 177.966,211.600 177.200 C 210.610 176.434,209.566 175.625,209.281 175.404 C 208.995 175.182,208.365 174.640,207.881 174.200 C 205.586 172.115,199.452 170.803,197.600 172.000 M204.483 201.249 C 206.527 203.036,209.460 205.623,211.000 206.999 C 212.540 208.374,214.610 210.197,215.600 211.050 C 218.701 213.720,218.854 213.156,213.833 217.552 L 209.667 221.200 200.497 221.200 L 191.327 221.200 187.166 217.609 C 182.117 213.251,182.269 213.699,185.039 211.340 C 186.293 210.273,187.880 208.860,188.566 208.200 C 189.252 207.540,190.981 206.011,192.407 204.802 C 193.833 203.594,195.090 202.514,195.200 202.402 C 196.547 201.039,200.147 198.000,200.415 198.000 C 200.608 198.000,202.439 199.462,204.483 201.249 M115.285 213.233 C 117.607 217.837,119.600 222.190,119.600 222.657 C 119.600 222.956,119.780 223.200,120.000 223.200 C 120.220 223.200,120.400 223.560,120.400 224.000 C 120.400 224.440,120.580 224.800,120.800 224.800 C 121.020 224.800,121.200 225.160,121.200 225.600 C 121.200 226.040,121.380 226.400,121.600 226.400 C 121.820 226.400,122.000 226.760,122.000 227.200 C 122.000 227.640,122.180 228.000,122.400 228.000 C 122.620 228.000,122.800 228.360,122.800 228.800 C 122.800 229.240,122.980 229.600,123.200 229.600 C 123.420 229.600,123.600 229.960,123.600 230.400 C 123.600 230.840,123.780 231.200,124.000 231.200 C 124.220 231.200,124.400 231.438,124.400 231.730 C 124.400 232.021,125.480 234.393,126.800 237.000 C 128.120 239.607,129.200 241.979,129.200 242.270 C 129.200 242.562,129.380 242.800,129.600 242.800 C 129.820 242.800,130.000 243.160,130.000 243.600 C 130.000 244.040,130.180 244.400,130.400 244.400 C 130.620 244.400,130.800 244.619,130.800 244.887 C 130.800 245.373,131.958 247.819,138.249 260.617 C 140.092 264.366,141.600 267.651,141.600 267.917 C 141.600 268.182,141.780 268.400,142.000 268.400 C 142.220 268.400,142.400 268.760,142.400 269.200 C 142.400 269.640,142.580 270.000,142.800 270.000 C 143.020 270.000,143.200 270.215,143.200 270.477 C 143.200 270.739,145.070 274.744,147.356 279.377 C 149.642 284.010,152.184 289.240,153.004 291.000 C 153.825 292.760,157.152 299.600,160.399 306.200 C 163.645 312.800,166.702 319.100,167.192 320.200 C 167.683 321.300,170.294 326.700,172.996 332.200 C 175.698 337.700,179.299 345.080,180.998 348.600 C 182.697 352.120,185.238 357.348,186.644 360.218 C 188.050 363.089,189.200 365.654,189.200 365.918 C 189.200 366.183,189.380 366.400,189.600 366.400 C 189.820 366.400,190.000 366.683,190.000 367.028 C 190.000 368.682,193.343 372.487,196.078 373.947 C 197.807 374.870,203.706 375.199,204.200 374.400 C 204.336 374.180,204.705 374.000,205.019 374.000 C 206.114 374.000,210.796 369.543,210.801 368.495 C 210.803 368.213,212.583 364.499,218.238 352.982 C 219.647 350.111,220.800 347.546,220.800 347.282 C 220.800 347.017,220.980 346.800,221.200 346.800 C 221.420 346.800,221.600 346.440,221.600 346.000 C 221.600 345.560,221.780 345.200,222.000 345.200 C 222.220 345.200,222.400 344.840,222.400 344.400 C 222.400 343.960,222.580 343.600,222.800 343.600 C 223.020 343.600,223.200 343.240,223.200 342.800 C 223.200 342.360,223.380 342.000,223.600 342.000 C 223.820 342.000,224.000 341.776,224.000 341.503 C 224.000 341.230,224.790 339.385,225.755 337.403 C 226.720 335.421,228.722 331.280,230.205 328.200 C 233.820 320.689,239.133 309.769,244.606 298.600 C 247.086 293.540,249.513 288.500,250.000 287.400 C 250.488 286.300,253.367 280.360,256.399 274.200 C 259.431 268.040,262.760 261.200,263.798 259.000 C 264.836 256.800,267.375 251.573,269.442 247.384 C 271.509 243.196,273.200 239.551,273.200 239.284 C 273.200 239.018,273.380 238.800,273.600 238.800 C 273.820 238.800,274.000 238.440,274.000 238.000 C 274.000 237.560,274.180 237.200,274.400 237.200 C 274.620 237.200,274.800 236.962,274.800 236.670 C 274.800 236.379,275.880 234.007,277.200 231.400 C 278.520 228.793,279.600 226.421,279.600 226.130 C 279.600 225.838,279.780 225.600,280.000 225.600 C 280.220 225.600,280.400 225.377,280.400 225.105 C 280.400 224.675,284.687 215.618,286.225 212.800 C 286.560 212.186,287.047 211.852,287.485 211.934 C 287.878 212.008,289.190 212.219,290.400 212.404 C 295.851 213.235,301.927 215.177,306.997 217.709 C 309.737 219.078,315.783 222.846,316.400 223.570 C 316.510 223.699,317.281 224.313,318.114 224.934 C 320.088 226.405,325.420 231.744,327.185 234.017 C 327.947 234.998,328.712 235.860,328.885 235.933 C 329.058 236.007,329.200 236.294,329.200 236.571 C 329.200 236.849,329.560 237.402,330.000 237.800 C 330.440 238.198,330.800 238.668,330.800 238.844 C 330.800 239.020,331.267 239.847,331.837 240.682 C 332.408 241.517,333.583 243.730,334.449 245.600 C 335.314 247.470,336.198 249.313,336.411 249.695 C 336.625 250.077,336.800 250.741,336.800 251.171 C 336.800 251.601,336.980 252.064,337.200 252.200 C 337.420 252.336,337.600 252.876,337.600 253.400 C 337.600 253.924,337.780 254.464,338.000 254.600 C 338.220 254.736,338.400 255.456,338.400 256.200 C 338.400 256.944,338.580 257.664,338.800 257.800 C 339.020 257.936,339.200 258.721,339.200 259.544 C 339.200 260.367,339.362 261.211,339.561 261.420 C 340.376 262.279,340.511 270.663,340.554 323.200 L 340.600 378.200 200.700 378.301 L 60.800 378.401 60.800 320.624 C 60.800 282.538,60.936 262.763,61.200 262.600 C 61.420 262.464,61.600 261.564,61.600 260.600 C 61.600 259.636,61.780 258.736,62.000 258.600 C 62.220 258.464,62.400 257.821,62.400 257.171 C 62.400 256.521,62.559 255.677,62.754 255.295 C 62.949 254.913,63.506 253.340,63.994 251.800 C 64.481 250.260,65.573 247.560,66.421 245.800 C 67.817 242.902,68.433 241.804,70.986 237.672 C 71.419 236.973,71.914 236.400,72.086 236.400 C 72.259 236.400,72.400 236.207,72.400 235.971 C 72.400 235.736,72.625 235.315,72.900 235.038 C 73.175 234.760,74.210 233.574,75.200 232.404 C 77.752 229.386,78.706 228.432,81.200 226.402 C 82.410 225.417,83.490 224.519,83.600 224.405 C 84.305 223.681,87.218 221.600,87.528 221.600 C 87.734 221.600,88.119 221.339,88.384 221.019 C 88.816 220.498,89.573 220.062,93.800 217.892 C 97.706 215.888,102.770 214.000,104.239 214.000 C 104.742 214.000,105.264 213.820,105.400 213.600 C 105.536 213.380,106.256 213.200,107.000 213.200 C 107.744 213.200,108.464 213.020,108.600 212.800 C 108.736 212.580,109.692 212.397,110.724 212.394 C 111.756 212.391,112.870 212.213,113.200 212.000 C 114.072 211.437,114.510 211.697,115.285 213.233 M206.647 242.477 C 206.810 242.739,207.102 244.494,207.298 246.377 C 207.648 249.739,207.907 252.020,208.800 259.600 C 209.046 261.690,209.405 264.750,209.597 266.400 C 209.789 268.050,210.138 270.975,210.373 272.900 C 210.803 276.422,211.255 280.238,212.008 286.700 C 212.506 290.974,213.050 295.549,213.566 299.800 C 214.569 308.076,214.734 310.520,214.357 311.512 C 214.011 312.422,207.982 324.844,202.869 335.179 C 200.477 340.017,200.547 340.023,198.011 334.707 C 196.829 332.228,193.713 325.802,191.086 320.426 L 186.309 310.652 186.557 307.226 C 186.693 305.342,186.979 302.360,187.192 300.600 C 187.404 298.840,187.775 295.780,188.016 293.800 C 188.257 291.820,188.610 288.850,188.800 287.200 C 188.990 285.550,189.338 282.625,189.573 280.700 C 189.808 278.775,190.192 275.625,190.427 273.700 C 190.662 271.775,191.010 268.850,191.200 267.200 C 191.390 265.550,191.742 262.580,191.981 260.600 C 192.744 254.286,193.190 250.488,193.568 247.100 C 194.189 241.526,193.552 242.000,200.423 242.000 C 204.582 242.000,206.441 242.142,206.647 242.477 " stroke="none" fill="#144c84" fill-rule="evenodd"></path><path id="path3" d="M199.362 199.300 L 198.600 200.200 199.475 199.461 C 199.968 199.044,200.562 198.853,200.837 199.023 C 201.147 199.215,201.220 199.156,201.038 198.862 C 200.620 198.185,200.216 198.291,199.362 199.300 M212.000 208.525 C 212.000 208.594,212.585 209.179,213.300 209.825 L 214.600 211.000 213.425 209.700 C 212.330 208.488,212.000 208.216,212.000 208.525 M186.575 210.500 L 185.400 211.800 186.700 210.625 C 187.912 209.530,188.184 209.200,187.875 209.200 C 187.806 209.200,187.221 209.785,186.575 210.500 M111.300 212.676 C 111.685 212.776,112.315 212.776,112.700 212.676 C 113.085 212.575,112.770 212.493,112.000 212.493 C 111.230 212.493,110.915 212.575,111.300 212.676 M288.500 212.676 C 288.885 212.776,289.515 212.776,289.900 212.676 C 290.285 212.575,289.970 212.493,289.200 212.493 C 288.430 212.493,288.115 212.575,288.500 212.676 M195.900 220.699 C 198.375 220.769,202.425 220.769,204.900 220.699 C 207.375 220.628,205.350 220.571,200.400 220.571 C 195.450 220.571,193.425 220.628,195.900 220.699 M78.000 229.800 C 77.028 230.790,76.323 231.600,76.433 231.600 C 76.543 231.600,77.428 230.790,78.400 229.800 C 79.372 228.810,80.077 228.000,79.967 228.000 C 79.857 228.000,78.972 228.810,78.000 229.800 M99.200 240.252 C 92.342 245.066,87.058 252.099,84.514 259.800 C 82.984 264.432,82.800 265.960,82.800 274.006 L 82.800 282.000 95.805 282.000 C 102.958 282.000,109.123 282.154,109.505 282.343 C 112.288 283.717,113.153 284.255,114.287 285.321 C 118.885 289.645,117.991 298.668,112.635 301.978 C 109.662 303.816,108.139 303.991,95.100 303.996 L 82.800 304.000 82.800 312.600 L 82.800 321.200 85.985 321.200 C 93.698 321.200,98.400 325.402,98.400 332.294 C 98.400 338.962,94.724 342.406,87.200 342.787 L 83.000 343.000 83.000 349.600 L 83.000 356.200 120.932 356.302 C 141.794 356.358,159.097 356.268,159.382 356.102 C 159.770 355.876,158.964 353.887,156.179 348.200 C 148.047 331.593,142.800 320.783,142.800 320.636 C 142.800 320.494,139.350 313.390,128.700 291.600 C 126.496 287.090,124.068 282.050,123.304 280.400 C 122.540 278.750,119.973 273.440,117.600 268.600 C 115.227 263.760,111.910 256.920,110.228 253.400 C 101.977 236.130,103.124 237.497,99.200 240.252 M298.114 238.900 C 297.723 239.411,295.499 243.950,291.796 251.800 C 290.655 254.220,287.911 259.890,285.699 264.400 C 283.486 268.910,280.198 275.660,278.392 279.400 C 276.585 283.140,273.847 288.810,272.306 292.000 C 270.766 295.190,267.972 300.950,266.098 304.800 C 264.224 308.650,261.480 314.320,260.000 317.400 C 255.915 325.902,252.005 333.961,246.549 345.122 C 243.827 350.689,241.600 355.504,241.600 355.822 C 241.600 356.474,316.894 356.709,317.918 356.059 C 318.621 355.613,318.431 265.669,317.722 263.800 C 317.472 263.140,317.060 261.880,316.807 261.000 C 314.542 253.125,308.463 244.839,301.538 240.188 C 298.551 238.182,298.640 238.215,298.114 238.900 M206.914 248.200 C 206.917 249.300,206.995 249.703,207.087 249.095 C 207.179 248.486,207.177 247.586,207.082 247.095 C 206.987 246.603,206.911 247.100,206.914 248.200 M193.709 249.200 C 193.709 250.190,193.787 250.595,193.882 250.100 C 193.978 249.605,193.978 248.795,193.882 248.300 C 193.787 247.805,193.709 248.210,193.709 249.200 M207.709 255.200 C 207.709 256.190,207.787 256.595,207.882 256.100 C 207.978 255.605,207.978 254.795,207.882 254.300 C 207.787 253.805,207.709 254.210,207.709 255.200 M192.914 255.800 C 192.917 256.900,192.995 257.303,193.087 256.695 C 193.179 256.086,193.177 255.186,193.082 254.695 C 192.987 254.203,192.911 254.700,192.914 255.800 M192.109 262.800 C 192.109 263.790,192.187 264.195,192.282 263.700 C 192.378 263.205,192.378 262.395,192.282 261.900 C 192.187 261.405,192.109 261.810,192.109 262.800 M208.493 262.400 C 208.493 263.170,208.575 263.485,208.676 263.100 C 208.776 262.715,208.776 262.085,208.676 261.700 C 208.575 261.315,208.493 261.630,208.493 262.400 M339.714 266.600 C 339.717 267.700,339.795 268.103,339.887 267.495 C 339.979 266.886,339.977 265.986,339.882 265.495 C 339.787 265.003,339.711 265.500,339.714 266.600 M60.994 321.800 C 60.995 352.600,61.042 365.141,61.100 349.669 C 61.158 334.197,61.158 308.997,61.100 293.669 C 61.042 278.341,60.994 291.000,60.994 321.800 M191.293 270.000 C 191.293 270.770,191.375 271.085,191.476 270.700 C 191.576 270.315,191.576 269.685,191.476 269.300 C 191.375 268.915,191.293 269.230,191.293 270.000 M340.000 324.480 C 339.890 353.894,339.936 377.824,340.101 377.659 C 340.267 377.493,340.357 353.427,340.301 324.179 L 340.200 271.000 340.000 324.480 M190.493 276.800 C 190.493 277.570,190.575 277.885,190.676 277.500 C 190.776 277.115,190.776 276.485,190.676 276.100 C 190.575 275.715,190.493 276.030,190.493 276.800 " stroke="none" fill="#54ace4" fill-rule="evenodd"></path><path id="path4" d="M195.114 22.619 C 194.993 22.740,193.568 23.017,191.947 23.236 C 186.687 23.945,185.998 24.079,185.778 24.436 C 185.547 24.809,187.528 24.556,189.200 23.999 C 191.125 23.357,195.449 23.000,201.287 23.000 C 204.525 23.000,206.865 22.878,206.487 22.728 C 205.665 22.403,195.428 22.305,195.114 22.619 M207.800 23.398 C 208.818 23.743,212.062 23.885,211.554 23.563 C 211.249 23.370,210.190 23.224,209.200 23.238 C 208.210 23.252,207.580 23.324,207.800 23.398 M213.000 24.257 C 214.274 24.517,216.928 25.263,217.800 25.605 C 218.553 25.901,220.084 26.429,221.721 26.958 C 222.143 27.094,222.340 27.027,222.197 26.795 C 222.063 26.578,221.614 26.400,221.200 26.400 C 220.786 26.400,220.336 26.220,220.200 26.000 C 220.064 25.780,219.601 25.600,219.171 25.600 C 218.741 25.600,218.077 25.442,217.695 25.249 C 216.411 24.600,214.151 24.000,213.172 24.046 C 212.380 24.084,212.348 24.123,213.000 24.257 M183.000 25.200 C 182.864 25.420,182.401 25.600,181.971 25.600 C 181.541 25.600,180.877 25.765,180.495 25.966 C 180.113 26.168,179.080 26.637,178.200 27.009 C 175.257 28.254,172.387 29.698,172.175 30.041 C 172.060 30.227,173.471 29.657,175.311 28.775 C 177.151 27.892,180.174 26.642,182.028 25.998 C 184.129 25.269,184.994 24.822,184.324 24.814 C 183.732 24.806,183.136 24.980,183.000 25.200 M225.800 28.851 C 234.406 33.225,242.725 40.550,247.772 48.199 C 251.430 53.741,251.816 53.859,248.428 48.400 C 243.546 40.534,227.438 27.088,223.045 27.213 C 222.800 27.219,224.040 27.957,225.800 28.851 M167.900 32.614 C 165.302 34.520,165.501 34.740,168.200 32.947 C 169.410 32.144,170.400 31.422,170.400 31.343 C 170.400 30.954,169.627 31.347,167.900 32.614 M161.171 38.257 C 158.929 40.425,156.354 43.173,155.448 44.363 C 152.756 47.896,151.547 49.680,151.725 49.858 C 151.816 49.950,152.212 49.524,152.604 48.912 C 155.446 44.474,162.614 36.598,164.997 35.295 C 165.435 35.056,165.670 34.737,165.520 34.587 C 165.369 34.436,163.412 36.088,161.171 38.257 M149.425 53.625 C 148.818 54.741,148.408 55.741,148.514 55.848 C 148.621 55.954,149.177 55.100,149.750 53.950 C 151.102 51.237,150.858 50.992,149.425 53.625 M254.028 60.276 C 254.118 61.315,254.744 62.196,254.772 61.324 C 254.787 60.842,254.620 60.336,254.400 60.200 C 254.180 60.064,254.013 60.098,254.028 60.276 M254.828 62.676 C 254.918 63.715,255.544 64.596,255.572 63.724 C 255.587 63.242,255.420 62.736,255.200 62.600 C 254.980 62.464,254.813 62.498,254.828 62.676 M145.467 63.067 C 145.320 63.213,145.211 63.708,145.225 64.167 C 145.249 64.933,145.282 64.923,145.634 64.042 C 146.026 63.063,145.944 62.589,145.467 63.067 M255.863 66.480 C 256.200 68.249,256.400 68.401,256.400 66.890 C 256.400 66.207,256.223 65.538,256.006 65.404 C 255.760 65.252,255.706 65.655,255.863 66.480 M144.667 65.867 C 144.520 66.013,144.418 66.688,144.441 67.367 L 144.482 68.600 144.810 67.203 C 145.153 65.747,145.117 65.416,144.667 65.867 M256.683 70.707 C 256.950 73.461,257.132 73.694,257.168 71.324 C 257.186 70.182,257.042 69.150,256.850 69.031 C 256.657 68.912,256.582 69.666,256.683 70.707 M143.849 69.815 C 143.712 70.173,143.624 71.306,143.652 72.333 C 143.705 74.188,143.707 74.185,144.013 71.800 C 144.332 69.318,144.280 68.692,143.849 69.815 M257.400 79.761 C 257.400 83.176,257.522 85.662,257.672 85.285 C 258.017 84.417,258.007 75.708,257.660 74.476 C 257.517 73.968,257.400 76.347,257.400 79.761 M143.050 76.450 C 142.726 78.068,142.798 82.713,143.166 84.000 C 143.323 84.550,143.455 82.795,143.459 80.100 C 143.467 74.834,143.433 74.533,143.050 76.450 M143.632 87.676 C 143.614 88.928,143.753 90.047,143.940 90.163 C 144.127 90.278,144.203 89.434,144.108 88.287 C 143.862 85.293,143.668 85.045,143.632 87.676 M256.870 88.267 C 256.831 89.184,256.696 90.264,256.570 90.667 C 256.353 91.356,256.367 91.357,256.793 90.695 C 257.042 90.307,257.177 89.227,257.093 88.295 L 256.940 86.600 256.870 88.267 M144.400 92.310 C 144.400 92.993,144.577 93.662,144.794 93.796 C 145.040 93.948,145.094 93.545,144.937 92.720 C 144.600 90.951,144.400 90.799,144.400 92.310 M255.968 92.900 C 255.849 93.760,255.910 94.250,256.112 94.048 C 256.305 93.855,256.398 93.181,256.319 92.549 C 256.187 91.491,256.159 91.519,255.968 92.900 M145.206 95.433 C 145.209 95.855,145.395 96.470,145.618 96.800 C 145.915 97.238,145.952 97.076,145.756 96.200 C 145.427 94.729,145.198 94.410,145.206 95.433 M147.618 102.051 C 147.580 102.580,148.857 105.276,149.052 105.081 C 149.165 104.968,148.893 104.184,148.447 103.338 C 148.000 102.492,147.627 101.913,147.618 102.051 M251.478 105.405 C 251.112 106.172,250.895 106.800,250.996 106.800 C 251.270 106.800,252.484 104.351,252.301 104.168 C 252.214 104.081,251.844 104.638,251.478 105.405 M149.209 105.900 C 149.214 106.065,149.585 106.650,150.033 107.200 L 150.848 108.200 150.214 106.900 C 149.611 105.665,149.189 105.245,149.209 105.900 M152.277 111.100 C 153.410 112.892,155.600 115.739,155.600 115.419 C 155.600 115.089,154.093 112.876,153.339 112.098 C 153.072 111.821,152.738 111.236,152.599 110.798 C 152.460 110.359,152.174 110.000,151.964 110.000 C 151.754 110.000,151.894 110.495,152.277 111.100 M247.793 111.700 C 243.218 118.686,235.109 126.134,228.100 129.789 C 226.029 130.869,225.336 131.425,226.700 130.912 C 231.646 129.052,241.258 121.039,245.785 115.000 C 248.190 111.792,249.378 110.000,249.099 110.000 C 248.993 110.000,248.405 110.765,247.793 111.700 M156.000 116.021 C 156.000 116.468,162.564 123.177,164.200 124.403 C 164.640 124.732,165.519 125.407,166.154 125.901 C 166.789 126.395,167.504 126.800,167.743 126.800 C 167.982 126.800,167.733 126.498,167.189 126.128 C 164.593 124.364,159.709 120.015,157.954 117.906 C 156.879 116.615,156.000 115.767,156.000 116.021 M168.033 127.357 C 168.125 127.443,168.920 127.923,169.800 128.424 C 170.680 128.924,172.165 129.769,173.100 130.301 C 174.035 130.833,174.800 131.189,174.800 131.091 C 174.800 130.852,168.595 127.200,168.188 127.200 C 168.011 127.200,167.942 127.271,168.033 127.357 M221.800 132.829 C 220.920 133.252,220.650 133.486,221.200 133.349 C 222.333 133.067,224.412 132.025,223.800 132.046 C 223.580 132.053,222.680 132.406,221.800 132.829 M181.200 134.000 C 181.530 134.213,182.070 134.388,182.400 134.388 C 182.933 134.388,182.933 134.345,182.400 134.000 C 182.070 133.787,181.530 133.612,181.200 133.612 C 180.667 133.612,180.667 133.655,181.200 134.000 M183.600 134.800 C 183.930 135.013,184.470 135.188,184.800 135.188 C 185.333 135.188,185.333 135.145,184.800 134.800 C 184.470 134.587,183.930 134.412,183.600 134.412 C 183.067 134.412,183.067 134.455,183.600 134.800 M216.000 134.800 C 215.467 135.145,215.467 135.188,216.000 135.188 C 216.330 135.188,216.870 135.013,217.200 134.800 C 217.733 134.455,217.733 134.412,217.200 134.412 C 216.870 134.412,216.330 134.587,216.000 134.800 M186.600 135.600 C 186.736 135.820,187.242 135.987,187.724 135.972 C 188.569 135.945,188.571 135.931,187.800 135.600 C 186.699 135.127,186.308 135.127,186.600 135.600 M213.000 135.600 C 212.229 135.931,212.231 135.945,213.076 135.972 C 213.558 135.987,214.064 135.820,214.200 135.600 C 214.492 135.127,214.101 135.127,213.000 135.600 M190.400 136.379 C 190.730 136.604,191.525 136.791,192.167 136.794 C 193.704 136.802,193.384 136.570,191.400 136.238 C 190.254 136.046,189.970 136.086,190.400 136.379 M208.600 136.400 L 207.400 136.705 208.600 136.747 C 209.260 136.769,210.070 136.613,210.400 136.400 C 211.143 135.920,210.487 135.920,208.600 136.400 M198.494 137.296 C 200.003 137.555,201.439 137.553,202.694 137.292 C 204.413 136.934,204.188 136.895,200.400 136.899 C 196.354 136.903,196.284 136.917,198.494 137.296 M197.635 200.200 C 196.279 201.410,195.298 202.400,195.454 202.400 C 195.610 202.400,196.789 201.485,198.075 200.368 L 200.411 198.335 202.506 200.060 C 203.658 201.009,204.870 202.059,205.200 202.393 C 206.777 203.988,212.000 208.438,212.000 208.186 C 212.000 207.887,210.666 206.656,204.483 201.250 C 200.068 197.390,200.680 197.483,197.635 200.200 M193.200 204.067 C 188.709 208.056,188.000 208.727,188.000 208.986 C 188.000 209.215,192.205 205.659,194.723 203.300 C 195.887 202.210,194.511 202.903,193.200 204.067 M214.950 210.909 L 217.701 213.490 215.788 215.245 C 214.736 216.210,213.678 217.192,213.437 217.427 C 213.197 217.662,212.131 218.517,211.069 219.327 L 209.139 220.800 200.406 220.800 L 191.673 220.800 189.337 218.911 C 182.895 213.705,182.934 213.788,185.700 211.132 L 187.800 209.116 185.759 210.746 C 184.637 211.642,183.482 212.660,183.194 213.008 C 182.576 213.752,182.277 213.414,187.558 217.963 L 191.317 221.200 200.492 221.200 L 209.667 221.200 213.833 217.552 C 216.125 215.546,218.000 213.753,218.000 213.568 C 218.000 213.194,215.749 211.066,213.600 209.407 C 212.830 208.813,213.438 209.489,214.950 210.909 M113.200 212.000 C 112.715 212.314,112.771 212.389,113.496 212.394 C 114.238 212.399,114.745 213.131,116.433 216.630 C 117.555 218.957,118.553 220.780,118.651 220.682 C 118.915 220.418,114.666 211.877,114.200 211.735 C 113.980 211.668,113.530 211.787,113.200 212.000 M286.246 212.586 C 285.891 213.128,285.600 213.733,285.600 213.931 C 285.600 214.128,284.916 215.619,284.081 217.245 C 282.464 220.388,281.934 221.600,282.173 221.600 C 282.254 221.600,283.350 219.530,284.609 217.000 C 286.449 213.301,287.064 212.399,287.748 212.394 C 288.445 212.389,288.491 212.317,288.000 212.000 C 287.130 211.437,286.962 211.493,286.246 212.586 M108.590 212.816 C 108.421 213.089,108.723 213.138,109.466 212.960 C 110.999 212.592,111.144 212.400,109.890 212.400 C 109.317 212.400,108.732 212.587,108.590 212.816 M291.200 212.800 C 292.742 213.294,293.564 213.294,292.800 212.800 C 292.470 212.587,291.750 212.427,291.200 212.446 L 290.200 212.480 291.200 212.800 M294.800 213.600 C 295.130 213.813,295.670 213.988,296.000 213.988 C 296.533 213.988,296.533 213.945,296.000 213.600 C 295.670 213.387,295.130 213.212,294.800 213.212 C 294.267 213.212,294.267 213.255,294.800 213.600 M102.200 214.400 L 101.400 214.744 102.200 214.766 C 102.640 214.778,103.270 214.613,103.600 214.400 C 104.395 213.886,103.396 213.886,102.200 214.400 M297.600 214.400 C 297.930 214.613,298.470 214.788,298.800 214.788 C 299.333 214.788,299.333 214.745,298.800 214.400 C 298.470 214.187,297.930 214.012,297.600 214.012 C 297.067 214.012,297.067 214.055,297.600 214.400 M100.000 215.090 C 98.646 215.603,94.145 217.645,93.400 218.084 C 92.960 218.344,91.760 218.980,90.733 219.497 C 89.706 220.015,88.649 220.700,88.384 221.019 C 88.119 221.339,87.734 221.600,87.528 221.600 C 87.218 221.600,84.305 223.681,83.600 224.405 C 83.490 224.519,82.410 225.417,81.200 226.402 C 78.706 228.432,77.752 229.386,75.200 232.404 C 74.210 233.574,73.175 234.760,72.900 235.038 C 72.625 235.315,72.400 235.736,72.400 235.971 C 72.400 236.207,72.259 236.400,72.086 236.400 C 71.781 236.400,71.403 236.954,69.096 240.772 C 67.292 243.759,65.534 247.267,65.738 247.472 C 65.843 247.577,66.490 246.524,67.176 245.131 C 72.966 233.379,82.739 223.725,94.600 218.043 C 96.580 217.094,98.513 216.157,98.895 215.959 C 99.277 215.762,99.851 215.600,100.171 215.600 C 100.491 215.600,100.864 215.420,101.000 215.200 C 101.267 214.767,100.946 214.732,100.000 215.090 M300.000 215.200 C 300.330 215.413,300.870 215.588,301.200 215.588 C 301.733 215.588,301.733 215.545,301.200 215.200 C 300.870 214.987,300.330 214.812,300.000 214.812 C 299.467 214.812,299.467 214.855,300.000 215.200 M302.174 215.957 C 302.324 216.201,302.682 216.400,302.968 216.400 C 303.460 216.400,307.448 218.372,311.000 220.371 C 319.184 224.976,329.523 236.123,333.751 244.900 C 334.888 247.260,335.481 247.992,334.795 246.188 C 334.266 244.795,332.018 240.738,331.349 239.969 C 331.047 239.621,330.800 239.154,330.800 238.930 C 330.800 238.707,330.440 238.198,330.000 237.800 C 329.560 237.402,329.200 236.849,329.200 236.571 C 329.200 236.294,329.058 236.007,328.885 235.933 C 328.712 235.860,327.947 234.998,327.185 234.017 C 325.420 231.744,320.088 226.405,318.114 224.934 C 317.281 224.313,316.510 223.699,316.400 223.570 C 314.748 221.633,301.201 214.384,302.174 215.957 M281.042 223.237 C 280.106 225.113,280.290 225.676,281.247 223.862 C 281.693 223.016,281.974 222.240,281.871 222.137 C 281.768 222.034,281.395 222.529,281.042 223.237 M275.442 234.837 C 274.506 236.713,274.690 237.276,275.647 235.462 C 276.093 234.616,276.374 233.840,276.271 233.737 C 276.168 233.634,275.795 234.129,275.442 234.837 M125.562 235.300 C 126.135 236.805,134.043 252.800,134.215 252.800 C 134.467 252.800,133.959 251.634,132.319 248.445 C 131.484 246.819,130.800 245.244,130.800 244.945 C 130.800 244.645,130.620 244.400,130.400 244.400 C 130.180 244.400,130.000 244.040,130.000 243.600 C 130.000 243.160,129.820 242.800,129.600 242.800 C 129.380 242.800,129.200 242.576,129.200 242.303 C 129.200 241.773,125.629 234.400,125.372 234.400 C 125.288 234.400,125.374 234.805,125.562 235.300 M273.200 239.277 C 273.200 239.539,271.296 243.605,268.968 248.312 C 266.640 253.018,264.827 256.960,264.939 257.072 C 265.051 257.184,265.622 256.223,266.208 254.938 C 267.065 253.061,273.263 240.278,273.888 239.100 C 273.976 238.935,273.857 238.800,273.624 238.800 C 273.391 238.800,273.200 239.015,273.200 239.277 M194.400 242.300 C 194.399 242.465,197.053 242.600,200.296 242.600 L 206.193 242.600 206.658 244.600 C 207.050 246.287,207.129 246.400,207.162 245.326 C 207.183 244.625,207.024 243.590,206.810 243.026 L 206.420 242.000 200.410 242.000 C 197.104 242.000,194.400 242.135,194.400 242.300 M193.897 244.000 C 193.740 244.550,193.627 245.630,193.646 246.400 L 193.680 247.800 194.055 246.200 C 194.505 244.277,194.367 242.358,193.897 244.000 M207.251 249.600 C 207.248 250.150,207.395 251.320,207.577 252.200 L 207.908 253.800 207.926 252.000 C 207.936 251.010,207.789 249.840,207.600 249.400 C 207.286 248.670,207.256 248.687,207.251 249.600 M192.988 251.338 C 192.839 252.335,192.799 253.386,192.900 253.675 C 193.000 253.964,193.218 253.243,193.382 252.074 C 193.547 250.905,193.587 249.854,193.471 249.738 C 193.355 249.622,193.138 250.342,192.988 251.338 M134.434 253.400 C 134.434 253.620,134.778 254.430,135.200 255.200 C 135.622 255.970,135.966 256.420,135.966 256.200 C 135.966 255.980,135.622 255.170,135.200 254.400 C 134.778 253.630,134.434 253.180,134.434 253.400 M337.628 254.676 C 337.718 255.715,338.344 256.596,338.372 255.724 C 338.387 255.242,338.220 254.736,338.000 254.600 C 337.780 254.464,337.613 254.498,337.628 254.676 M208.255 258.200 C 208.389 259.740,208.566 261.075,208.649 261.167 C 208.972 261.524,208.723 256.954,208.378 256.200 C 208.139 255.679,208.097 256.376,208.255 258.200 M192.290 257.550 C 192.131 258.293,192.020 259.463,192.044 260.150 C 192.081 261.217,192.141 261.136,192.449 259.600 C 192.648 258.610,192.759 257.440,192.696 257.000 C 192.618 256.459,192.486 256.637,192.290 257.550 M338.428 257.876 C 338.518 258.915,339.144 259.796,339.172 258.924 C 339.187 258.442,339.020 257.936,338.800 257.800 C 338.580 257.664,338.413 257.698,338.428 257.876 M61.867 258.667 C 61.720 258.813,61.611 259.308,61.625 259.767 C 61.649 260.533,61.682 260.523,62.034 259.642 C 62.426 258.663,62.344 258.189,61.867 258.667 M339.493 262.900 C 339.781 265.152,340.000 265.321,340.000 263.290 C 340.000 262.387,339.837 261.547,339.638 261.424 C 339.432 261.296,339.369 261.930,339.493 262.900 M61.067 262.667 C 60.920 262.813,60.820 263.668,60.844 264.567 L 60.888 266.200 61.236 264.425 C 61.589 262.624,61.547 262.186,61.067 262.667 M209.062 265.200 C 209.195 266.850,209.371 268.275,209.452 268.367 C 209.772 268.727,209.522 263.751,209.182 263.000 C 208.951 262.489,208.908 263.282,209.062 265.200 M191.489 264.000 C 191.336 264.550,191.230 265.900,191.254 267.000 L 191.298 269.000 191.653 266.600 C 192.041 263.975,191.941 262.377,191.489 264.000 M140.017 265.100 C 140.026 265.265,140.378 266.030,140.800 266.800 C 141.721 268.482,141.865 267.855,140.971 266.061 C 140.367 264.852,139.981 264.463,140.017 265.100 M340.200 322.523 L 340.200 377.800 200.500 377.800 C 123.665 377.800,60.800 377.935,60.800 378.101 C 60.800 378.266,123.755 378.356,200.700 378.301 L 340.600 378.200 340.701 323.539 C 340.757 293.475,340.667 268.511,340.501 268.062 C 340.336 267.614,340.200 292.121,340.200 322.523 M255.282 276.500 C 252.874 281.395,250.580 286.120,250.185 287.000 C 249.789 287.880,249.395 288.735,249.309 288.900 C 249.223 289.065,249.242 289.200,249.352 289.200 C 249.536 289.200,250.918 286.422,257.311 273.200 C 258.640 270.450,259.800 268.065,259.888 267.900 C 259.975 267.735,259.960 267.600,259.853 267.600 C 259.747 267.600,257.690 271.605,255.282 276.500 M209.877 272.000 C 210.006 273.650,210.176 275.075,210.256 275.167 C 210.566 275.525,210.323 270.553,209.994 269.800 C 209.778 269.306,209.733 270.147,209.877 272.000 M142.512 270.300 C 142.961 271.146,149.313 284.224,150.590 286.933 C 151.403 288.656,152.154 289.979,152.261 289.873 C 152.367 289.767,150.371 285.465,147.827 280.314 C 145.282 275.162,143.200 270.734,143.200 270.474 C 143.200 270.213,143.009 270.000,142.776 270.000 C 142.543 270.000,142.424 270.135,142.512 270.300 M190.676 270.810 C 190.530 271.355,190.431 272.700,190.456 273.800 L 190.501 275.800 190.844 273.200 C 191.207 270.441,191.117 269.160,190.676 270.810 M210.583 278.200 C 210.727 279.740,211.007 282.260,211.205 283.800 C 211.404 285.340,211.763 288.310,212.004 290.400 C 212.631 295.851,213.106 299.739,213.592 303.400 C 214.512 310.341,214.447 310.705,211.035 317.552 C 209.349 320.935,208.049 323.782,208.145 323.878 C 208.312 324.045,213.586 313.540,214.369 311.482 C 214.732 310.526,214.557 307.973,213.566 299.800 C 213.352 298.040,213.003 295.115,212.789 293.300 C 212.575 291.485,212.225 288.515,212.010 286.700 C 211.796 284.885,211.453 281.722,211.248 279.672 C 211.044 277.621,210.752 275.821,210.599 275.672 C 210.446 275.522,210.439 276.660,210.583 278.200 M189.869 277.556 C 189.721 278.295,189.623 279.822,189.652 280.950 C 189.700 282.834,189.732 282.757,190.051 280.000 C 190.423 276.796,190.313 275.333,189.869 277.556 M189.076 284.010 C 188.930 284.555,188.832 286.080,188.857 287.400 L 188.904 289.800 189.251 286.800 C 189.614 283.668,189.529 282.314,189.076 284.010 M188.372 290.033 C 188.356 290.125,188.171 291.820,187.961 293.800 C 187.751 295.780,187.404 298.840,187.192 300.600 C 186.979 302.360,186.693 305.340,186.557 307.223 L 186.310 310.645 189.394 316.950 C 191.091 320.417,192.559 323.174,192.657 323.076 C 192.755 322.978,191.460 320.131,189.779 316.749 L 186.723 310.600 186.951 307.600 C 187.076 305.950,187.353 303.160,187.565 301.400 C 188.392 294.569,188.784 290.251,188.596 290.063 C 188.488 289.955,188.387 289.942,188.372 290.033 M154.034 293.800 C 154.034 294.020,154.378 294.830,154.800 295.600 C 155.222 296.370,155.566 296.820,155.566 296.600 C 155.566 296.380,155.222 295.570,154.800 294.800 C 154.378 294.030,154.034 293.580,154.034 293.800 M242.685 302.482 C 234.364 319.470,231.968 324.501,232.126 324.659 C 232.225 324.758,233.122 323.165,234.121 321.119 C 241.736 305.518,245.189 298.255,245.054 298.121 C 244.968 298.035,243.902 299.997,242.685 302.482 M156.511 299.100 C 156.598 299.265,157.848 301.830,159.288 304.800 C 166.071 318.791,167.669 322.000,167.851 322.000 C 167.959 322.000,167.977 321.865,167.891 321.700 C 167.805 321.535,167.409 320.680,167.012 319.800 C 165.290 315.990,156.725 298.800,156.548 298.800 C 156.441 298.800,156.424 298.935,156.511 299.100 M168.034 322.600 C 168.034 322.820,168.378 323.630,168.800 324.400 C 169.222 325.170,169.566 325.620,169.566 325.400 C 169.566 325.180,169.222 324.370,168.800 323.600 C 168.378 322.830,168.034 322.380,168.034 322.600 M193.634 325.400 C 193.634 325.620,193.978 326.430,194.400 327.200 C 194.822 327.970,195.166 328.420,195.166 328.200 C 195.166 327.980,194.822 327.170,194.400 326.400 C 193.978 325.630,193.634 325.180,193.634 325.400 M228.634 331.356 C 226.702 335.427,226.846 335.770,228.846 331.859 C 229.729 330.131,230.365 328.631,230.259 328.526 C 230.154 328.421,229.422 329.694,228.634 331.356 M172.000 330.961 C 172.000 331.049,174.087 335.414,176.639 340.661 C 179.190 345.907,182.092 351.874,183.086 353.919 C 184.081 355.965,184.971 357.562,185.064 357.469 C 185.220 357.313,181.430 349.325,174.925 336.100 C 172.638 331.452,172.000 330.331,172.000 330.961 M197.600 333.792 C 197.600 334.486,200.254 339.182,200.584 339.072 C 201.120 338.893,202.557 336.424,202.284 336.151 C 202.168 336.035,201.831 336.435,201.536 337.040 C 200.702 338.752,200.286 338.575,199.085 335.995 C 198.110 333.900,197.600 333.144,197.600 333.792 M225.046 338.858 C 224.471 340.012,224.009 341.147,224.019 341.379 C 224.030 341.610,224.582 340.747,225.246 339.460 C 225.910 338.173,226.372 337.039,226.273 336.939 C 226.173 336.840,225.621 337.703,225.046 338.858 M223.200 342.800 C 223.200 343.240,223.020 343.600,222.800 343.600 C 222.580 343.600,222.400 343.960,222.400 344.400 C 222.400 344.840,222.220 345.200,222.000 345.200 C 221.780 345.200,221.600 345.560,221.600 346.000 C 221.600 346.440,221.420 346.800,221.200 346.800 C 220.980 346.800,220.800 347.016,220.800 347.279 C 220.800 347.542,219.082 351.255,216.983 355.528 C 214.883 359.802,213.250 363.384,213.355 363.488 C 213.459 363.592,213.937 362.805,214.417 361.739 C 215.104 360.213,223.209 343.578,223.888 342.300 C 223.975 342.135,223.857 342.000,223.624 342.000 C 223.391 342.000,223.200 342.360,223.200 342.800 M186.020 359.900 C 186.054 360.419,189.159 366.220,189.180 365.804 C 189.191 365.585,188.554 364.100,187.765 362.504 C 186.446 359.833,185.968 359.121,186.020 359.900 M190.677 369.274 C 192.805 373.024,196.566 375.298,200.602 375.275 C 202.072 375.266,203.377 375.156,203.504 375.030 C 203.630 374.903,202.370 374.800,200.704 374.800 C 196.471 374.800,193.804 373.336,191.412 369.700 C 190.101 367.707,189.635 367.437,190.677 369.274 M209.475 370.381 C 209.091 371.030,208.198 371.969,207.489 372.466 C 206.780 372.964,206.140 373.513,206.067 373.686 C 205.993 373.858,205.599 374.000,205.190 374.000 C 204.782 374.000,204.324 374.199,204.174 374.443 C 203.648 375.292,205.765 374.331,207.480 372.940 C 209.222 371.529,211.111 369.200,210.513 369.200 C 210.326 369.200,209.859 369.731,209.475 370.381 " stroke="none" fill="#6486a0" fill-rule="evenodd"></path></g></svg>